<svg width="20" height="20" viewBox="0 0 20 20" fill="none" xmlns="http://www.w3.org/2000/svg">
<path d="M18.8682 3.92241L9.95517 0.863468C9.8027 0.811136 9.63785 0.811136 9.48538 0.863468L0.572312 3.92241C0.424416 3.97317 0.295782 4.07056 0.204633 4.20077C0.113484 4.33099 0.0644416 4.48744 0.0644531 4.64795V12.2953C0.0644531 12.4981 0.142707 12.6926 0.282001 12.836C0.421295 12.9795 0.610218 13.06 0.807209 13.06C1.0042 13.06 1.19312 12.9795 1.33242 12.836C1.47171 12.6926 1.54996 12.4981 1.54996 12.2953V5.70902L4.66861 6.77869C3.84003 8.15694 3.57654 9.8174 3.93601 11.3955C4.29547 12.9736 5.24851 14.3403 6.58585 15.1956C4.91465 15.8704 3.46999 17.0911 2.41342 18.7602C2.35847 18.8443 2.3203 18.9388 2.30113 19.0382C2.28196 19.1376 2.28218 19.2399 2.30176 19.3392C2.32135 19.4385 2.35991 19.5329 2.41521 19.6167C2.47052 19.7006 2.54145 19.7722 2.6239 19.8276C2.70635 19.883 2.79866 19.9209 2.89547 19.9392C2.99229 19.9575 3.09167 19.9559 3.18785 19.9343C3.28402 19.9127 3.37507 19.8716 3.45571 19.8135C3.53634 19.7554 3.60494 19.6813 3.65753 19.5956C5.0567 17.3856 7.2664 16.119 9.72027 16.119C12.1742 16.119 14.3839 17.3856 15.783 19.5956C15.892 19.7624 16.0602 19.8782 16.2515 19.9182C16.4427 19.9582 16.6416 19.919 16.805 19.8093C16.9685 19.6995 17.0834 19.5279 17.125 19.3316C17.1665 19.1353 17.1314 18.93 17.0271 18.7602C15.9706 17.0911 14.5203 15.8704 12.8547 15.1956C14.1908 14.3403 15.1429 12.9745 15.5023 11.3976C15.8617 9.82064 15.5991 8.16131 14.7719 6.78347L18.8682 5.37827C19.0162 5.32754 19.1448 5.23016 19.236 5.09994C19.3272 4.96972 19.3763 4.81326 19.3763 4.65273C19.3763 4.4922 19.3272 4.33574 19.236 4.20551C19.1448 4.07529 19.0162 3.97792 18.8682 3.92719V3.92241ZM14.1768 10.0011C14.177 10.7265 14.0102 11.4416 13.6899 12.0878C13.3697 12.7339 12.9053 13.2927 12.3347 13.7183C11.7641 14.1438 11.1037 14.424 10.4076 14.5359C9.71143 14.6478 8.99946 14.5881 8.33007 14.3618C7.66067 14.1355 7.05292 13.7491 6.55668 13.2341C6.06045 12.7192 5.68987 12.0904 5.47534 11.3995C5.26082 10.7085 5.20847 9.97503 5.32259 9.2592C5.43671 8.54338 5.71404 7.86561 6.13184 7.28151L9.48538 8.42861C9.63785 8.48094 9.8027 8.48094 9.95517 8.42861L13.3087 7.28151C13.873 8.06918 14.1773 9.02233 14.1768 10.0011ZM9.72027 6.90105L3.15617 4.64795L9.72027 2.39485L16.2844 4.64795L9.72027 6.90105Z" fill="#1A1A1A"/>
</svg>
