<svg width="21" height="21" viewBox="0 0 21 21" fill="none" xmlns="http://www.w3.org/2000/svg">
<path d="M11.4991 8.08671C11.6246 8.08671 11.7456 8.10688 11.8622 8.1405L14.0361 5.47572C14.1751 5.30539 14.4328 5.27401 14.6009 5.41745C14.7645 5.55416 14.7869 5.79845 14.6502 5.9643L12.5009 8.59995C12.6466 8.80165 12.734 9.05045 12.734 9.31939C12.734 9.81918 12.4337 10.2517 12.0056 10.4444H20.4392C20.7485 10.4444 20.9995 10.1935 20.9995 9.88415V2.79077C20.9995 2.48148 20.7485 2.23047 20.4392 2.23047H9.72631C9.41703 2.23047 9.16602 2.48148 9.16602 2.79077V7.44797L9.67253 8.08895H11.4991V8.08671Z" fill="#1A1A1A"/>
<path d="M4.51178 5.02551C5.77927 5.02551 6.80677 3.99802 6.80677 2.73053C6.80677 1.46305 5.77927 0.435547 4.51178 0.435547C3.2443 0.435547 2.2168 1.46305 2.2168 2.73053C2.2168 3.99802 3.2443 5.02551 4.51178 5.02551Z" fill="#1A1A1A"/>
<path d="M6.86478 20.0035C6.86478 20.3128 6.61377 20.5638 6.30448 20.5638H5.36318C5.05389 20.5638 4.80288 20.3128 4.80288 20.0035V15.306C4.80288 15.1401 4.66841 15.0057 4.50256 15.0057C4.33671 15.0057 4.20224 15.1401 4.20224 15.306V19.9811C4.20224 20.3016 3.94002 20.5638 3.61953 20.5638H2.6984C2.38911 20.5638 2.1381 20.3128 2.1381 20.0035L2.13362 8.66309C2.13362 8.51069 2.01035 8.3852 1.85571 8.3852C1.70331 8.3852 1.5778 8.50847 1.5778 8.66309V13.0245C1.5778 13.3337 1.32679 13.5848 1.0175 13.5848H0.560299C0.251014 13.5848 0 13.3337 0 13.0245V7.04495C0 6.33449 0.575987 5.76074 1.2842 5.76074H6.38741C6.93424 5.76074 7.45197 6.01176 7.79264 6.43982L9.16422 8.17003L9.45334 8.53534C9.45334 8.53534 10.7532 8.53534 11.5018 8.53758C11.8111 8.53758 12.0621 8.7886 12.0621 9.09788V9.54388C12.0621 9.85317 11.8111 10.1042 11.5018 10.1042H9.07684C8.83703 10.1042 8.61067 9.99436 8.46275 9.80608L7.44077 8.49274C7.38922 8.4255 7.3063 8.38516 7.22113 8.38516H7.15165C6.99925 8.38516 6.87377 8.50843 6.87377 8.66305L6.86478 20.0035Z" fill="#1A1A1A"/>
</svg>
