<svg width="1440" height="800" viewBox="0 0 1440 800" fill="none" xmlns="http://www.w3.org/2000/svg">
<rect width="1440" height="800" fill="#399EE7"/>
<path d="M670 316.5L660 310.726V322.274L670 316.5ZM120 315.5C119.448 315.5 119 315.948 119 316.5C119 317.052 119.448 317.5 120 317.5V315.5ZM661 315.5L120 315.5V317.5L661 317.5V315.5Z" fill="white"/>
<path d="M254.964 486.182C257.88 467.121 260.796 448.061 263.718 429C209.145 429.083 154.573 429.171 100 429.254C104.947 466.702 109.893 504.15 114.84 541.598C158.758 541.545 202.676 541.492 246.594 541.439C247.975 534.025 249.362 526.611 250.743 519.197C266.268 526.611 281.793 534.025 297.323 541.439C283.204 523.016 269.09 504.599 254.97 486.176L254.964 486.182Z" fill="#31A1D1"/>
<path d="M202.334 441.207H166.964V490.101H202.334V441.207Z" fill="white"/>
<path d="M195.756 458.13C198.025 455.861 198.025 452.184 195.756 449.915C193.488 447.647 189.81 447.647 187.542 449.915C185.273 452.184 185.273 455.861 187.542 458.13C189.81 460.398 193.488 460.398 195.756 458.13Z" fill="#FD9F58"/>
<path d="M170.223 490.096H168.594V529.769H170.223V490.096Z" fill="#342C3B"/>
<path d="M200.132 490.096H198.503V529.769H200.132V490.096Z" fill="#342C3B"/>
<path d="M202.334 490.096H166.964V492.846H202.334V490.096Z" fill="#342C3B"/>
<path d="M185.434 443.314H169V445.788H185.434V443.314Z" fill="#FD9F58"/>
<path d="M174.814 452.098H168.374V453.166H174.814V452.098Z" fill="#FD9F58"/>
<g opacity="0.44">
<path d="M182.706 454.358H168.374V455.427H182.706V454.358Z" fill="#FD9F58"/>
</g>
<g opacity="0.44">
<path d="M170.794 456.372H168.374V457.441H170.794V456.372Z" fill="#FD9F58"/>
</g>
<g opacity="0.44">
<path d="M177.954 456.372H172.11V457.441H177.954V456.372Z" fill="#FD9F58"/>
</g>
<path d="M181.024 456.372H178.805V457.441H181.024V456.372Z" fill="#FD9F58"/>
<path d="M179.389 452.098H176.515V453.166H179.389V452.098Z" fill="#FD9F58"/>
<path d="M171.331 466.277C171.331 466.277 172.382 465.823 172.925 465.699C173.462 465.575 176.118 464.701 176.532 464.784C176.945 464.866 177.901 465.864 178.066 465.947C178.232 466.029 178.273 467.688 178.066 468.143C177.86 468.597 176.16 469.016 176.16 469.016L173.297 468.06L171.638 469.016L171.331 466.277Z" fill="#FDBFC3"/>
<g style="mix-blend-mode:overlay" opacity="0.32">
<path d="M177.978 465.887C178.014 465.917 178.049 465.941 178.067 465.952C178.232 466.035 178.273 467.694 178.067 468.148C177.86 468.603 176.16 469.022 176.16 469.022L174.041 468.314C174.808 466.531 175.977 465.008 177.978 465.887Z" fill="black"/>
</g>
<path d="M159 458.479C159 458.479 162.087 465.711 162.559 469.199L171.331 466.277L172.276 469.199C172.276 469.199 162.282 475.515 161.054 475.421C159.826 475.326 157.282 471.932 157.282 471.932L159 458.479Z" fill="#DADADA"/>
<g style="mix-blend-mode:overlay" opacity="0.17">
<path d="M159 458.479C159 458.479 159.342 459.281 159.815 460.48C159.455 465.19 159.165 471.335 161.892 475.178C161.497 475.343 161.202 475.432 161.048 475.42C159.821 475.325 157.276 471.931 157.276 471.931L158.994 458.479H159Z" fill="black"/>
</g>
<path d="M144.798 453.161C144.485 452.824 144.361 452.204 144.709 451.915C144.078 451.862 143.517 451.425 143.151 450.876C142.785 450.327 142.578 449.678 142.389 449.04C142.271 448.651 142.159 448.244 142.206 447.83C142.254 447.423 142.496 447.01 142.867 446.91C142.938 446.892 143.015 446.88 143.062 446.815C143.121 446.732 143.074 446.614 143.039 446.514C142.744 445.747 143.074 444.879 143.44 444.147C143.712 443.616 144.013 443.084 144.444 442.683C144.874 442.282 145.459 442.034 146.02 442.14C146.456 440.977 147.478 440.086 148.641 439.856C149.798 439.625 151.055 440.074 151.858 440.995C151.952 441.107 152.047 441.225 152.176 441.29C152.294 441.349 152.43 441.355 152.554 441.367C154.089 441.508 155.293 442.783 156.344 443.982C156.45 444.106 156.592 444.265 156.663 444.513C156.822 445.109 156.397 445.658 156.143 446.077C155.458 447.228 156.031 447.5 155.429 448.993C155.24 449.465 154.555 451.39 153.05 451.632C152.643 451.697 152.23 451.655 151.816 451.667C150.718 451.691 149.662 452.057 148.67 452.535C148.186 452.765 147.726 453.043 147.242 453.285C146.917 453.444 146.575 453.515 146.226 453.592C145.725 453.698 145.164 453.568 144.798 453.167V453.161Z" fill="#342C3B"/>
<path d="M148.576 525.938C148.771 525.035 148.954 523.89 148.954 523.89L151.941 524.439V525.773C151.941 525.773 152.496 525.956 153.257 526.209C151.699 526.918 150.076 526.711 148.576 525.938Z" fill="#FDBFC3"/>
<path d="M148.576 525.938C150.075 526.711 151.704 526.917 153.257 526.209C154.874 526.746 157.442 527.62 157.814 527.838C158.363 528.157 157.814 529.769 157.814 529.769H148.31C147.714 527.838 148.08 527.425 148.31 526.923C148.387 526.758 148.481 526.374 148.576 525.938Z" fill="#342C3B"/>
<path d="M127.697 521.274L128.718 520.383C129.515 521.599 130.642 522.52 131.988 522.921C132.626 524.054 134.958 527.596 134.633 528.157C134.267 528.8 133.712 528.848 133.712 528.848L126.322 523.246C126.322 523.246 126.227 522.189 127.697 521.268V521.274Z" fill="#342C3B"/>
<path d="M128.718 520.383L129.857 519.392L131.829 521.275C131.829 521.275 131.734 522.195 131.829 522.609C131.84 522.662 131.894 522.768 131.982 522.927C130.636 522.526 129.515 521.605 128.712 520.389L128.718 520.383Z" fill="#FDBFC3"/>
<path d="M156.467 484.741C156.467 484.741 155.387 504.298 155.275 505.419C155.163 506.535 152.317 524.964 152.317 524.964C152.317 524.964 149.691 525.525 148.126 524.964L148.687 503.3L146.769 484.747H156.473L156.467 484.741Z" fill="#342C3B"/>
<g style="mix-blend-mode:overlay" opacity="0.09">
<path d="M146.77 484.741H152.602C151.893 490.538 150.341 495.998 148.493 501.399L146.77 484.741Z" fill="black"/>
</g>
<path d="M140.755 484.741L140.43 502.957L129.144 519.261C129.144 519.261 130.147 522.165 132.272 521.941C132.272 521.941 146.522 506.528 146.77 505.3C147.018 504.073 151.256 483.637 151.256 483.637L140.755 484.735V484.741Z" fill="#342C3B"/>
<path d="M147.354 454.961C147.436 453.881 146.911 451.496 146.911 451.496L152.253 451.101C152.253 451.101 152.584 453.102 152.991 454.501C151.38 455.439 149.072 455.728 147.354 454.961Z" fill="#FDBFC3"/>
<g style="mix-blend-mode:overlay" opacity="0.32">
<path d="M147.354 454.961C147.436 453.881 146.911 451.496 146.911 451.496L152.253 451.101C152.253 451.101 152.584 453.102 152.991 454.501C151.38 455.439 149.072 455.728 147.354 454.961Z" fill="black"/>
</g>
<path d="M141.385 478.833V459.955C141.385 458.899 146.45 456.579 147.082 455.841C147.241 455.652 147.324 455.333 147.353 454.961C149.065 455.729 151.379 455.44 152.991 454.501C153.097 454.861 153.203 455.186 153.309 455.422C153.835 456.585 158.268 457.004 159.006 458.48C159.744 459.955 156.473 484.742 156.473 484.742C151.727 486.743 140.76 484.742 140.76 484.742C140.76 484.742 141.391 479.89 141.391 478.833H141.385Z" fill="#DEDADA" fill-opacity="0.854902"/>
<g style="mix-blend-mode:overlay" opacity="0.09">
<path d="M146.799 456.868C146.521 456.815 146.22 456.744 145.913 456.656C146.48 456.313 146.922 456.03 147.082 455.841C147.241 455.652 147.324 455.333 147.353 454.961C149.065 455.729 151.379 455.44 152.991 454.501C153.097 454.861 153.203 455.186 153.309 455.422C153.392 455.599 153.563 455.758 153.799 455.912C151.751 457.399 149.272 457.364 146.799 456.868Z" fill="black"/>
</g>
<g style="mix-blend-mode:overlay" opacity="0.17">
<path d="M142.455 458.774C143.766 458.579 145.147 459.057 145.997 460.073C148.937 463.815 143.323 467.823 144.928 470.763C145.997 472.097 148.671 474.771 146.8 476.377C145.289 477.386 143.352 477.445 141.393 477.41V459.955C141.393 459.648 141.829 459.229 142.461 458.774H142.455Z" fill="black"/>
</g>
<path d="M141.386 459.955C141.386 459.955 134.633 469.972 134.214 471.873C133.795 473.774 134.533 474.824 135.584 475.356C136.64 475.881 146.764 475.881 146.764 475.881V473.242L141.386 471.135L145.2 465.574C145.695 464.848 145.914 463.969 145.796 463.101C145.536 461.236 144.609 458.42 141.386 459.961V459.955Z" fill="#DADADA"/>
<path d="M146.77 473.242L149.42 474.181C149.42 474.181 152.608 474.269 153.251 474.482C153.894 474.694 154.975 475.255 154.585 475.426C154.195 475.598 151.876 475.415 152.218 475.875C152.56 476.329 154.19 477.41 154.668 477.321C155.146 477.233 155.919 476.849 156.179 476.979C156.439 477.109 156.179 477.54 156.179 477.54C156.179 477.54 156.521 477.15 157.082 477.368C157.643 477.581 158.139 478.112 157.725 478.1C157.312 478.089 154.927 478.62 154.497 478.573C154.066 478.531 149.373 476.206 149.373 476.206L146.764 475.875V473.236L146.77 473.242Z" fill="#FDBFC3"/>
<path d="M145.636 449.902C144.172 447.417 144.875 444.294 147.201 442.931C149.526 441.561 152.596 442.47 154.06 444.956C154.638 445.935 154.875 447.016 154.81 448.055C154.91 448.946 155.028 449.66 154.998 450.168C154.928 451.455 154.739 452.334 154.16 453.143C153.971 453.403 153.481 453.857 152.744 454.017C152.289 454.117 152.301 454.365 150.435 453.881C148.688 453.426 148.31 453.143 148.098 452.96C147.661 452.576 147.407 452.139 147.266 451.838C146.947 451.555 146.516 451.136 146.085 450.569C146.085 450.569 145.819 450.233 145.631 449.908L145.636 449.902Z" fill="#FDBFC3"/>
<path d="M147.602 451.006C147.649 451.839 147.03 452.512 146.227 452.512C145.424 452.512 144.733 451.833 144.686 451C144.639 450.168 145.259 449.495 146.062 449.495C146.864 449.495 147.555 450.174 147.602 451.006Z" fill="#FDBFC3"/>
<path d="M152.997 448.456C153.062 448.568 153.162 448.68 153.274 448.668C153.351 448.662 153.416 448.592 153.445 448.509C153.475 448.426 153.475 448.326 153.463 448.237C153.451 448.119 153.422 448.001 153.357 447.901C153.298 447.801 153.203 447.724 153.103 447.718C152.725 447.688 152.867 448.226 152.997 448.456Z" fill="#342C3B"/>
<path d="M151.534 449.388C151.522 449.347 152.201 448.957 152.473 449.223C152.762 449.512 152.302 450.297 152.266 450.285C152.237 450.274 152.514 449.677 152.278 449.43C152.06 449.199 151.54 449.424 151.528 449.388H151.534Z" fill="#342C3B"/>
<path d="M149.391 447.323C149.497 447.287 149.633 447.264 149.722 447.352C149.822 447.447 149.798 447.618 149.751 447.748C149.627 448.043 149.391 448.273 149.108 448.379C149.019 448.415 148.919 448.433 148.824 448.415C148.73 448.397 148.63 448.338 148.588 448.244C148.405 447.854 149.149 447.411 149.403 447.323H149.391Z" fill="#342C3B"/>
<path d="M152.384 446.591C152.271 446.62 152.148 446.673 152.124 446.785C152.094 446.915 152.207 447.039 152.325 447.116C152.596 447.287 152.927 447.346 153.228 447.281C153.322 447.258 153.417 447.228 153.487 447.163C153.558 447.098 153.606 446.998 153.588 446.898C153.523 446.49 152.637 446.526 152.384 446.591Z" fill="#342C3B"/>
<path d="M151.947 451.076C152.844 450.899 153.292 450.811 153.375 450.929C153.505 451.112 153.233 451.566 152.956 451.814C152.879 451.885 152.625 452.092 152.236 452.145C151.415 452.257 150.63 451.572 150.695 451.383C150.713 451.336 150.778 451.336 151.049 451.283C151.522 451.194 151.256 451.212 151.947 451.076Z" fill="white"/>
<path d="M153.157 447.842C153.092 447.848 153.045 447.919 153.062 447.99C153.074 448.055 153.139 448.108 153.204 448.096C153.269 448.084 153.31 448.013 153.293 447.948C153.281 447.889 153.222 447.836 153.157 447.842Z" fill="white"/>
<path d="M149.674 449.347C149.745 449.459 149.845 449.565 149.958 449.547C150.034 449.536 150.093 449.465 150.123 449.382C150.146 449.3 150.146 449.199 150.129 449.105C150.111 448.987 150.076 448.869 150.011 448.774C149.946 448.68 149.851 448.603 149.751 448.603C149.373 448.585 149.533 449.122 149.674 449.347Z" fill="#342C3B"/>
<path d="M149.81 448.727C149.745 448.733 149.704 448.81 149.716 448.875C149.734 448.94 149.793 448.993 149.858 448.975C149.922 448.963 149.958 448.887 149.94 448.828C149.922 448.769 149.863 448.715 149.804 448.727H149.81Z" fill="white"/>
<path d="M149.373 450.179C149.344 450.008 149.875 449.796 150.158 449.719C150.306 449.678 150.808 449.536 150.884 449.678C150.961 449.819 150.625 450.256 150.176 450.357C149.828 450.439 149.403 450.321 149.379 450.179H149.373Z" fill="#DE3A65"/>
<path d="M153.027 449.069C153.027 448.951 153.334 448.886 153.612 448.827C153.889 448.768 154.22 448.703 154.273 448.81C154.338 448.934 154.043 449.323 153.665 449.359C153.364 449.388 153.027 449.199 153.027 449.069Z" fill="#DE3A65"/>
<path d="M146.54 451.478C146.54 451.478 146.563 451.466 146.569 451.454C146.616 451.401 146.61 451.313 146.557 451.26C146.215 450.923 145.453 450.876 145.418 450.876C145.347 450.876 145.288 450.929 145.288 451.006C145.288 451.083 145.347 451.148 145.418 451.148C145.613 451.159 146.156 451.236 146.38 451.454C146.421 451.496 146.486 451.508 146.534 451.478H146.54Z" fill="#DE3A65"/>
<path d="M152.743 443.627C152.637 443.592 152.53 443.562 152.424 443.58C152.259 443.61 152.147 443.757 152.034 443.881C151.521 444.466 150.771 444.826 149.998 444.938C149.225 445.05 148.434 444.92 147.702 444.649C147.43 444.548 147.1 444.436 146.887 444.631C146.799 444.713 146.757 444.831 146.728 444.95C146.515 445.782 146.834 446.65 147.111 447.458C147.395 448.273 147.637 449.182 147.294 449.967C147.2 450.191 147.023 450.41 146.781 450.427C146.627 450.439 146.48 450.363 146.35 450.28C145.854 449.985 145.346 449.625 144.774 449.648C144.673 449.648 144.561 449.666 144.479 449.613C144.361 449.536 144.349 449.377 144.355 449.235C144.367 447.877 144.384 446.52 144.396 445.162C144.396 444.82 144.402 444.471 144.52 444.147C144.644 443.81 144.88 443.533 145.128 443.279C146.515 441.868 148.546 441.048 150.506 441.313C151.474 441.443 152.4 441.862 153.156 442.476C153.528 442.783 153.864 443.137 154.136 443.539C154.272 443.739 154.396 443.952 154.502 444.176C154.531 444.241 154.649 444.418 154.632 444.489C154.614 444.566 154.537 444.507 154.484 444.483C154.219 444.342 153.971 444.164 153.693 444.023C153.386 443.869 153.067 443.734 152.743 443.627Z" fill="#342C3B"/>
<path d="M173.439 470.067C185.375 458.757 191.39 453.149 191.485 453.249C191.579 453.35 185.794 459.123 174.124 470.569C174.124 470.569 173.368 470.846 173.439 470.067Z" fill="#342C3B"/>
<path d="M176.661 466.949C176.567 466.92 176.467 466.884 176.366 466.89C176.26 466.89 176.16 466.943 176.065 466.985C175.959 467.038 175.835 467.109 175.835 467.227C175.835 467.292 175.87 467.345 175.906 467.398C176.36 468.053 177.116 468.484 177.913 468.543C178.119 468.555 178.338 468.543 178.497 468.419C178.627 468.319 178.668 468.148 178.651 467.988C178.633 467.864 178.544 467.799 178.444 467.74C178.084 467.534 177.706 467.357 177.323 467.197C177.104 467.109 176.886 467.026 176.661 466.949Z" fill="#FDBFC3"/>
<path d="M177.087 466.182C176.993 466.152 176.892 466.117 176.792 466.123C176.686 466.123 176.585 466.176 176.491 466.217C176.385 466.27 176.261 466.341 176.261 466.459C176.261 466.524 176.296 466.577 176.332 466.63C176.786 467.286 177.542 467.717 178.339 467.776C178.545 467.787 178.764 467.776 178.923 467.652C179.053 467.551 179.094 467.38 179.076 467.221C179.059 467.097 178.97 467.032 178.87 466.973C178.51 466.766 178.132 466.589 177.748 466.43C177.53 466.341 177.311 466.258 177.087 466.182Z" fill="#FDBFC3"/>
<path d="M175.966 467.57C175.872 467.541 175.771 467.505 175.671 467.511C175.565 467.511 175.464 467.565 175.37 467.606C175.264 467.659 175.14 467.73 175.14 467.848C175.14 467.913 175.175 467.966 175.21 468.019C175.665 468.674 176.421 469.105 177.217 469.164C177.424 469.176 177.642 469.164 177.802 469.04C177.932 468.94 177.973 468.769 177.955 468.609C177.938 468.485 177.849 468.42 177.749 468.361C177.389 468.155 177.011 467.978 176.627 467.818C176.409 467.73 176.19 467.647 175.966 467.57Z" fill="#FDBFC3"/>
<path d="M175.386 468.183C175.316 468.159 175.239 468.136 175.162 468.136C175.08 468.136 175.003 468.177 174.932 468.212C174.849 468.254 174.755 468.307 174.755 468.401C174.755 468.449 174.778 468.49 174.808 468.531C175.156 469.033 175.741 469.364 176.349 469.411C176.508 469.423 176.673 469.411 176.797 469.316C176.898 469.24 176.933 469.104 176.915 468.986C176.904 468.891 176.839 468.838 176.756 468.797C176.479 468.637 176.189 468.502 175.894 468.384C175.729 468.313 175.558 468.248 175.386 468.189V468.183Z" fill="#FDBFC3"/>
<path d="M221.412 441.207L253.943 441.266L250.059 467.511L218.289 467.322L221.412 441.207Z" fill="white"/>
<path d="M216.724 474.216L249.261 474.275L245.377 500.519L213.607 500.33L216.724 474.216Z" fill="white"/>
<path d="M248.104 464.59H223.034V467.429H248.104V464.59Z" fill="#342C3B"/>
<path d="M240.4 451.314C240.955 450.494 241.197 449.402 241.002 448.398C240.896 447.837 240.719 447.442 240.542 447.094C240.306 446.621 239.609 445.211 238.033 444.455C237.1 444.006 236.274 443.989 235.323 443.965C234.338 443.941 233.718 443.93 233.004 444.225C231.398 444.898 230.743 446.58 230.442 447.347C230.117 448.18 229.816 449.024 230.011 450.075C230.276 451.503 231.41 452.583 232.655 453.014C233.854 453.427 235.135 453.333 236.356 453.109C236.888 453.008 237.407 452.932 237.944 452.873C238.304 452.831 238.623 452.731 238.948 452.554C239.509 452.253 240.01 451.857 240.388 451.302L240.4 451.314Z" fill="#342C3B"/>
<path d="M229.392 450.582C229.616 451.586 230.265 452.3 230.85 452.17C231.434 452.04 231.729 451.119 231.505 450.116C231.28 449.112 230.631 448.398 230.047 448.528C229.462 448.658 229.167 449.579 229.392 450.582Z" fill="#FD9F58"/>
<path d="M243.654 459.041C243.654 459.041 245.501 463.876 245.277 464.537C245.058 465.198 244.22 465.458 243.122 465.416C242.024 465.375 241.104 460.582 241.104 460.582C241.104 460.582 242.951 458.823 243.654 459.041Z" fill="#FDBFC3"/>
<path d="M227.521 461.833C227.763 460.463 228.005 459.259 228.005 459.259C230.596 457.943 231.186 460.623 231.186 460.623C231.027 461.213 230.873 461.809 230.714 462.4C229.581 462.152 228.565 461.803 227.521 461.839V461.833Z" fill="#FDBFC3"/>
<path d="M234.586 456.503C233.558 455.73 232.531 454.295 232.26 452.837C233.009 452.766 233.553 452.796 233.553 452.796L238.245 451.479C238.245 451.479 237.85 452.489 238.245 452.973C238.44 453.215 238.706 453.315 239.036 453.374C238.11 455.653 236.345 458.268 234.586 456.503Z" fill="#FDBFC3"/>
<g style="mix-blend-mode:overlay" opacity="0.51">
<path d="M234.587 455.712C233.919 455.381 233.329 454.903 232.804 454.348C232.55 453.864 232.361 453.357 232.261 452.843C233.01 452.772 233.553 452.802 233.553 452.802L238.246 451.485C238.246 451.485 237.851 452.495 238.246 452.979C238.423 453.197 238.665 453.298 238.949 453.357C237.998 455.021 236.292 456.397 234.581 455.712H234.587Z" fill="black"/>
</g>
<path d="M227.916 455.883C228.483 454.779 229.445 454.171 230.077 453.77C230.915 453.238 231.706 452.979 232.255 452.837C232.526 454.295 233.553 455.729 234.581 456.503C236.346 458.268 238.105 455.647 239.031 453.374C239.657 453.486 240.519 453.439 241.581 453.894C241.882 454.023 243.069 454.549 243.777 455.747C244.686 457.276 244.267 458.964 244.132 459.436C243.718 459.637 243.264 459.826 242.78 460.027C242.077 460.316 241.316 460.605 241.097 460.582V465.416H230.814L231.18 460.623C230.85 460.416 230.325 460.139 229.628 459.979C228.896 459.814 228.27 459.85 227.875 459.903C227.71 459.478 227.025 457.63 227.916 455.889V455.883Z" fill="#E7E7E7"/>
<g style="mix-blend-mode:overlay" opacity="0.26">
<path d="M244.244 458.97C244.202 459.171 244.161 459.336 244.132 459.437C243.718 459.637 243.264 459.826 242.78 460.027C242.077 460.316 241.316 460.605 241.097 460.582V465.416H239.533C239.964 463.25 240.253 461.172 240.537 458.894C241.564 460.263 242.88 459.277 244.244 458.976V458.97Z" fill="black"/>
</g>
<g style="mix-blend-mode:overlay" opacity="0.26">
<path d="M231.806 459.283C232.313 461.326 232.337 463.368 232.284 465.41H230.82L231.186 460.617C231.074 460.546 230.926 460.464 230.767 460.387C231.215 460.234 231.51 459.868 231.8 459.283H231.806Z" fill="black"/>
</g>
<path d="M230.714 462.4C230.643 462.671 230.572 462.943 230.495 463.214C231.451 463.214 232.248 463.238 232.827 463.255C233.925 463.297 234.415 463.368 235.507 463.391C236.67 463.421 237.768 463.433 237.768 463.433C237.768 463.433 239.22 464.224 238.293 464.926C237.372 465.628 227.502 465.977 227.13 465.693C226.924 465.54 227.219 463.556 227.526 461.833C228.577 461.803 229.586 462.146 230.719 462.394L230.714 462.4Z" fill="#FDBFC3"/>
<g style="mix-blend-mode:overlay" opacity="0.26">
<path d="M235.035 463.379C235.183 463.379 235.336 463.391 235.501 463.397C236.664 463.426 237.762 463.438 237.762 463.438C237.762 463.438 239.214 464.229 238.287 464.931C237.367 465.634 227.497 465.982 227.125 465.699C227.066 465.657 227.048 465.474 227.06 465.209C229.746 466.141 233.353 465.622 235.035 463.385V463.379Z" fill="black"/>
</g>
<path d="M238.93 449.331C239.267 447.065 237.791 444.969 235.631 444.65C233.476 444.332 231.457 445.908 231.121 448.174C230.991 449.072 231.144 449.939 231.504 450.677C231.504 450.677 231.422 453.812 234.356 454.697C236.126 455.234 238.682 451.327 238.682 450.258C238.724 450.158 238.759 450.057 238.789 449.951C238.848 449.75 238.895 449.544 238.93 449.325V449.331Z" fill="#FDBFC3"/>
<path d="M237.755 450.554C237.973 451.18 238.64 451.493 239.242 451.257C239.845 451.015 240.151 450.312 239.933 449.686C239.715 449.061 239.048 448.748 238.446 448.984C237.843 449.226 237.536 449.928 237.755 450.554Z" fill="#FDBFC3"/>
<path d="M232.908 450.555C232.896 450.655 232.849 450.767 232.766 450.791C232.707 450.808 232.636 450.779 232.589 450.726C232.542 450.673 232.512 450.602 232.495 450.531C232.471 450.442 232.453 450.342 232.471 450.254C232.489 450.165 232.536 450.076 232.607 450.041C232.878 449.905 232.937 450.348 232.908 450.555Z" fill="#342C3B"/>
<path d="M234.225 450.666C234.225 450.631 233.593 450.548 233.475 450.826C233.345 451.127 233.929 451.564 233.953 451.546C233.971 451.528 233.581 451.174 233.681 450.92C233.776 450.684 234.23 450.696 234.225 450.666Z" fill="#342C3B"/>
<path d="M235.251 448.647C235.163 448.647 235.057 448.677 235.015 448.766C234.968 448.866 235.039 448.984 235.116 449.067C235.299 449.25 235.546 449.35 235.794 449.344C235.871 449.344 235.948 449.326 236.019 449.285C236.09 449.244 236.137 449.173 236.143 449.09C236.16 448.748 235.464 448.642 235.257 448.653L235.251 448.647Z" fill="#342C3B"/>
<path d="M232.79 448.996C232.879 448.984 232.991 448.984 233.044 449.061C233.109 449.15 233.056 449.274 232.997 449.362C232.849 449.569 232.619 449.71 232.371 449.752C232.295 449.764 232.212 449.769 232.141 449.74C232.07 449.716 232.005 449.651 231.982 449.575C231.905 449.256 232.578 449.02 232.79 448.99V448.996Z" fill="#342C3B"/>
<path d="M234.743 452.373C233.787 452.497 233.463 452.45 233.404 452.627C233.339 452.81 233.61 453.058 233.669 453.117C233.687 453.134 233.917 453.341 234.224 453.365C234.903 453.412 235.529 452.526 235.416 452.332C235.381 452.267 235.275 452.308 234.743 452.373Z" fill="white"/>
<path d="M232.602 450.148C232.655 450.13 232.708 450.171 232.72 450.224C232.732 450.277 232.702 450.33 232.649 450.342C232.596 450.354 232.549 450.313 232.537 450.26C232.531 450.212 232.555 450.153 232.602 450.142V450.148Z" fill="white"/>
<path d="M235.665 450.23C235.647 450.33 235.6 450.442 235.517 450.46C235.458 450.477 235.388 450.442 235.346 450.389C235.299 450.336 235.275 450.259 235.258 450.188C235.234 450.1 235.222 449.999 235.24 449.911C235.258 449.822 235.311 449.74 235.382 449.704C235.659 449.58 235.7 450.023 235.665 450.23Z" fill="#342C3B"/>
<path d="M235.369 449.811C235.423 449.799 235.476 449.84 235.482 449.893C235.487 449.946 235.458 449.999 235.405 450.011C235.352 450.023 235.305 449.976 235.299 449.923C235.293 449.876 235.322 449.816 235.369 449.805V449.811Z" fill="white"/>
<path d="M236.143 450.755C236.113 450.619 235.653 450.625 235.417 450.649C235.293 450.661 234.88 450.708 234.862 450.832C234.844 450.956 235.234 451.18 235.6 451.121C235.883 451.08 236.166 450.867 236.143 450.755Z" fill="#DE3A65"/>
<path d="M233.067 451.015C233.026 450.927 232.784 450.974 232.56 451.015C232.335 451.056 232.07 451.104 232.058 451.198C232.046 451.31 232.383 451.505 232.684 451.422C232.92 451.357 233.109 451.115 233.067 451.021V451.015Z" fill="#DE3A65"/>
<path d="M238.699 450.589C238.699 450.589 238.682 450.589 238.67 450.577C238.617 450.554 238.593 450.489 238.617 450.43C238.77 450.081 239.325 449.822 239.349 449.81C239.402 449.786 239.461 449.81 239.484 449.863C239.508 449.916 239.484 449.981 239.431 450.011C239.29 450.076 238.906 450.294 238.805 450.518C238.788 450.566 238.741 450.589 238.699 450.583V450.589Z" fill="#DE3A65"/>
<path d="M235.383 466.183C235.572 466 235.755 465.823 235.949 465.64L238.807 460.569L238.594 460.451L238.393 460.339L235.536 465.409C235.483 465.657 235.436 465.911 235.389 466.159C235.389 466.165 235.389 466.177 235.389 466.183H235.383Z" fill="#AC70E1"/>
<path d="M238.515 460.535L238.572 460.567C238.648 460.611 238.745 460.585 238.789 460.508L238.86 460.385C238.904 460.309 238.877 460.212 238.801 460.168L238.745 460.135C238.668 460.092 238.571 460.118 238.527 460.194L238.457 460.317C238.413 460.394 238.439 460.491 238.515 460.535Z" fill="white"/>
<g style="mix-blend-mode:overlay" opacity="0.26">
<path d="M235.389 466.161L238.594 460.453L238.393 460.341L235.536 465.411C235.483 465.659 235.436 465.913 235.389 466.161Z" fill="black"/>
</g>
<path d="M238.216 460.576L238.697 460.853L238.894 460.51L238.413 460.233L238.216 460.576Z" fill="#BFE5F7"/>
<path d="M245.252 464.005C245.252 464.005 245.235 463.432 243.735 462.996C242.236 462.559 238.771 463.48 238.771 463.48C238.771 463.48 237.939 462.334 237.366 462.47C236.794 462.6 235.259 463.834 235.259 464.141C235.259 464.448 236.357 465.546 236.752 465.699C237.148 465.853 239.084 465.416 239.084 465.416C239.084 465.416 244.184 466.319 244.928 465.758C245.677 465.191 245.276 464.247 245.258 464.005H245.252Z" fill="#FDBFC3"/>
<path d="M240.271 453.174C240.324 453.793 240.117 454.455 239.639 454.85C239.598 454.885 239.545 454.921 239.492 454.909C239.427 454.897 239.391 454.826 239.374 454.803C239.108 454.307 238.73 453.882 238.47 453.386C238.394 453.239 238.27 453.008 238.116 452.731C238.411 451.946 238.978 451.503 239.391 451.598C239.751 451.68 239.993 452.164 240.082 452.389C240.182 452.642 240.253 452.908 240.277 453.18L240.271 453.174Z" fill="#342C3B"/>
<path d="M240.223 454.702C240.27 455.18 240.17 455.664 239.999 456.136C239.922 456.348 239.833 456.567 239.68 456.756C239.68 456.756 239.42 456.443 239.403 456.408C239.32 456.284 239.255 456.148 239.196 456.012C239.084 455.729 239.031 455.434 239.037 455.127C239.037 454.826 239.096 454.524 239.214 454.229C239.267 454.094 239.497 453.48 239.757 453.627C239.91 453.71 240.011 453.976 240.075 454.117C240.152 454.3 240.205 454.501 240.223 454.696V454.702Z" fill="#342C3B"/>
<path d="M239.881 457.524C239.834 458.073 239.515 458.634 238.99 458.793C238.913 458.817 238.807 458.073 238.801 458.002C238.789 457.719 238.83 457.441 238.913 457.17C238.996 456.898 239.12 456.645 239.273 456.408C239.332 456.32 239.421 456.143 239.539 456.119C239.686 456.09 239.698 456.285 239.728 456.391C239.834 456.757 239.911 457.14 239.881 457.53V457.524Z" fill="#342C3B"/>
<path d="M236.476 448.605C236.594 448.227 236.706 447.784 236.771 447.288C236.812 446.993 236.824 446.976 236.836 446.722C236.547 447.3 236.246 447.737 235.956 448.31C235.118 448.144 234.262 448.044 233.43 448.233C233.459 447.784 233.56 447.336 233.731 446.917C233.182 447.33 232.969 448.074 232.42 448.487C231.978 448.817 231.458 449.095 230.85 449.23C230.726 447.082 232.143 444.933 234.162 444.195C234.534 444.06 234.923 443.965 235.319 443.971C235.697 443.971 236.063 444.065 236.423 444.178C237.969 444.656 239.067 445.819 239.268 446.025C240.041 446.816 240.649 447.436 240.484 448.091C240.378 448.516 239.994 448.788 239.722 448.935C239.534 448.864 239.238 448.794 238.961 448.912C238.359 449.171 238.323 450.128 238.052 450.116C237.875 450.11 237.857 449.715 237.55 449.313C237.243 448.906 236.806 448.711 236.464 448.605H236.476Z" fill="#342C3B"/>
<path d="M237.626 449.909C237.626 450.936 238.458 451.775 239.491 451.775C240.524 451.775 241.357 450.942 241.357 449.909C241.357 448.876 240.524 448.044 239.491 448.044C238.458 448.044 237.626 448.876 237.626 449.909Z" fill="#FD9F58"/>
<path d="M230.732 449.23C230.737 449.035 230.95 444.514 235.017 444.36C236.091 444.325 236.983 444.626 237.667 445.263C239.155 446.657 239.238 449.201 239.238 449.224L240.029 449.207C240.029 449.089 239.94 446.308 238.211 444.685C237.366 443.894 236.274 443.51 234.982 443.563C230.165 443.746 229.935 449.148 229.929 449.201L230.72 449.23H230.732Z" fill="#FD9F58"/>
<path d="M234.492 483.685C234.752 482.687 235.018 481.683 235.277 480.686C235.366 480.343 235.454 480.001 235.484 479.647C235.496 479.541 235.496 479.428 235.46 479.322C235.413 479.198 235.319 479.098 235.218 479.009C234.87 478.685 234.51 478.378 234.132 478.089C233.778 477.817 233.406 477.563 233.005 477.398C232.06 477.002 231.015 477.097 230.018 477.197C230.1 477.209 230.177 477.256 230.23 477.327C228.861 477.327 227.521 477.9 226.565 478.88C226.813 478.773 227.096 478.756 227.361 478.82C226.736 479.423 226.069 480.107 226.016 481.005C226.488 480.981 227.019 480.981 227.379 481.312C227.55 481.471 227.663 481.689 227.757 481.914C227.893 482.256 227.987 482.61 228.034 482.97C228.088 483.378 228.088 483.808 228.276 484.18C228.395 484.411 228.583 484.605 228.79 484.759C229.132 485.013 229.534 485.172 229.935 485.29C230.313 485.402 230.703 485.491 231.092 485.55C231.482 485.609 231.877 485.632 232.273 485.627C232.468 485.627 232.662 485.615 232.857 485.597C233.04 485.579 233.241 485.573 233.418 485.526C233.56 485.491 233.689 485.361 233.79 485.255C233.908 485.131 234.008 484.983 234.091 484.83C234.262 484.511 234.368 484.163 234.469 483.808C234.48 483.767 234.492 483.72 234.504 483.679L234.492 483.685Z" fill="#342C3B"/>
<path d="M237.963 495.148L238.123 495.089L237.485 494.734L240.401 492.485C240.401 492.485 241.83 493.666 242.438 494.327C241.009 493.878 239.504 495.035 237.963 495.142V495.148Z" fill="#FDBFC3"/>
<g style="mix-blend-mode:overlay" opacity="0.43">
<path d="M237.963 495.148L238.122 495.089L237.484 494.734L240.4 492.485C240.4 492.485 241.829 493.666 242.437 494.327C241.008 493.878 239.503 495.035 237.963 495.142V495.148Z" fill="black"/>
</g>
<path d="M236.228 488.442C236.228 488.442 237.869 488.808 240.92 492.592C240.92 492.592 237.751 494.847 237.497 495.16L236.263 494.375L236.222 488.442H236.228Z" fill="#CDCDCD"/>
<path d="M222.013 492.468L224.121 495.024C222.81 494.906 221.494 494.522 220.184 494.481C220.998 493.524 222.019 492.468 222.019 492.468H222.013Z" fill="#FDBFC3"/>
<g style="mix-blend-mode:overlay" opacity="0.43">
<path d="M222.013 492.468L224.121 495.024C222.81 494.906 221.494 494.522 220.184 494.481C220.998 493.524 222.019 492.468 222.019 492.468H222.013Z" fill="black"/>
</g>
<path d="M224.823 488.301C224.823 488.301 221.818 491.707 221.287 492.421L224.18 495.089C224.18 495.089 229.073 494.239 224.823 488.295V488.301Z" fill="#CDCDCD"/>
<g style="mix-blend-mode:overlay" opacity="0.25">
<path d="M224.469 488.702C224.687 488.454 224.823 488.301 224.823 488.301C229.067 494.239 224.18 495.095 224.18 495.095L223.654 494.611C224.428 492.817 224.587 490.78 224.469 488.708V488.702Z" fill="black"/>
</g>
<path d="M229.403 487.066C229.244 486.907 229.043 486.724 228.854 486.523C229.687 486.146 230.448 482.97 230.448 482.97L233.559 483.908C233.559 483.908 233.093 486.411 233.134 486.966C232.042 488.023 230.336 487.763 229.403 487.066Z" fill="#FDBFC3"/>
<g style="mix-blend-mode:overlay" opacity="0.43">
<path d="M228.944 485.939C229.304 485.555 229.788 484.947 230.131 484.097C230.296 483.684 230.391 483.3 230.45 482.97L233.56 483.908C233.56 483.908 233.395 484.8 233.271 485.632C232.303 487.438 230.65 488.064 229.783 487.592C229.104 487.22 228.974 486.216 228.944 485.939Z" fill="black"/>
</g>
<path d="M224.823 488.301C225 488.041 227.999 486.873 228.837 486.53C228.837 486.53 228.849 486.53 228.855 486.524C229.044 486.731 229.25 486.914 229.404 487.067C230.33 487.764 232.042 488.018 233.134 486.967C233.134 487.008 233.14 487.038 233.152 487.056C233.282 487.31 236.08 488 236.582 488.756C237.083 489.511 236.428 499.948 236.428 499.948L225.018 500.255C225.018 500.255 224.652 488.567 224.823 488.301Z" fill="#CDCDCD"/>
<g style="mix-blend-mode:overlay" opacity="0.25">
<path d="M236.222 488.424C236.381 488.53 236.505 488.642 236.582 488.749C237.084 489.504 236.428 499.94 236.428 499.94L230.909 500.088C234.309 497.39 236.299 493.152 236.228 488.418L236.222 488.424Z" fill="black"/>
</g>
<path d="M220.183 494.48C221.494 494.528 222.81 494.905 224.121 495.024L224.18 495.094L226.883 495.938C227.237 495.909 229.103 496.523 229.103 496.523C229.103 496.523 230.809 496.901 231.086 496.96C231.358 497.019 231.181 497.355 231.222 497.485C231.269 497.615 229.168 497.473 228.772 497.574C228.377 497.674 226.86 497.515 226.86 497.515C226.86 497.515 220.703 498.01 220.154 497.892C219.605 497.774 219.091 496.452 219.198 495.874C219.239 495.649 219.676 495.088 220.189 494.486L220.183 494.48Z" fill="#FDBFC3"/>
<path d="M231.611 496.854C231.924 496.836 233.246 496.512 233.471 496.423C233.695 496.34 235.495 496.069 235.495 496.069L237.963 495.142C239.504 495.036 241.009 493.873 242.437 494.328C242.532 494.428 242.608 494.522 242.656 494.593C242.998 495.124 243.299 496.99 242.172 497.326C241.044 497.657 235.684 497.503 235.684 497.503C235.684 497.503 234.008 497.863 233.524 497.698C233.046 497.533 230.903 497.698 230.856 497.539C230.809 497.379 231.293 496.878 231.605 496.86L231.611 496.854Z" fill="#FDBFC3"/>
<path d="M234.386 482.958C235.047 480.91 234.037 478.655 232.131 477.929C230.224 477.203 228.146 478.277 227.491 480.326C227.231 481.134 227.237 481.978 227.45 482.746C227.45 482.746 226.883 485.662 229.404 487.073C230.926 487.929 233.854 484.782 234.026 483.785C234.079 483.696 234.126 483.614 234.173 483.519C234.262 483.342 234.332 483.159 234.397 482.964L234.386 482.958Z" fill="#FDBFC3"/>
<path d="M233.077 483.542C233.248 484.156 233.844 484.516 234.411 484.339C234.977 484.162 235.296 483.524 235.125 482.905C234.954 482.291 234.357 481.931 233.791 482.108C233.224 482.285 232.905 482.922 233.077 483.542Z" fill="#FDBFC3"/>
<path d="M228.621 483.118C228.603 483.212 228.556 483.318 228.479 483.33C228.42 483.342 228.361 483.307 228.319 483.253C228.278 483.2 228.255 483.13 228.243 483.059C228.225 482.97 228.213 482.876 228.237 482.793C228.255 482.71 228.302 482.634 228.373 482.604C228.626 482.504 228.662 482.923 228.626 483.118H228.621Z" fill="#342C3B"/>
<path d="M229.825 483.341C229.825 483.306 229.252 483.17 229.128 483.424C228.992 483.696 229.512 484.168 229.529 484.156C229.547 484.144 229.211 483.766 229.311 483.536C229.406 483.324 229.825 483.371 229.825 483.341Z" fill="#342C3B"/>
<path d="M230.869 481.512C230.787 481.512 230.686 481.524 230.645 481.6C230.598 481.695 230.657 481.813 230.722 481.895C230.881 482.084 231.1 482.202 231.33 482.22C231.401 482.22 231.471 482.22 231.536 482.185C231.601 482.149 231.654 482.084 231.66 482.008C231.696 481.683 231.064 481.524 230.863 481.512H230.869Z" fill="#342C3B"/>
<path d="M228.59 481.624C228.673 481.624 228.773 481.636 228.82 481.713C228.873 481.801 228.82 481.919 228.761 481.996C228.614 482.179 228.395 482.297 228.171 482.315C228.1 482.315 228.023 482.315 227.958 482.285C227.893 482.256 227.834 482.191 227.823 482.114C227.769 481.801 228.395 481.642 228.596 481.63L228.59 481.624Z" fill="#342C3B"/>
<path d="M229.535 484.888C228.839 484.876 228.667 484.829 228.608 484.941C228.502 485.148 228.868 485.697 229.352 485.85C229.411 485.868 229.565 485.909 229.753 485.886C230.326 485.803 230.786 485.177 230.674 484.953C230.609 484.835 230.421 484.906 229.535 484.894V484.888Z" fill="white"/>
<path d="M228.361 482.704C228.408 482.692 228.455 482.739 228.467 482.793C228.473 482.84 228.443 482.893 228.396 482.899C228.349 482.905 228.302 482.863 228.296 482.81C228.296 482.763 228.32 482.716 228.361 482.704Z" fill="white"/>
<path d="M231.171 483.053C231.147 483.147 231.1 483.247 231.023 483.259C230.964 483.271 230.905 483.23 230.87 483.177C230.828 483.117 230.811 483.047 230.799 482.976C230.781 482.887 230.775 482.793 230.799 482.71C230.822 482.628 230.87 482.551 230.94 482.527C231.2 482.433 231.218 482.858 231.177 483.053H231.171Z" fill="#342C3B"/>
<path d="M230.922 482.627C230.97 482.621 231.017 482.662 231.023 482.716C231.023 482.763 230.993 482.816 230.946 482.822C230.899 482.822 230.857 482.78 230.852 482.727C230.852 482.68 230.875 482.633 230.922 482.621V482.627Z" fill="white"/>
<path d="M231.584 483.596C231.566 483.46 231.141 483.424 230.922 483.43C230.81 483.43 230.427 483.436 230.403 483.554C230.385 483.672 230.728 483.92 231.07 483.897C231.336 483.879 231.601 483.708 231.589 483.596H231.584Z" fill="#DE3A65"/>
<path d="M228.744 483.566C228.714 483.477 228.484 483.501 228.278 483.519C228.071 483.536 227.823 483.56 227.811 483.649C227.794 483.755 228.095 483.973 228.372 483.92C228.59 483.879 228.779 483.666 228.744 483.572V483.566Z" fill="#DE3A65"/>
<path d="M233.938 483.661C233.938 483.661 233.92 483.661 233.908 483.649C233.861 483.619 233.843 483.554 233.867 483.507C234.026 483.188 234.546 482.988 234.569 482.982C234.622 482.964 234.676 482.994 234.693 483.047C234.711 483.1 234.687 483.159 234.634 483.182C234.504 483.23 234.138 483.407 234.032 483.613C234.014 483.655 233.967 483.672 233.932 483.666L233.938 483.661Z" fill="#DE3A65"/>
<path d="M233.347 483.342C233.135 483.188 233.241 482.734 233.27 482.338C233.318 481.624 233.146 480.597 232.657 480.19C232.521 480.078 232.32 479.983 230.821 480.178C229.298 480.379 228.849 480.562 227.999 480.473C227.468 480.414 227.049 480.278 226.795 480.184C227.244 479.582 227.964 478.72 228.831 478.088C229.056 477.923 229.262 477.799 229.522 477.699C230.165 477.451 230.773 477.51 231.134 477.551C231.228 477.563 231.482 477.581 231.801 477.675C232.503 477.888 233.176 478.236 233.778 478.684C234.15 478.962 234.51 479.316 234.622 479.771C234.693 480.048 234.664 480.343 234.646 480.626C234.622 481.069 234.616 481.53 234.658 481.978C234.664 482.073 234.634 482.138 234.557 482.185C234.481 482.238 234.392 482.238 234.315 482.303C234.28 482.332 234.05 482.486 233.92 482.704C233.731 483.011 233.843 483.247 233.666 483.348C233.571 483.401 233.436 483.401 233.347 483.336V483.342Z" fill="#342C3B"/>
<path d="M243.435 497.479H218.72V500.484H243.435V497.479Z" fill="#342C3B"/>
<path d="M436.58 497.735C433.976 503.703 427.637 521.825 426.279 526.441C422.212 532.184 411.805 564.479 411.303 564.828C410.76 565.205 404.338 568.021 403.246 568.529C402.154 569.03 392.225 571.923 392.225 571.923C392.225 571.923 391.062 572.915 391.735 573.47C392.408 574.024 395.832 573.151 395.832 573.151C395.017 573.576 394.852 574.373 395.832 574.768C396.811 575.164 401.321 573.275 401.321 573.275C400.867 573.641 400.607 575.004 401.428 575.347C402.254 575.695 408.169 572.041 408.169 572.041C413.971 572.773 416.285 567.791 416.285 567.791L432.448 538.589L445.646 515.633L452.305 505.285C448.285 502.321 441.148 495.864 436.58 497.735Z" fill="#FDBFC3"/>
<path d="M443.456 444.012C444.69 440.063 448.491 435.748 452.44 435.695C453.975 435.671 454.801 436.308 456.708 435.86C458.52 435.435 459.406 434.479 460.321 433.888C463.933 431.551 470.633 433.168 474.482 436.722C477.233 439.26 478.112 442.418 478.732 444.62C480.214 449.903 478.608 452.14 480.444 455.7C482.002 458.728 485.019 460.263 486.612 461.154C489.788 462.925 490.662 462.252 492.887 463.521C497.072 465.912 499.681 471.555 499.587 476.484C499.475 482.168 495.845 483.072 496.565 487.936C497.196 492.245 500.189 492.528 500.667 497.227C500.714 497.699 501.193 503.1 497.663 506.241C496.016 507.71 494.139 508.1 491.376 508.678C488.188 509.345 485.603 509.251 484.399 509.18C478.543 508.826 462.015 507.823 455.463 497.581C454.3 495.763 454.034 494.565 451.939 491.595C448.521 486.755 446.98 486.761 444.702 483.402C443.893 482.21 438.952 474.63 441.461 468.71C441.992 467.458 444.188 463.125 445.044 461.467C445.487 460.605 446.254 459.117 445.782 457.665C445.557 456.986 445.121 456.367 444.808 455.723C444.471 455.027 444.17 454.307 443.911 453.575C443.403 452.122 443.06 450.611 442.942 449.071C442.883 448.262 442.765 446.214 443.45 444.012H443.456Z" fill="#342C3B"/>
<path d="M456.012 698.174C451.986 699.52 448.332 700.836 447.954 701.32C447.086 702.436 447.954 705.417 447.954 705.417L477.717 706.037C479.281 703.693 477.445 699.148 476.453 697.07C470.763 699.939 462.623 698.599 456.017 698.168L456.012 698.174Z" fill="#342C3B"/>
<path d="M477.717 678.075C473.449 673.205 466.72 678.075 466.72 678.075L467.204 694.62C467.204 694.62 461.289 696.421 456.012 698.18C462.617 698.611 470.757 699.951 476.448 697.082C476.129 696.409 475.893 695.99 475.893 695.99L477.711 678.08L477.717 678.075Z" fill="#FDBFC3"/>
<path d="M450.174 680.377C449.005 679.811 448.072 679.592 448.072 679.592L445.192 665.614C439.826 660.821 434.826 669.28 434.826 669.28L440.251 681.705C440.251 681.705 437.3 688.712 434.809 694.822C441.485 692.018 447.329 686.994 450.174 680.377Z" fill="#FDBFC3"/>
<path d="M450.174 680.378C447.329 686.995 441.485 692.019 434.809 694.822C433.026 699.196 431.485 703.116 431.432 703.689C431.308 705.052 434.537 706.05 434.537 706.05L454.743 687.296C454.955 683.43 452.205 681.37 450.168 680.384L450.174 680.378Z" fill="#342C3B"/>
<path d="M484.512 549.314C484.512 549.314 492.9 560.783 492.64 573.245C492.38 585.706 477.718 678.075 477.718 678.075C477.718 678.075 468.922 678.807 466.72 678.075C464.519 677.343 461.148 582.613 461.148 582.613L439.23 620.893L445.198 665.608C445.198 665.608 438.864 669.274 434.833 669.274C434.833 669.274 417.608 619.642 416.87 613.851C416.138 608.06 443.215 547.366 446.898 542.88L484.512 549.308V549.314Z" fill="#342C3B"/>
<path d="M478.478 488.72C481.536 487.699 483.826 485.922 485.609 483.632C482.445 482.014 479.11 480.385 477.699 479.942C474.677 478.998 470.893 462.741 470.893 462.741L459.742 468.414L460.687 479.376L452.299 482.138C455.451 492.699 470.675 491.642 478.472 488.72H478.478Z" fill="#FDBFC3"/>
<g style="mix-blend-mode:overlay" opacity="0.39">
<path d="M472.427 468.527C471.507 465.345 470.905 462.748 470.905 462.748L459.754 468.421L460.533 477.464C465.149 476.732 469.234 472.635 472.427 468.533V468.527Z" fill="black"/>
</g>
<path d="M492.64 487.316C492.64 487.316 489.246 485.48 485.616 483.632C483.833 485.922 481.537 487.699 478.485 488.72C470.687 491.642 455.464 492.699 452.311 482.139L445.198 484.482C443.87 489.559 442.855 496.282 443.941 503.921C445.234 513.035 448.179 514.091 448.734 523.111C449.307 532.408 446.898 542.88 446.898 542.886C451.81 545.341 484.512 549.314 484.512 549.314C484.512 549.314 486.967 524.173 486.59 518.696C486.212 513.212 492.64 487.321 492.64 487.321V487.316Z" fill="#DADADA"/>
<g style="mix-blend-mode:overlay" opacity="0.12">
<path d="M490.167 486C477.523 492.741 480.256 510.716 486.531 523.684C486.631 521.512 486.66 519.741 486.59 518.696C486.212 513.213 492.64 487.322 492.64 487.322C492.64 487.322 491.648 486.785 490.173 486.006L490.167 486Z" fill="black"/>
</g>
<path d="M492.64 487.315C479.789 490.527 485.356 506.028 485.356 506.028L486.92 514.717C488.266 508.678 493.685 503.371 499.198 503C498.685 499.535 498.283 496.866 498.124 495.633C497.368 489.771 492.64 487.315 492.64 487.315Z" fill="#DADADA"/>
<path d="M445.198 484.482L434.419 501.064C438.958 503.142 441.916 507.71 442.488 512.61C443.858 510.821 444.755 509.647 444.755 509.647L445.192 484.482H445.198Z" fill="#DADADA"/>
<g style="mix-blend-mode:overlay" opacity="0.18">
<path d="M443.616 486.914C444.035 493.313 442.831 499.984 439.531 505.214C441.143 507.344 442.176 509.924 442.495 512.61C443.864 510.821 444.761 509.647 444.761 509.647L445.198 484.482L443.616 486.914Z" fill="black"/>
</g>
<path d="M474.365 456.662C476.572 448.829 472.322 440.778 464.873 438.676C457.423 436.575 449.59 441.22 447.376 449.053C446.503 452.153 446.65 455.275 447.595 458.061H447.589C447.353 459.277 447.087 461.568 447.973 464.124C448.858 466.691 450.44 468.203 452.099 469.791C454.572 472.158 456.042 473.562 458.22 473.869C461.343 474.312 463.804 472.211 467.405 469.129C469.371 467.447 473.461 463.953 473.078 459.85V459.844C473.261 459.508 473.438 459.165 473.597 458.811C473.904 458.132 474.164 457.418 474.37 456.674L474.365 456.662Z" fill="#FDBFC3"/>
<path d="M469.247 459.814C469.743 462.122 471.945 463.533 474.176 462.961C476.407 462.388 477.812 460.045 477.316 457.737C476.82 455.429 474.619 454.018 472.387 454.59C470.156 455.163 468.751 457.506 469.247 459.814Z" fill="#FDBFC3"/>
<path d="M452.151 457.619C452.057 457.973 451.856 458.345 451.543 458.392C451.325 458.427 451.101 458.286 450.959 458.073C450.817 457.867 450.746 457.601 450.711 457.335C450.664 457.005 450.658 456.656 450.752 456.344C450.847 456.031 451.053 455.753 451.319 455.665C452.34 455.317 452.346 456.893 452.151 457.613V457.619Z" fill="#342C3B"/>
<path d="M456.921 459.501C456.921 459.377 454.748 458.793 454.2 459.713C453.609 460.711 455.469 462.529 455.551 462.476C455.622 462.429 454.418 460.988 454.878 460.15C455.309 459.365 456.915 459.607 456.915 459.501H456.921Z" fill="#342C3B"/>
<path d="M461.283 451.969C460.958 451.946 460.574 451.987 460.397 452.276C460.191 452.613 460.379 453.067 460.616 453.374C461.17 454.095 462.003 454.567 462.876 454.655C463.148 454.685 463.437 454.673 463.691 454.555C463.945 454.443 464.169 454.207 464.222 453.917C464.447 452.725 462.044 452.029 461.289 451.969H461.283Z" fill="#342C3B"/>
<path d="M452.458 452.075C452.789 452.075 453.166 452.134 453.326 452.429C453.509 452.766 453.279 453.191 453.019 453.474C452.399 454.135 451.525 454.537 450.64 454.566C450.363 454.578 450.079 454.549 449.831 454.425C449.583 454.301 449.383 454.059 449.353 453.775C449.229 452.612 451.702 452.093 452.464 452.081L452.458 452.075Z" fill="#342C3B"/>
<path d="M457.712 465.287C454.666 465.576 453.615 465.57 453.42 466.149C453.237 466.698 453.951 467.383 454.282 467.701C455.238 468.622 456.744 469.124 458.178 468.829C460.474 468.351 462.115 465.895 461.672 465.145C461.478 464.815 460.97 464.98 457.712 465.287Z" fill="white"/>
<path d="M451.26 456.048C451.449 456.019 451.626 456.184 451.638 456.379C451.65 456.562 451.514 456.757 451.331 456.774C451.142 456.792 450.983 456.621 450.977 456.432C450.971 456.255 451.089 456.072 451.266 456.048H451.26Z" fill="white"/>
<path d="M462.015 457.719C461.908 458.073 461.696 458.433 461.383 458.475C461.159 458.504 460.94 458.351 460.81 458.138C460.675 457.926 460.616 457.654 460.586 457.388C460.551 457.058 460.557 456.71 460.657 456.397C460.763 456.084 460.976 455.818 461.247 455.736C462.274 455.429 462.233 456.999 462.015 457.713V457.719Z" fill="#342C3B"/>
<path d="M461.171 456.119C461.366 456.096 461.531 456.267 461.537 456.468C461.537 456.651 461.401 456.84 461.218 456.851C461.024 456.863 460.876 456.686 460.876 456.497C460.876 456.32 461 456.143 461.177 456.119H461.171Z" fill="white"/>
<path d="M464.022 459.791C463.981 459.295 462.346 459.1 461.501 459.082C461.059 459.071 459.577 459.041 459.465 459.478C459.353 459.915 460.61 460.871 461.938 460.842C462.965 460.818 464.052 460.204 464.016 459.791H464.022Z" fill="#DE3A65"/>
<path d="M452.517 459.886C452.423 459.561 451.531 459.602 450.723 459.638C449.914 459.673 448.952 459.721 448.881 460.051C448.792 460.435 449.89 461.291 450.977 461.125C451.838 460.996 452.623 460.234 452.517 459.886Z" fill="#DE3A65"/>
<path d="M472.54 460.364C472.505 460.352 472.469 460.34 472.434 460.316C472.263 460.204 472.21 459.968 472.322 459.785C473.018 458.622 475.096 457.955 475.185 457.932C475.385 457.873 475.592 457.985 475.645 458.191C475.698 458.398 475.586 458.616 475.385 458.675C474.86 458.841 473.408 459.437 472.953 460.187C472.865 460.334 472.694 460.405 472.54 460.364Z" fill="#DE3A65"/>
<path d="M449.105 445.47C453.887 448.493 457.901 449.384 460.758 449.62C463.975 449.88 466.554 449.378 468.03 451.131C469.819 453.262 468.603 457.099 469.447 457.282C470.072 457.418 470.503 455.187 472.392 454.59C473.65 454.195 474.854 454.744 475.19 454.897C477.67 456.037 478.278 459.029 478.567 458.929C478.956 458.799 477.433 453.522 476.282 449.372C474.683 443.629 474.547 443.068 473.821 442.053C470.928 437.997 466.064 437.07 464.913 436.882C462.381 436.474 460.427 436.935 456.525 437.856C452.777 438.741 450.67 439.851 449.288 440.742C447.447 441.934 446.679 442.897 446.413 443.204C445.386 444.402 444.66 446.627 444.454 448.31C443.94 452.495 446.372 456.721 446.697 457.276C447.5 453.339 448.302 449.402 449.105 445.464V445.47Z" fill="#342C3B"/>
<path d="M437.401 498.219L450.647 511.973L435.4 519.339L434.443 517.71L437.401 498.219Z" fill="white"/>
<path d="M436.132 517.272C436.132 517.272 452.737 504.351 460.741 506.618L463.433 507.881L437.212 520.454L433.357 518.093C433.357 518.093 433.7 501.394 434.196 498.212C434.196 498.212 435.984 499.139 437.401 498.224C437.401 498.224 440.417 509.723 436.132 517.278V517.272Z" fill="#F7D1B7"/>
<path d="M465.729 506.831L437.566 519.699L450.883 537.06L472.966 535.218L465.729 506.831Z" fill="#838383"/>
<path d="M432.454 517.739C432.785 518.365 433.133 518.985 433.499 519.61C437.92 527.196 443.593 532.928 449.419 537.272C449.909 537.201 450.393 537.13 450.883 537.06L437.566 519.693L432.454 517.739Z" fill="#838383"/>
<path d="M434.195 498.207L434.095 497.197L433.233 497.274L432.454 517.739L433.357 518.088L434.195 498.207Z" fill="#838383"/>
<path d="M437.566 519.7L432.625 517.38C432.625 517.38 433.091 521.742 437.566 519.7Z" fill="#FD9F58"/>
<path d="M486.914 514.717L489.801 530.791C489.801 530.791 461.26 531.358 460.315 530.791C459.371 530.224 455.209 527.769 454.076 525.88C452.943 523.991 450.298 519.64 449.159 519.829C448.025 520.018 451.048 527.58 450.103 527.391C449.159 527.202 443.864 530.224 443.108 530.98C442.353 531.735 443.864 536.464 444.336 537.786C444.802 539.108 458.421 537.975 458.421 537.975C458.421 537.975 499.434 547.614 502.273 543.459C504.511 540.177 501.099 515.963 499.192 503.006C493.673 503.378 488.26 508.684 486.914 514.723V514.717Z" fill="#FDBFC3"/>
<path d="M354.168 623.714H297.954C295.317 623.714 293.179 625.852 293.179 628.489V633.153C293.179 635.79 295.317 637.928 297.954 637.928H354.168C356.805 637.928 358.943 635.79 358.943 633.153V628.489C358.943 625.852 356.805 623.714 354.168 623.714Z" fill="#797979"/>
<path d="M296.52 633.962L299.264 705.446H301.549L305.203 633.962H296.52Z" fill="#CDCDCD"/>
<path d="M344.092 633.962L347.067 705.446H349.546L353.513 633.962H344.092Z" fill="#CDCDCD"/>
<path d="M358.943 630.172H293.179V638.477H358.943V630.172Z" fill="#CDCDCD"/>
<path d="M350.449 647.125H303.107V650.118H350.449V647.125Z" fill="#CDCDCD"/>
<path d="M419.153 587.496V591.191C419.153 592.944 417.701 594.367 415.906 594.367H369.055V584.326H415.906C417.701 584.326 419.153 585.743 419.153 587.496Z" fill="#AC70E1"/>
<path d="M419.154 587.496V591.191C419.154 592.945 417.448 594.367 415.334 594.367H390.542C393.287 593.736 395.182 591.634 395.152 589.279C395.117 586.977 393.234 584.946 390.542 584.32H415.334C417.442 584.32 419.154 585.737 419.154 587.49V587.496Z" fill="#C9C9C9"/>
<path d="M369.055 585.577H391.486C392.596 585.577 393.499 586.48 393.499 587.59V591.096C393.499 592.206 392.596 593.109 391.486 593.109H369.055V585.577Z" fill="white"/>
<path d="M408.811 573.978V576.245C408.811 577.319 407.931 578.193 406.845 578.193H378.458V572.03H406.845C407.931 572.03 408.811 572.904 408.811 573.978Z" fill="#342C3B"/>
<path d="M378.458 573.234H406.768C407.323 573.234 407.772 573.683 407.772 574.238V575.985C407.772 576.54 407.323 576.989 406.768 576.989H378.458V573.234Z" fill="white"/>
<path d="M370.555 580.128V582.382C370.555 583.451 371.794 584.319 373.329 584.319H413.398V578.191H373.329C371.794 578.191 370.555 579.059 370.555 580.128Z" fill="#342C3B"/>
<path d="M370.555 580.128V582.383C370.555 583.451 372.013 584.319 373.819 584.319H395.022C393.145 584.384 391.711 582.678 391.864 580.954C392 579.42 393.299 578.186 395.022 578.192C387.957 578.18 380.885 578.192 373.819 578.192C372.013 578.192 370.555 579.059 370.555 580.128Z" fill="#FD9F58"/>
<path d="M413.404 583.558H393.984C393.305 583.558 392.756 583.009 392.756 582.33V580.187C392.756 579.508 393.305 578.959 393.984 578.959H413.404V583.558Z" fill="white"/>
<path d="M336.915 532.963C338.29 531.162 338.827 529.386 339.164 528.229C339.483 527.131 339.618 524.817 339.866 520.242C339.955 518.642 340.02 517.296 339.896 515.484C339.701 512.609 339.247 511.73 339.075 511.405C338.544 510.425 337.865 509.935 335.982 508.672C332.966 506.653 331.455 505.638 331.077 505.473C328.91 504.511 326.614 504.8 322.152 505.325C318.043 505.809 315.989 506.057 313.699 507.078C311.503 508.064 308.687 509.327 306.804 512.403C304.142 516.759 304.832 522.343 306.521 525.708C307.135 526.936 308.233 528.565 309.525 529.994C310.641 531.233 312.123 532.573 312.772 533.157C313.244 533.588 313.687 533.972 314.141 534.362C317.807 537.49 322.683 538.441 327.34 539.273C328.013 539.391 328.71 539.515 329.377 539.356C330.723 539.043 331.402 538.086 332.606 536.817C335.085 534.196 335.492 534.798 336.909 532.951L336.915 532.963Z" fill="#342C3B"/>
<path d="M240.944 677.124C239.61 676.711 234.244 675.088 230.059 674.185C228.625 673.878 227.326 673.647 226.382 673.588C222.261 673.329 222.716 675.92 222.716 677.219C222.716 678.517 240.118 692 242.408 692.519C244.079 692.897 245.873 688.163 246.717 684.975C247.007 683.889 247.178 682.998 247.207 682.531C244.598 681.735 242.455 680.135 240.95 677.118L240.944 677.124Z" fill="#342C3B"/>
<path d="M242.219 675.206L241.257 677.219C241.257 677.219 241.139 677.184 240.938 677.119C242.444 680.129 244.586 681.735 247.196 682.532C247.196 682.496 247.207 682.437 247.207 682.408C247.207 682.071 247.556 681.351 248.087 680.448C245.838 679.173 243.79 677.248 242.219 675.206Z" fill="white"/>
<path d="M247.041 665.118L242.225 675.206C243.795 677.249 245.843 679.173 248.092 680.448C250.005 677.172 254.426 671.346 254.426 671.346L247.041 665.118Z" fill="#FDBFC3"/>
<path d="M330.119 667.55L324.712 660.886L318.874 668.926L324.765 673.447C327.168 672.491 328.992 670.295 330.125 667.55H330.119Z" fill="#FDBFC3"/>
<path d="M331.236 668.919L330.121 667.544C328.993 670.289 327.163 672.485 324.761 673.441L325.941 674.35C328.362 673.211 330.428 671.363 331.832 669.031C331.466 668.955 331.23 668.925 331.23 668.925L331.236 668.919Z" fill="white"/>
<path d="M332.906 669.297C332.481 669.167 332.12 669.09 331.837 669.031C330.438 671.363 328.366 673.211 325.946 674.35L325.97 674.368C325.97 674.368 325.066 679.22 324.057 684.007C323.307 687.572 322.499 691.096 321.961 692.543C320.704 695.937 324.022 697.708 324.706 697.967C325.391 698.227 339.7 676.705 339.7 676.705C339.216 671.871 335.225 669.993 332.9 669.303L332.906 669.297Z" fill="#342C3B"/>
<path d="M309.412 601.495C309.412 601.495 268.735 624.056 266.444 625.874C264.154 627.692 246.067 666.327 246.067 666.327L253.393 673.587L275.6 641.174C275.6 641.174 322.032 625.077 323.201 623.531C324.37 621.984 344.286 607.976 344.286 607.976L323.242 600.863L309.412 601.495Z" fill="#342C3B"/>
<g style="mix-blend-mode:overlay" opacity="0.18">
<path d="M344.287 607.983L323.243 600.87L309.412 601.502C309.412 601.502 300.699 606.33 291.119 611.702C284.437 619.311 281.385 628.986 282.873 638.643C295.983 634.045 322.334 624.7 323.207 623.537C324.376 621.991 344.293 607.983 344.293 607.983H344.287Z" fill="black"/>
</g>
<path d="M332.841 601.496C332.841 601.496 295.293 624.836 291.402 629.506C287.512 634.175 289.573 643.248 293.002 646.624C296.438 649.995 318.875 668.925 318.875 668.925L325.97 661.145L309.406 639.104C309.406 639.104 351.488 626.666 352.527 621.731C353.566 616.791 344.287 603.06 344.287 603.06L332.841 601.502V601.496Z" fill="#342C3B"/>
<path d="M360.544 582.306L362.167 590.883L350.78 592.63L349.322 585.417L360.544 582.306Z" fill="#FDBFC3"/>
<path d="M295.995 595.156C296.786 595.02 298.327 594.625 299.891 593.344C301.573 591.957 302.394 590.263 302.73 589.436C301.662 584.726 300.593 580.015 299.525 575.305L291.396 582.306L295.995 595.156Z" fill="#FDBFC3"/>
<path d="M337.728 547.23C337.126 546.858 336.666 546.551 336.424 546.344C334.671 544.874 332.652 531.847 332.652 531.847L319.099 538.133C319.099 538.133 321.312 544.532 320.09 547.035C319.683 547.879 318.573 548.446 317.098 548.918C319.843 551.574 322.587 553.434 325.332 554.473C330.291 555.411 335.243 552.365 337.728 547.23Z" fill="#FDBFC3"/>
<g style="mix-blend-mode:overlay" opacity="0.65">
<path d="M333.661 537.472C333.059 534.462 332.652 531.853 332.652 531.853L319.099 538.139C319.099 538.139 320.055 540.914 320.362 543.529C325.09 545.046 329.441 541.303 333.661 537.478V537.472Z" fill="black"/>
</g>
<path d="M360.544 582.306C360.544 582.306 358.714 573.487 356.878 565.447C355.048 557.407 351.075 554.645 351.075 554.645C351.075 554.645 341.495 549.568 337.723 547.23C335.238 552.366 330.291 555.412 325.327 554.473C322.582 553.434 319.837 551.581 317.092 548.919C314.17 549.851 309.772 550.412 306.272 551.965C301.007 554.296 291.391 576.786 291.391 576.786L302.382 591.898C303.586 590.245 304.784 588.598 305.989 586.945V603.367C315.545 603.58 322.747 605.675 327.511 607.517C339.771 612.251 352.521 621.72 352.521 621.72C352.521 621.72 353.667 620.681 353.667 613.16C353.667 605.64 349.316 585.411 349.316 585.411L360.538 582.3L360.544 582.306Z" fill="white"/>
<g style="mix-blend-mode:overlay" opacity="0.28">
<path d="M345.48 573.232C342.499 585.623 347.953 604.707 341.047 614.228C347.658 618.107 352.528 621.725 352.528 621.725C352.528 621.725 353.673 620.686 353.673 613.166C353.673 605.645 349.323 585.416 349.323 585.416L350.167 585.18C348.408 581.196 346.649 577.211 345.474 573.227L345.48 573.232Z" fill="black"/>
</g>
<path d="M332.275 585.192C332.275 585.192 346.637 584.79 349.824 584.218C353.012 583.639 360.562 583.651 361.86 588.716C363.159 593.78 360.143 596.885 356.501 596.419C352.864 595.953 331.82 590.616 331.82 590.616C330.888 590.87 329.377 591.148 327.547 590.87C326.325 590.681 325.327 590.304 324.613 589.961C322.671 589.17 321.284 589.294 320.381 589.548C318.025 590.215 316.668 592.405 315.127 591.856C314.702 591.703 314.419 591.396 314.265 591.195C314.07 590.982 313.852 590.675 313.775 590.268C313.332 587.889 318.202 584.288 322.618 583.379C326.874 582.506 330.504 584.176 332.275 585.186V585.192Z" fill="#FDBFC3"/>
<path d="M289.112 558.321C289.112 558.321 300.699 585.764 298.958 590.887C296.667 597.611 291.791 596.188 290.257 593.851C288.309 590.887 284.419 560.269 284.419 560.269C284.419 560.269 276.751 552.619 276.178 550.806C275.606 548.988 273.085 543.457 273.888 542.076C274.691 540.695 277.205 549.248 279.956 550.936C282.701 552.625 282.701 550.677 283.049 549.638C283.392 548.599 280.186 545.228 280.989 544.319C281.792 543.41 282.707 543.8 283.392 545.618C284.076 547.436 288.999 552.749 289.117 558.327L289.112 558.321Z" fill="#FDBFC3"/>
<path d="M334.589 522.597C334.589 515 328.727 508.837 321.496 508.837C314.265 508.837 308.403 514.994 308.403 522.597C308.403 525.601 309.33 528.37 310.883 530.636H310.877C310.877 530.636 312.122 540.967 322.181 542.448C328.261 543.345 334.742 529.291 334.235 525.778C334.235 525.778 334.235 525.778 334.235 525.772C334.311 525.424 334.382 525.07 334.435 524.71C334.536 524.019 334.589 523.311 334.589 522.591V522.597Z" fill="#FDBFC3"/>
<path d="M331.33 527.184C332.358 529.138 334.701 529.84 336.555 528.76C338.414 527.68 339.081 525.218 338.054 523.27C337.027 521.322 334.683 520.614 332.83 521.694C330.976 522.774 330.303 525.236 331.33 527.184Z" fill="#FDBFC3"/>
<path d="M315.41 529.544C315.41 529.886 315.328 530.27 315.062 530.394C314.873 530.483 314.637 530.412 314.454 530.258C314.277 530.105 314.141 529.886 314.041 529.656C313.911 529.373 313.823 529.06 313.828 528.753C313.828 528.446 313.946 528.151 314.165 527.997C314.991 527.431 315.399 528.841 315.41 529.538V529.544Z" fill="#342C3B"/>
<path d="M319.795 529.273C319.766 529.161 317.665 529.184 317.405 530.152C317.127 531.197 319.258 532.36 319.323 532.289C319.376 532.23 317.93 531.244 318.131 530.371C318.32 529.556 319.825 529.367 319.795 529.273Z" fill="#342C3B"/>
<path d="M322.187 522.148C321.892 522.207 321.555 522.343 321.467 522.65C321.367 523.004 321.65 523.364 321.939 523.582C322.618 524.09 323.486 524.303 324.294 524.161C324.548 524.114 324.802 524.037 325.003 523.866C325.203 523.7 325.345 523.435 325.316 523.157C325.215 522.03 322.878 522.012 322.187 522.148Z" fill="#342C3B"/>
<path d="M314.282 524.486C314.578 524.397 314.932 524.362 315.15 524.58C315.398 524.84 315.304 525.277 315.138 525.596C314.749 526.345 314.064 526.93 313.279 527.178C313.031 527.254 312.771 527.302 312.518 527.254C312.264 527.201 312.022 527.042 311.921 526.794C311.514 525.779 313.604 524.687 314.288 524.48L314.282 524.486Z" fill="#342C3B"/>
<path d="M321.997 534.709C319.353 535.872 318.391 536.014 318.361 536.575C318.331 537.147 319.305 537.637 319.53 537.749C319.601 537.785 320.415 538.18 321.312 537.986C323.296 537.549 324.37 534.491 323.886 534.019C323.727 533.865 323.467 534.066 322.003 534.709H321.997Z" fill="white"/>
<path d="M314.211 528.358C314.376 528.282 314.571 528.388 314.636 528.559C314.695 528.724 314.624 528.925 314.459 528.99C314.294 529.055 314.111 528.943 314.052 528.777C313.998 528.618 314.063 528.429 314.211 528.358Z" fill="white"/>
<path d="M324.3 527.136C324.294 527.478 324.194 527.862 323.922 527.974C323.727 528.057 323.497 527.974 323.32 527.815C323.143 527.656 323.025 527.431 322.93 527.201C322.812 526.912 322.73 526.599 322.748 526.292C322.765 525.985 322.889 525.69 323.108 525.548C323.952 525.011 324.318 526.434 324.3 527.13V527.136Z" fill="#342C3B"/>
<path d="M323.137 525.908C323.302 525.837 323.497 525.95 323.55 526.127C323.603 526.292 323.526 526.493 323.361 526.552C323.19 526.611 323.013 526.493 322.96 526.321C322.913 526.162 322.983 525.973 323.137 525.908Z" fill="white"/>
<path d="M326.124 528.624C325.964 528.187 324.447 528.429 323.68 528.624C323.278 528.724 321.938 529.073 321.95 529.498C321.962 529.917 323.332 530.46 324.518 530.1C325.439 529.816 326.254 528.99 326.124 528.624Z" fill="#DE3A65"/>
<path d="M316.172 530.972C316 530.707 315.215 530.966 314.495 531.208C313.775 531.444 312.925 531.728 312.943 532.047C312.96 532.413 314.165 532.902 315.103 532.477C315.847 532.141 316.355 531.256 316.177 530.972H316.172Z" fill="#DE3A65"/>
<path d="M334.429 526.841C334.394 526.841 334.358 526.841 334.323 526.83C334.14 526.776 334.034 526.57 334.087 526.381C334.417 525.159 336.118 524.032 336.188 523.99C336.354 523.884 336.566 523.937 336.667 524.108C336.767 524.28 336.72 524.504 336.554 524.61C336.123 524.893 334.966 525.797 334.754 526.588C334.713 526.747 334.577 526.847 334.429 526.853V526.841Z" fill="#DE3A65"/>
<path d="M333.054 523.187C332.718 524.161 332.73 525.336 332.01 526.038C331.614 521.316 330.032 516.706 327.47 512.81C326.49 513.837 325.51 514.87 324.525 515.897C323.232 517.255 321.927 518.618 320.422 519.722C316.762 522.402 312.217 523.299 307.825 524.138C307.495 524.203 307.111 524.25 306.857 524.025C306.674 523.866 306.603 523.612 306.55 523.37C305.558 518.866 307.312 513.825 310.836 511.051C312.489 509.752 314.442 508.949 316.432 508.365C319.69 507.415 323.167 507.037 326.455 507.851C329.749 508.666 332.83 510.785 334.424 513.92C334.902 514.864 335.227 515.873 335.587 516.865C335.846 517.574 336.755 518.984 336.631 519.722C336.378 521.245 333.674 521.387 333.054 523.187Z" fill="#342C3B"/>
<g style="mix-blend-mode:overlay" opacity="0.28">
<path d="M306.279 552.791C306.279 552.791 301.415 569.561 305.995 586.945L306.279 552.791Z" fill="black"/>
</g>
<path d="M425.014 594.212H185.225V602.759H425.014V594.212Z" fill="#FD9F58"/>
<path d="M191.801 602.76L196.057 705.447H199.604L205.283 602.76H191.801Z" fill="#FD9F58"/>
<path d="M418.024 602.76L413.768 705.447H410.221L404.548 602.76H418.024Z" fill="#FD9F58"/>
<path d="M420.397 602.76H189.834V606.302H420.397V602.76Z" fill="#FD9F58"/>
<path d="M395.783 559.785H392.183V568.067H395.783V559.785Z" fill="#342C3B"/>
<path d="M389.691 567.749H398.268C398.681 567.749 399.012 568.08 399.012 568.493V569.142H388.947V568.493C388.947 568.08 389.278 567.749 389.691 567.749Z" fill="#FD9F58"/>
<g style="mix-blend-mode:overlay" opacity="0.24">
<path d="M389.691 567.75H398.268C398.681 567.75 399.012 568.081 399.012 568.494V569.143H388.947V568.494C388.947 568.081 389.278 567.75 389.691 567.75Z" fill="black"/>
</g>
<path d="M386.445 568.829H401.527C402.472 568.829 403.239 569.596 403.239 570.541V572.028H384.733V570.541C384.733 569.596 385.501 568.829 386.445 568.829Z" fill="#342C3B"/>
<path d="M394.013 560.246C389.975 560.246 385.985 559.148 382.402 557C377.201 553.889 373.535 548.972 372.083 543.157C370.625 537.343 371.54 531.281 374.651 526.086C377.762 520.885 382.679 517.22 388.494 515.768L389.043 515.632L394.432 537.555L399.922 559.455L399.479 559.567C397.673 560.022 395.843 560.246 394.019 560.246H394.013ZM388.364 516.747C382.939 518.2 378.358 521.676 375.436 526.558C372.449 531.546 371.576 537.361 372.969 542.939C374.368 548.511 377.886 553.228 382.868 556.215C387.72 559.125 393.363 560.028 398.8 558.788L393.529 537.78L388.358 516.747H388.364Z" fill="#342C3B"/>
<path d="M414.017 537.667C414.017 540.377 413.48 542.956 412.506 545.312C410.068 551.215 404.891 555.695 398.558 557.171C397.088 557.513 395.559 557.696 393.983 557.696C385.069 557.696 377.52 551.876 374.916 543.83C374.727 543.246 374.562 542.649 374.432 542.041C374.114 540.631 373.948 539.167 373.948 537.662C373.948 531.806 376.457 526.54 380.465 522.881C384.03 519.616 388.776 517.627 393.983 517.627C395.358 517.627 396.704 517.763 398.003 518.028C407.14 519.894 414.011 527.975 414.011 537.662L414.017 537.667Z" fill="#FDFDFD"/>
<path d="M398.558 557.177C397.088 557.519 395.56 557.702 393.983 557.702C385.07 557.702 377.52 551.882 374.917 543.836C375.289 543.193 375.897 542.691 376.629 542.59C376.835 542.561 377.054 542.573 377.237 542.667C377.467 542.791 377.591 543.039 377.739 543.246C378.37 544.161 379.592 544.621 380.672 544.355C381.747 544.09 382.738 543.187 383.807 543.476C384.934 543.783 385.288 545.152 385.684 546.25C385.961 547.018 386.345 547.75 386.829 548.411C387.585 549.45 388.742 550.376 390.023 550.247C391.038 550.14 391.87 549.402 392.85 549.107C394.373 548.653 396.085 549.373 397.112 550.589C398.139 551.805 398.582 553.416 398.724 555.004C398.788 555.719 398.777 556.486 398.564 557.165L398.558 557.177Z" fill="#FD9F58"/>
<path d="M414.018 537.668C414.018 540.378 413.481 542.957 412.507 545.313C412.206 544.941 411.911 544.551 411.592 544.191C409.278 541.576 405.317 540.567 402.029 541.747C401.462 541.954 400.866 542.219 400.276 542.101C399.668 541.972 399.231 541.47 398.83 540.998C398.346 540.419 397.844 539.787 397.785 539.038C397.72 538.205 398.216 537.438 398.304 536.606C398.44 535.348 397.625 534.197 396.728 533.306C395.831 532.415 394.786 531.618 394.243 530.479C393.322 528.554 394.131 526.164 395.613 524.623C396.669 523.525 398.098 522.634 398.517 521.17C398.853 519.995 398.169 519.05 398.009 518.035C407.147 519.9 414.018 527.982 414.018 537.668Z" fill="#FD9F58"/>
<path d="M385.134 536.05C384.969 536.587 384.768 537.148 384.332 537.502C383.918 537.833 383.369 537.927 382.909 538.193C381.917 538.766 381.457 540.088 380.371 540.472C378.854 541.003 376.965 539.385 375.69 540.365C375.229 540.719 375.034 541.322 374.68 541.788C374.609 541.882 374.521 541.971 374.421 542.048C374.102 540.637 373.937 539.173 373.937 537.668C373.937 531.812 376.445 526.547 380.453 522.887C380.672 523.117 380.849 523.477 380.967 523.996C381.132 524.717 381.091 525.472 381.286 526.186C381.894 528.388 384.479 529.51 385.317 531.635C385.866 533.034 385.565 534.616 385.123 536.056L385.134 536.05Z" fill="#FD9F58"/>
<g opacity="0.21">
<path d="M382.98 525.508C382.709 527.35 384.568 528.335 385.719 529.433C386.339 530.029 386.77 530.803 387.036 531.611C388.01 534.415 387.177 538.004 384.421 539.456C383.305 540.082 381.936 540.041 380.879 540.779C381.888 539.988 383.264 539.97 384.35 539.332C386.977 537.851 387.744 534.404 386.835 531.676C386.587 530.885 386.174 530.148 385.589 529.557C384.486 528.459 382.591 527.338 382.98 525.508Z" fill="white"/>
</g>
<g opacity="0.21">
<path d="M389.805 548.304C390.407 548.304 391.009 548.328 391.605 548.322C391.9 548.316 392.189 548.268 392.443 548.127C392.697 547.985 392.927 547.79 393.205 547.643C394.297 547.064 395.678 547.1 396.758 547.725C397.821 548.381 398.429 549.514 398.925 550.606C399.426 551.686 399.893 552.82 400.79 553.64C399.828 552.896 399.303 551.745 398.765 550.683C398.246 549.638 397.667 548.54 396.64 547.92C395.637 547.318 394.332 547.283 393.287 547.796C393.028 547.92 392.792 548.109 392.514 548.251C392.237 548.398 391.912 548.434 391.611 548.428C391.009 548.392 390.413 548.345 389.811 548.298L389.805 548.304Z" fill="white"/>
</g>
<path d="M395.246 519.847C395.423 519.699 395.612 519.54 395.842 519.505C396.12 519.457 396.409 519.611 396.574 519.841C396.74 520.071 396.799 520.366 396.787 520.65C396.787 520.78 396.763 520.91 396.704 521.022C396.639 521.14 396.539 521.228 396.439 521.311C396.02 521.665 395.577 522.025 395.335 522.521C395.217 522.757 395.152 523.017 394.998 523.229C394.851 523.43 394.638 523.578 394.42 523.696C394.308 523.755 394.19 523.808 394.066 523.796C393.741 523.767 393.629 523.347 393.605 523.023C393.558 522.462 393.269 521.453 393.635 521.022C393.723 520.915 394.19 520.738 394.337 520.62C394.644 520.378 394.939 520.113 395.24 519.859L395.246 519.847Z" fill="#FD9F58"/>
<path d="M404.633 541.994C405.087 541.994 405.548 541.994 406.002 541.994C406.345 541.994 406.693 541.994 407.035 542.053C408.045 542.23 408.936 542.968 409.302 543.924C409.349 544.048 409.385 544.202 409.302 544.308C409.219 544.42 409.054 544.42 408.918 544.409C408.239 544.361 407.566 544.314 406.888 544.267C406.457 544.237 405.984 544.22 405.636 544.479C405.294 544.739 405.134 545.235 404.721 545.359C404.402 545.453 404.06 545.276 403.836 545.034C403.611 544.792 403.464 544.485 403.251 544.231C403.045 543.972 402.773 543.759 402.626 543.458C402.1 542.378 403.93 541.988 404.621 541.994H404.633Z" fill="#FD9F58"/>
<path d="M397.968 527.556C398.127 527.03 398.576 526.605 399.101 526.47C399.52 526.363 399.975 526.422 400.376 526.263C401.214 525.921 401.409 524.799 402.1 524.215C402.542 523.843 403.15 523.725 403.729 523.725C405.116 523.719 406.539 524.35 407.312 525.501C407.554 525.862 407.731 526.31 407.578 526.712C407.265 527.544 405.96 527.402 405.364 528.063C405.033 528.429 404.986 528.966 405.016 529.462C405.051 529.952 405.146 530.454 405.033 530.938C404.921 531.416 404.52 531.883 404.024 531.853C403.351 531.818 403.062 531.003 402.566 530.548C402.017 530.047 401.202 530.005 400.465 529.946C399.225 529.852 397.484 529.149 397.968 527.562V527.556Z" fill="#C0C0C0"/>
<path d="M392.1 550.931C392.306 550.795 392.501 550.636 392.72 550.518C393.204 550.258 393.776 550.205 394.325 550.264C394.738 550.305 395.152 550.417 395.476 550.677C395.96 551.067 396.267 552.029 396.297 552.637C396.368 553.989 395.358 553.457 394.467 553.316C393.729 553.198 392.968 553.186 392.224 553.286C391.527 553.381 390.813 553.57 390.122 553.41C389.42 553.245 388.446 552.23 389.343 551.787C390.211 551.356 391.22 551.521 392.1 550.931Z" fill="#C0C0C0"/>
<path d="M379.928 531.711C380.111 531.074 379.976 530.383 379.751 529.757C379.68 529.562 379.604 529.35 379.692 529.161C379.775 528.99 379.976 528.913 380.159 528.848C380.767 528.647 381.534 528.482 381.965 528.954C382.195 529.208 382.248 529.574 382.366 529.899C382.691 530.767 383.559 531.345 383.919 532.195C384.202 532.856 384.149 533.624 383.907 534.302C383.665 534.981 383.246 535.577 382.803 536.144C382.03 537.13 381.109 538.069 379.922 538.452C379.415 538.618 378.842 538.665 378.364 538.417C377.892 538.175 377.579 537.573 377.792 537.083C378.028 536.546 378.76 536.327 378.901 535.76C379.025 535.288 378.671 534.84 378.459 534.397C378.317 534.096 378.163 533.641 378.222 533.305C378.317 532.791 378.293 533.027 378.642 532.85C379.232 532.549 379.698 532.467 379.917 531.705L379.928 531.711Z" fill="#C0C0C0"/>
<g style="mix-blend-mode:overlay" opacity="0.13">
<path d="M401.981 519.298C409.885 528.624 409.944 541.41 403.321 548.883C396.427 556.663 385.27 555.323 384.267 555.188C387.147 556.787 390.459 557.702 393.983 557.702C395.553 557.702 397.088 557.519 398.558 557.177C404.891 555.701 410.068 551.215 412.506 545.318C413.48 542.963 414.017 540.383 414.017 537.674C414.017 529.451 409.065 522.391 401.987 519.304L401.981 519.298Z" fill="black"/>
</g>
<path d="M268.268 590.918H217.816L211.388 555.046H261.84L268.268 590.918Z" fill="#342C3B"/>
<path d="M284.271 590.918H217.815V594.194H284.271V590.918Z" fill="#342C3B"/>
<path d="M240.158 578.516C242.407 578.516 244.231 576.589 244.231 574.212C244.231 571.836 242.407 569.909 240.158 569.909C237.909 569.909 236.085 571.836 236.085 574.212C236.085 576.589 237.909 578.516 240.158 578.516Z" fill="white"/>
<path d="M341.264 592.647H290.269V594.212H341.264V592.647Z" fill="#342C3B"/>
<path d="M340.621 585.369C336.884 584.874 331.093 584.75 324.488 587.371C320.893 588.799 317.936 590.688 315.651 592.447C313.131 590.405 309.099 587.672 303.751 586.143C298.397 584.614 293.852 584.897 290.906 585.375V592.654H340.615V585.375L340.621 585.369Z" fill="white"/>
<path d="M544.874 705.446H118.222V711.757H544.874V705.446Z" fill="#CDCDCD"/>
</svg>
