<svg width="122" height="431" viewBox="0 0 122 431" fill="none" xmlns="http://www.w3.org/2000/svg">
<g filter="url(#filter0_d_934_3)">
<path d="M21.9808 387.882C6.0064 371.907 6.0064 346.011 21.9808 330.057L206.057 145.981C222.031 130.006 247.928 130.006 263.882 145.981C279.856 161.955 279.856 187.852 263.882 203.806L79.8056 387.882C63.8312 403.856 37.9346 403.856 21.9808 387.882Z" fill="#399EE7"/>
</g>
<g filter="url(#filter1_d_934_3)">
<path d="M21.9808 511.882C6.0064 495.907 6.0064 470.011 21.9808 454.057L206.057 269.981C222.031 254.006 247.928 254.006 263.882 269.981C279.856 285.955 279.856 311.852 263.882 327.806L79.8056 511.882C63.8312 527.856 37.9346 527.856 21.9808 511.882Z" fill="#399EE7"/>
</g>
<g filter="url(#filter2_d_934_3)">
<path d="M21.9808 330.882C6.0064 314.907 6.0064 289.011 21.9808 273.057L206.057 88.9808C222.031 73.0064 247.928 73.0064 263.882 88.9808C279.856 104.955 279.856 130.852 263.882 146.806L79.8056 330.882C63.8312 346.856 37.9346 346.856 21.9808 330.882Z" fill="#399EE7"/>
</g>
<g filter="url(#filter3_d_934_3)">
<path d="M21.9808 454.882C6.0064 438.907 6.0064 413.011 21.9808 397.057L206.057 212.981C222.031 197.006 247.928 197.006 263.882 212.981C279.856 228.955 279.856 254.852 263.882 270.806L79.8056 454.882C63.8312 470.856 37.9346 470.856 21.9808 454.882Z" fill="#399EE7"/>
</g>
<g filter="url(#filter4_d_934_3)">
<path d="M21.9808 263.882C6.0064 247.907 6.0064 222.011 21.9808 206.057L206.057 21.9808C222.031 6.0064 247.928 6.0064 263.882 21.9808C279.856 37.9552 279.856 63.8518 263.882 79.8056L79.8056 263.882C63.8312 279.856 37.9346 279.856 21.9808 263.882Z" fill="#399EE7"/>
</g>
<g filter="url(#filter5_d_934_3)">
<path d="M21.9808 387.882C6.0064 371.907 6.0064 346.011 21.9808 330.057L206.057 145.981C222.031 130.006 247.928 130.006 263.882 145.981C279.856 161.955 279.856 187.852 263.882 203.806L79.8056 387.882C63.8312 403.856 37.9346 403.856 21.9808 387.882Z" fill="#399EE7"/>
</g>
<defs>
<filter id="filter0_d_934_3" x="0" y="124" width="285.862" height="285.862" filterUnits="userSpaceOnUse" color-interpolation-filters="sRGB">
<feFlood flood-opacity="0" result="BackgroundImageFix"/>
<feColorMatrix in="SourceAlpha" type="matrix" values="0 0 0 0 0 0 0 0 0 0 0 0 0 0 0 0 0 0 127 0" result="hardAlpha"/>
<feOffset/>
<feGaussianBlur stdDeviation="5"/>
<feColorMatrix type="matrix" values="0 0 0 0 0.117647 0 0 0 0 0.0156863 0 0 0 0 0.368627 0 0 0 0.4 0"/>
<feBlend mode="normal" in2="BackgroundImageFix" result="effect1_dropShadow_934_3"/>
<feBlend mode="normal" in="SourceGraphic" in2="effect1_dropShadow_934_3" result="shape"/>
</filter>
<filter id="filter1_d_934_3" x="0" y="248" width="285.862" height="285.862" filterUnits="userSpaceOnUse" color-interpolation-filters="sRGB">
<feFlood flood-opacity="0" result="BackgroundImageFix"/>
<feColorMatrix in="SourceAlpha" type="matrix" values="0 0 0 0 0 0 0 0 0 0 0 0 0 0 0 0 0 0 127 0" result="hardAlpha"/>
<feOffset/>
<feGaussianBlur stdDeviation="5"/>
<feColorMatrix type="matrix" values="0 0 0 0 0.117647 0 0 0 0 0.0156863 0 0 0 0 0.368627 0 0 0 0.4 0"/>
<feBlend mode="normal" in2="BackgroundImageFix" result="effect1_dropShadow_934_3"/>
<feBlend mode="normal" in="SourceGraphic" in2="effect1_dropShadow_934_3" result="shape"/>
</filter>
<filter id="filter2_d_934_3" x="0" y="67" width="285.862" height="285.862" filterUnits="userSpaceOnUse" color-interpolation-filters="sRGB">
<feFlood flood-opacity="0" result="BackgroundImageFix"/>
<feColorMatrix in="SourceAlpha" type="matrix" values="0 0 0 0 0 0 0 0 0 0 0 0 0 0 0 0 0 0 127 0" result="hardAlpha"/>
<feOffset/>
<feGaussianBlur stdDeviation="5"/>
<feColorMatrix type="matrix" values="0 0 0 0 0.117647 0 0 0 0 0.0156863 0 0 0 0 0.368627 0 0 0 0.4 0"/>
<feBlend mode="normal" in2="BackgroundImageFix" result="effect1_dropShadow_934_3"/>
<feBlend mode="normal" in="SourceGraphic" in2="effect1_dropShadow_934_3" result="shape"/>
</filter>
<filter id="filter3_d_934_3" x="0" y="191" width="285.862" height="285.862" filterUnits="userSpaceOnUse" color-interpolation-filters="sRGB">
<feFlood flood-opacity="0" result="BackgroundImageFix"/>
<feColorMatrix in="SourceAlpha" type="matrix" values="0 0 0 0 0 0 0 0 0 0 0 0 0 0 0 0 0 0 127 0" result="hardAlpha"/>
<feOffset/>
<feGaussianBlur stdDeviation="5"/>
<feColorMatrix type="matrix" values="0 0 0 0 0.117647 0 0 0 0 0.0156863 0 0 0 0 0.368627 0 0 0 0.4 0"/>
<feBlend mode="normal" in2="BackgroundImageFix" result="effect1_dropShadow_934_3"/>
<feBlend mode="normal" in="SourceGraphic" in2="effect1_dropShadow_934_3" result="shape"/>
</filter>
<filter id="filter4_d_934_3" x="0" y="0" width="285.862" height="285.862" filterUnits="userSpaceOnUse" color-interpolation-filters="sRGB">
<feFlood flood-opacity="0" result="BackgroundImageFix"/>
<feColorMatrix in="SourceAlpha" type="matrix" values="0 0 0 0 0 0 0 0 0 0 0 0 0 0 0 0 0 0 127 0" result="hardAlpha"/>
<feOffset/>
<feGaussianBlur stdDeviation="5"/>
<feColorMatrix type="matrix" values="0 0 0 0 0.117647 0 0 0 0 0.0156863 0 0 0 0 0.368627 0 0 0 0.4 0"/>
<feBlend mode="normal" in2="BackgroundImageFix" result="effect1_dropShadow_934_3"/>
<feBlend mode="normal" in="SourceGraphic" in2="effect1_dropShadow_934_3" result="shape"/>
</filter>
<filter id="filter5_d_934_3" x="0" y="124" width="285.862" height="285.862" filterUnits="userSpaceOnUse" color-interpolation-filters="sRGB">
<feFlood flood-opacity="0" result="BackgroundImageFix"/>
<feColorMatrix in="SourceAlpha" type="matrix" values="0 0 0 0 0 0 0 0 0 0 0 0 0 0 0 0 0 0 127 0" result="hardAlpha"/>
<feOffset/>
<feGaussianBlur stdDeviation="5"/>
<feColorMatrix type="matrix" values="0 0 0 0 0.117647 0 0 0 0 0.0156863 0 0 0 0 0.368627 0 0 0 0.4 0"/>
<feBlend mode="normal" in2="BackgroundImageFix" result="effect1_dropShadow_934_3"/>
<feBlend mode="normal" in="SourceGraphic" in2="effect1_dropShadow_934_3" result="shape"/>
</filter>
</defs>
</svg>
