<svg width="170" height="73" viewBox="0 0 170 73" fill="none" xmlns="http://www.w3.org/2000/svg">
<path d="M48.6224 29.3512C49.2954 31.7843 51.1203 33.0009 54.0969 33.0009C56.0124 33.0009 57.4619 32.3538 58.4455 31.0596L62.4834 33.3892C60.568 36.1588 57.7466 37.5436 54.0193 37.5436C50.8096 37.5436 48.2342 36.5729 46.2928 34.6316C44.3515 32.6903 43.3809 30.2442 43.3809 27.2934C43.3809 24.3685 44.3386 21.9354 46.254 19.9941C48.1695 18.0269 50.6285 17.0433 53.631 17.0433C56.4783 17.0433 58.8208 18.0269 60.6586 19.9941C62.5222 21.9613 63.4541 24.3944 63.4541 27.2934C63.4541 27.9405 63.3894 28.6265 63.2599 29.3512H48.6224ZM48.5448 25.4686H58.4455C58.1608 24.1485 57.5654 23.1649 56.6595 22.5178C55.7794 21.8707 54.7699 21.5471 53.631 21.5471C52.285 21.5471 51.172 21.8966 50.292 22.5954C49.4119 23.2684 48.8295 24.2261 48.5448 25.4686ZM81.5529 17.5869H86.5615V37H81.5529V34.7092C80.0516 36.5988 77.942 37.5436 75.2242 37.5436C72.6358 37.5436 70.4097 36.56 68.5461 34.5928C66.7083 32.5997 65.7894 30.1666 65.7894 27.2934C65.7894 24.4203 66.7083 22.0001 68.5461 20.0329C70.4097 18.0398 72.6358 17.0433 75.2242 17.0433C77.942 17.0433 80.0516 17.9881 81.5529 19.8776V17.5869ZM72.3122 31.2537C73.3217 32.2632 74.603 32.7679 76.156 32.7679C77.7091 32.7679 78.9904 32.2632 79.9998 31.2537C81.0352 30.2183 81.5529 28.8982 81.5529 27.2934C81.5529 25.6886 81.0352 24.3815 79.9998 23.372C78.9904 22.3366 77.7091 21.8189 76.156 21.8189C74.603 21.8189 73.3217 22.3366 72.3122 23.372C71.3027 24.3815 70.798 25.6886 70.798 27.2934C70.798 28.8982 71.3027 30.2183 72.3122 31.2537ZM100.344 37.5436C97.419 37.5436 94.9729 36.56 93.0057 34.5928C91.0644 32.6256 90.0938 30.1925 90.0938 27.2934C90.0938 24.3944 91.0644 21.9613 93.0057 19.9941C94.9729 18.0269 97.419 17.0433 100.344 17.0433C102.233 17.0433 103.955 17.4963 105.508 18.4022C107.061 19.3081 108.239 20.5247 109.041 22.0519L104.731 24.5756C104.343 23.7732 103.748 23.139 102.945 22.6731C102.169 22.2072 101.289 21.9742 100.305 21.9742C98.8038 21.9742 97.5614 22.479 96.5778 23.4884C95.5942 24.472 95.1024 25.7404 95.1024 27.2934C95.1024 28.8206 95.5942 30.0889 96.5778 31.0984C97.5614 32.082 98.8038 32.5738 100.305 32.5738C101.315 32.5738 102.208 32.3538 102.984 31.9138C103.787 31.4478 104.382 30.8137 104.77 30.0113L109.119 32.4961C108.264 34.0233 107.061 35.2528 105.508 36.1846C103.955 37.0906 102.233 37.5436 100.344 37.5436ZM122.561 17.0433C124.684 17.0433 126.431 17.7551 127.803 19.1787C129.201 20.6024 129.9 22.5696 129.9 25.0803V37H124.891V25.7015C124.891 24.4073 124.541 23.4237 123.843 22.7507C123.144 22.0519 122.212 21.7024 121.047 21.7024C119.753 21.7024 118.718 22.1036 117.941 22.9061C117.164 23.7085 116.776 24.9121 116.776 26.5169V37H111.768V9.82159H116.776V19.7611C117.993 17.9492 119.921 17.0433 122.561 17.0433ZM138.408 29.3512C139.081 31.7843 140.906 33.0009 143.883 33.0009C145.798 33.0009 147.248 32.3538 148.231 31.0596L152.269 33.3892C150.354 36.1588 147.532 37.5436 143.805 37.5436C140.595 37.5436 138.02 36.5729 136.079 34.6316C134.137 32.6903 133.167 30.2442 133.167 27.2934C133.167 24.3685 134.124 21.9354 136.04 19.9941C137.955 18.0269 140.414 17.0433 143.417 17.0433C146.264 17.0433 148.607 18.0269 150.444 19.9941C152.308 21.9613 153.24 24.3944 153.24 27.2934C153.24 27.9405 153.175 28.6265 153.046 29.3512H138.408ZM138.331 25.4686H148.231C147.947 24.1485 147.351 23.1649 146.445 22.5178C145.565 21.8707 144.556 21.5471 143.417 21.5471C142.071 21.5471 140.958 21.8966 140.078 22.5954C139.198 23.2684 138.615 24.2261 138.331 25.4686ZM161.745 20.9259C162.211 19.6835 162.974 18.7516 164.036 18.1304C165.123 17.5092 166.326 17.1986 167.647 17.1986V22.7896C166.119 22.6084 164.748 22.919 163.531 23.7214C162.34 24.5238 161.745 25.8569 161.745 27.7205V37H156.736V17.5869H161.745V20.9259Z" fill="white"/>
<path d="M62.5753 54.1114H55.6197V59.9251H62.3262V60.9632H55.6197V67.6074H54.5193V53.0733H62.5753V54.1114ZM77.2876 67.8358C75.7649 67.8358 74.4707 67.3167 73.4049 66.2786C72.3529 65.2266 71.8269 63.9393 71.8269 62.4167C71.8269 60.894 72.3529 59.6137 73.4049 58.5755C74.4707 57.5235 75.7649 56.9975 77.2876 56.9975C78.7964 56.9975 80.0767 57.5235 81.1287 58.5755C82.1946 59.6137 82.7275 60.894 82.7275 62.4167C82.7275 63.9393 82.1946 65.2266 81.1287 66.2786C80.0767 67.3167 78.7964 67.8358 77.2876 67.8358ZM74.1524 65.5519C75.0106 66.4101 76.0556 66.8392 77.2876 66.8392C78.5195 66.8392 79.5577 66.4101 80.402 65.5519C81.2464 64.6937 81.6686 63.6486 81.6686 62.4167C81.6686 61.1847 81.2464 60.1396 80.402 59.2814C79.5577 58.4232 78.5195 57.9941 77.2876 57.9941C76.0556 57.9941 75.0106 58.4232 74.1524 59.2814C73.308 60.1396 72.8858 61.1847 72.8858 62.4167C72.8858 63.6486 73.308 64.6937 74.1524 65.5519ZM93.7387 59.2607C94.3616 57.8073 95.5174 57.0806 97.2061 57.0806V58.0772C96.2234 58.0772 95.3998 58.3956 94.7353 59.0323C94.0709 59.6552 93.7387 60.5895 93.7387 61.8353V67.6074H92.7006V57.2259H93.7387V59.2607ZM115.376 57.2259H116.414V67.1091C116.414 68.6179 115.922 69.8083 114.94 70.6804C113.957 71.5524 112.725 71.9884 111.244 71.9884C110.053 71.9884 109.036 71.767 108.192 71.324C107.347 70.8811 106.731 70.272 106.344 69.4969L107.257 68.9778C107.922 70.3205 109.25 70.9918 111.244 70.9918C112.531 70.9918 113.542 70.6388 114.275 69.9329C115.009 69.2408 115.376 68.2995 115.376 67.1091V65.1989C114.946 66.0156 114.337 66.6592 113.548 67.1299C112.773 67.6005 111.894 67.8358 110.912 67.8358C109.417 67.8358 108.143 67.3167 107.091 66.2786C106.053 65.2266 105.534 63.9393 105.534 62.4167C105.534 60.894 106.053 59.6137 107.091 58.5755C108.143 57.5235 109.417 56.9975 110.912 56.9975C111.894 56.9975 112.773 57.2328 113.548 57.7035C114.337 58.1741 114.946 58.8177 115.376 59.6344V57.2259ZM107.839 65.5519C108.697 66.4101 109.742 66.8392 110.974 66.8392C112.206 66.8392 113.244 66.4101 114.088 65.5519C114.946 64.6937 115.376 63.6486 115.376 62.4167C115.376 61.1847 114.946 60.1396 114.088 59.2814C113.244 58.4232 112.206 57.9941 110.974 57.9941C109.742 57.9941 108.697 58.4232 107.839 59.2814C106.994 60.1396 106.572 61.1847 106.572 62.4167C106.572 63.6486 106.994 64.6937 107.839 65.5519ZM131.767 56.9975C133.289 56.9975 134.521 57.5373 135.463 58.617C136.418 59.6967 136.895 60.9771 136.895 62.4582C136.895 62.5136 136.888 62.5966 136.874 62.7073C136.874 62.8181 136.874 62.9011 136.874 62.9565H127.469C127.593 64.1192 128.057 65.0605 128.86 65.7803C129.677 66.4862 130.68 66.8392 131.871 66.8392C132.701 66.8392 133.428 66.6662 134.051 66.3201C134.674 65.9741 135.144 65.5173 135.463 64.9498L136.376 65.4896C135.947 66.2094 135.338 66.7838 134.549 67.2129C133.76 67.6282 132.86 67.8358 131.85 67.8358C130.258 67.8358 128.95 67.3306 127.926 66.3201C126.901 65.2958 126.389 63.9947 126.389 62.4167C126.389 60.8664 126.887 59.579 127.884 58.5547C128.894 57.5166 130.189 56.9975 131.767 56.9975ZM131.767 57.9941C130.59 57.9941 129.607 58.3609 128.818 59.0946C128.029 59.8282 127.579 60.7764 127.469 61.9391H135.816C135.705 60.7072 135.262 59.7452 134.487 59.053C133.725 58.3471 132.819 57.9941 131.767 57.9941Z" fill="white"/>
<g clip-path="url(#clip0_1603_74)">
<path d="M19 6C8.5 6 0 14.5 0 25C0 35.5 8.5 44 19 44C29.5 44 38 35.49 38 25C38 14.51 29.49 6 19 6ZM30.53 17.85H21.53V41.17H16.55V17.85H7.55V12.87H30.53V17.85Z" fill="white"/>
</g>
<defs>
<clipPath id="clip0_1603_74">
<rect width="38" height="38" fill="white" transform="translate(0 6)"/>
</clipPath>
</defs>
</svg>
