<svg width="135" height="73" viewBox="0 0 135 73" fill="none" xmlns="http://www.w3.org/2000/svg">
<path d="M35.7004 16.4362L22.0356 32.8723C20.1265 35.1684 17.2891 36.4965 14.2977 36.4965H14.2942C5.77859 36.4965 1.11972 26.5992 6.55623 20.0603L20.2246 3.62414C22.1337 1.32803 24.971 0 27.9625 0H27.966C36.4781 0 41.1405 9.89737 35.7039 16.4362H35.7004ZM23.7415 36.4965C20.75 36.4965 17.9127 37.8245 16.0036 40.1241L2.33522 56.5638C-3.10129 63.1026 1.56108 73 10.0732 73C13.0646 73 15.902 71.672 17.8111 69.3724L31.4794 52.9327C36.916 46.3938 32.2536 36.5 23.7415 36.5V36.4965ZM57.7898 0H57.7863C54.7948 0 51.9574 1.32803 50.0484 3.62414L36.3835 20.0603C30.947 26.5992 35.6059 36.4965 44.1214 36.4965H44.1249C47.1164 36.4965 49.9538 35.1684 51.8629 32.8723L65.5312 16.4362C70.9677 9.89737 66.3089 0 57.7933 0H57.7898ZM53.5688 36.4965C50.5773 36.4965 47.7399 37.8245 45.8309 40.1241L32.1625 56.5638C26.726 63.1026 31.3884 73 39.9004 73C42.8919 73 45.7293 71.672 47.6384 69.3724L61.3067 52.9327C66.7432 46.3938 62.0809 36.5 53.5688 36.5V36.4965ZM87.6171 0H87.6136C84.6221 0 81.7847 1.32803 79.8756 3.62414L66.2108 20.0603C60.7743 26.5992 65.4331 36.4965 73.9487 36.4965H73.9522C76.9437 36.4965 79.7811 35.1684 81.6902 32.8723L95.355 16.4362C100.792 9.89737 96.1326 0 87.6171 0ZM83.3961 36.4965C80.4046 36.4965 77.5672 37.8245 75.6581 40.1241L61.9898 56.5638C56.5533 63.1026 61.2156 73 69.7277 73C72.7192 73 75.5566 71.672 77.4656 69.3724L91.134 52.9327C96.5705 46.3938 91.9081 36.5 83.3961 36.5V36.4965ZM117.444 0H117.441C114.449 0 111.612 1.32803 109.703 3.62414L96.0381 20.0603C90.6016 26.5992 95.2604 36.4965 103.776 36.4965H103.78C106.771 36.4965 109.608 35.1684 111.517 32.8723L125.182 16.4362C130.619 9.89737 125.96 0 117.444 0ZM113.223 36.4965C110.232 36.4965 107.395 37.8245 105.485 40.1241L91.8171 56.5638C86.3806 63.1026 91.0429 73 99.555 73C102.546 73 105.384 71.672 107.293 69.3724L120.961 52.9327C126.398 46.3938 121.735 36.5 113.223 36.5V36.4965ZM147.272 0C144.28 0 141.443 1.32803 139.534 3.62414L125.869 20.0603C120.432 26.5992 125.091 36.4965 133.607 36.4965H133.61C136.602 36.4965 139.439 35.1684 141.348 32.8723L155.013 16.4362C160.45 9.89737 155.791 0 147.275 0H147.272ZM143.051 36.4965C140.059 36.4965 137.222 37.8245 135.313 40.1241L121.644 56.5638C116.208 63.1026 120.867 73 129.382 73C132.374 73 135.211 71.672 137.12 69.3724L150.789 52.9327C156.225 46.3938 151.563 36.5 143.051 36.5V36.4965ZM177.099 0H177.095C174.104 0 171.267 1.32803 169.357 3.62414L155.693 20.0603C150.256 26.5992 154.915 36.4965 163.431 36.4965H163.434C166.426 36.4965 169.263 35.1684 171.172 32.8723L184.837 16.4362C190.273 9.89737 185.614 0 177.099 0ZM172.878 36.4965C169.886 36.4965 167.049 37.8245 165.14 40.1241L151.472 56.5638C146.035 63.1026 150.697 73 159.21 73C162.201 73 165.038 71.672 166.947 69.3724L180.616 52.9327C186.052 46.3938 181.393 36.5 172.878 36.5V36.4965ZM206.926 0H206.923C203.931 0 201.094 1.32803 199.185 3.62414L185.52 20.0603C180.083 26.5992 184.742 36.4965 193.258 36.4965H193.261C196.253 36.4965 199.09 35.1684 200.999 32.8723L214.664 16.4362C220.101 9.89737 215.442 0 206.926 0ZM202.705 36.4965C199.714 36.4965 196.876 37.8245 194.967 40.1241L181.299 56.5638C175.862 63.1026 180.525 73 189.037 73C192.028 73 194.866 71.672 196.775 69.3724L210.443 52.9327C215.88 46.3938 211.217 36.5 202.705 36.5V36.4965Z" fill="#37B7FF"/>
</svg>
