<svg width="124" height="48" viewBox="0 0 124 48" fill="none" xmlns="http://www.w3.org/2000/svg">
<path d="M34.2469 16.0432H39.9565C39.713 14.7173 38.4953 13.8514 37.1693 13.8514C35.7352 13.8514 34.5445 14.609 34.2469 16.0432ZM44.5296 18.3703V18.8845H34.1657C34.1657 20.8869 35.221 21.9693 37.2505 21.9693C38.3059 21.9693 39.0635 21.6175 39.6047 20.6975H44.3402C43.5555 23.9717 40.4436 25.46 37.2776 25.46C32.6774 25.46 29.2408 22.8623 29.2408 18.0727C29.2408 13.4455 32.4068 10.6583 36.9258 10.6583C41.7425 10.6583 44.5296 13.6349 44.5296 18.3703ZM54.0371 14.9338C52.0347 14.9338 50.8711 16.3679 50.8711 18.0727C50.8711 19.8316 52.0347 21.1846 54.0371 21.1846C56.0395 21.1846 57.2031 19.8316 57.2031 18.0727C57.2031 16.3679 56.0395 14.9338 54.0371 14.9338ZM61.9656 11.1183V25H57.0408V23.4576H56.9866C56.1207 24.8376 54.416 25.46 52.7924 25.46C48.6793 25.46 45.7839 22.0234 45.7839 18.0456C45.7839 14.0678 48.6252 10.6583 52.7382 10.6583C54.3348 10.6583 56.0125 11.2536 57.0408 12.4713V11.1183H61.9656ZM75.2423 11.4701V15.6373C74.5117 15.0961 73.6458 14.6632 72.6987 14.6632C70.8045 14.6632 69.3162 16.1244 69.3162 18.0456C69.3162 20.0481 70.7504 21.4552 72.7798 21.4552C73.6458 21.4552 74.5928 21.1034 75.2423 20.5081V24.6753C74.1599 25.2165 72.9693 25.46 71.7786 25.46C67.6655 25.46 64.2289 22.4023 64.2289 18.208C64.2289 13.7431 67.6385 10.6583 71.9951 10.6583C73.1316 10.6583 74.2681 10.9289 75.2423 11.4701ZM78.3108 2.54036H83.2357V12.8772H83.2898C84.4263 11.3619 85.8064 10.6583 87.7276 10.6583C91.2454 10.6583 92.9502 12.9854 92.9502 16.5032V25H88.0253V17.8833C88.0253 16.2597 87.7818 14.582 85.8064 14.582C83.8581 14.582 83.2357 16.2597 83.2357 17.8833V25H78.3108V2.54036ZM100.179 16.0432H105.888C105.645 14.7173 104.427 13.8514 103.101 13.8514C101.667 13.8514 100.476 14.609 100.179 16.0432ZM110.461 18.3703V18.8845H100.098C100.098 20.8869 101.153 21.9693 103.182 21.9693C104.238 21.9693 104.995 21.6175 105.537 20.6975H110.272C109.487 23.9717 106.375 25.46 103.209 25.46C98.6093 25.46 95.1727 22.8623 95.1727 18.0727C95.1727 13.4455 98.3387 10.6583 102.858 10.6583C107.674 10.6583 110.461 13.6349 110.461 18.3703ZM117.642 11.1183V13.3913H117.696C118.643 11.6866 120.267 10.9289 122.188 10.9289H123.135V15.6644C122.458 15.2855 121.809 15.2044 121.051 15.2044C118.318 15.2044 117.642 17.0174 117.642 19.3986V25H112.717V11.1183H117.642Z" fill="white"/>
<path d="M12.9744 29.8595C20.14 29.8595 25.9489 24.0507 25.9489 16.8851C25.9489 9.7195 20.14 3.91064 12.9744 3.91064C5.80886 3.91064 0 9.7195 0 16.8851C0 24.0507 5.80886 29.8595 12.9744 29.8595Z" fill="white"/>
<path d="M15.8904 11.5212V28.6685H10.1746V11.5212H5.45036V6.68025H20.6146V11.5212H15.8904Z" fill="#2E96D0"/>
<path d="M43.6381 34.5738V35.4131H38.038V39.1176H43.0159V39.9569H38.038V44.877H37.0684V34.5738H43.6381ZM53.0601 37.222C55.2018 37.222 56.5621 38.7558 56.5621 41.1869C56.5621 43.5891 55.2163 45.094 53.0601 45.094C50.8895 45.094 49.5148 43.5601 49.5148 41.158C49.5148 38.7703 50.904 37.222 53.0601 37.222ZM53.0457 37.9889C51.4684 37.9889 50.4409 39.2334 50.4409 41.158C50.4409 43.1115 51.4394 44.3415 53.0746 44.3415C54.6519 44.3415 55.6504 43.1115 55.6504 41.1725C55.6504 39.2334 54.6375 37.9889 53.0457 37.9889ZM66.9472 37.3232V38.2494C66.8459 38.2494 66.759 38.2349 66.7012 38.2349C65.5869 38.2349 64.6174 38.9295 64.328 40.0003C64.2122 40.4489 64.1543 40.883 64.1543 41.8381V44.877H63.2571V37.439H64.1109V39.2189C64.7331 37.8587 65.4422 37.3522 66.9472 37.3232ZM79.2245 37.439V44.4718C79.2245 46.7437 78.0235 47.8 75.8963 47.8C74.0874 47.8 72.9732 46.9897 72.8719 45.5571H73.7836C73.9283 46.5845 74.6518 47.091 75.9397 47.091C77.7775 47.091 78.3708 46.0925 78.3708 44.3994V43.1549C77.8788 44.2258 77.0105 44.7901 75.795 44.7901C73.827 44.7901 72.568 43.3431 72.568 41.1001C72.568 38.7703 73.8848 37.2364 75.8673 37.2364C77.0395 37.2364 77.9077 37.8152 78.3997 38.8427V37.439H79.2245ZM75.9107 38.0178C74.4203 38.0178 73.4797 39.1755 73.4797 41.0277C73.4797 42.8511 74.4203 44.0087 75.8818 44.0087C77.4012 44.0087 78.3563 42.8221 78.3563 40.9265C78.3563 39.161 77.4012 38.0178 75.9107 38.0178ZM92.3591 42.4314C92.0407 44.0811 90.9265 45.123 89.1755 45.123C87.1062 45.123 85.7604 43.6035 85.7604 41.2448C85.7604 38.8861 87.1641 37.2364 89.161 37.2364C91.3606 37.2364 92.4314 39.0597 92.4314 41.1146V41.375H86.6866C86.6866 42.9379 87.4101 44.3849 89.2045 44.3849C90.3911 44.3849 91.1869 43.7193 91.4764 42.4314H92.3591ZM91.5198 40.637C91.4185 38.9874 90.5213 37.9889 89.1321 37.9889C87.5114 37.9889 86.8602 39.2478 86.6866 40.637H91.5198Z" fill="white"/>
</svg>
