<svg width="322" height="125" viewBox="0 0 322 125" fill="none" xmlns="http://www.w3.org/2000/svg">
<path d="M89.5739 42.9612H104.372C103.74 39.5247 100.585 37.2805 97.1481 37.2805C93.4311 37.2805 90.3453 39.2442 89.5739 42.9612ZM116.224 48.9925V50.325H89.3635C89.3635 55.5147 92.0986 58.32 97.3585 58.32C100.094 58.32 102.057 57.4083 103.46 55.0238H115.733C113.699 63.5097 105.634 67.367 97.4286 67.367C85.5062 67.367 76.5995 60.6343 76.5995 48.2211C76.5995 36.2285 84.8049 29.005 96.5169 29.005C109 29.005 116.224 36.7195 116.224 48.9925ZM140.865 40.0858C135.675 40.0858 132.659 43.8028 132.659 48.2211C132.659 52.7796 135.675 56.2862 140.865 56.2862C146.054 56.2862 149.07 52.7796 149.07 48.2211C149.07 43.8028 146.054 40.0858 140.865 40.0858ZM161.413 30.1972V66.1747H148.649V62.1772H148.509C146.265 65.754 141.847 67.367 137.639 67.367C126.979 67.367 119.475 58.4603 119.475 48.1509C119.475 37.8416 126.838 29.005 137.498 29.005C141.636 29.005 145.984 30.5479 148.649 33.7038V30.1972H161.413ZM195.823 31.1089V41.9092C193.929 40.5066 191.685 39.3845 189.23 39.3845C184.321 39.3845 180.464 43.1716 180.464 48.1509C180.464 53.3407 184.181 56.9875 189.441 56.9875C191.685 56.9875 194.14 56.0758 195.823 54.5329V65.3332C193.017 66.7358 189.932 67.367 186.846 67.367C176.186 67.367 167.279 59.4421 167.279 48.5717C167.279 37 176.116 29.005 187.407 29.005C190.352 29.005 193.298 29.7063 195.823 31.1089ZM203.776 7.96551H216.539V34.7558H216.68C219.625 30.8284 223.202 29.005 228.181 29.005C237.298 29.005 241.717 35.0363 241.717 44.1534V66.1747H228.953V47.7301C228.953 43.5222 228.322 39.1741 223.202 39.1741C218.153 39.1741 216.539 43.5222 216.539 47.7301V66.1747H203.776V7.96551ZM260.451 42.9612H275.249C274.618 39.5247 271.462 37.2805 268.025 37.2805C264.308 37.2805 261.223 39.2442 260.451 42.9612ZM287.101 48.9925V50.325H260.241C260.241 55.5147 262.976 58.32 268.236 58.32C270.971 58.32 272.935 57.4083 274.337 55.0238H286.61C284.576 63.5097 276.511 67.367 268.306 67.367C256.384 67.367 247.477 60.6343 247.477 48.2211C247.477 36.2285 255.682 29.005 267.394 29.005C279.878 29.005 287.101 36.7195 287.101 48.9925ZM305.711 30.1972V36.0883H305.851C308.306 31.67 312.513 29.7063 317.493 29.7063H319.947V41.9793C318.194 40.9975 316.511 40.7871 314.547 40.7871C307.464 40.7871 305.711 45.4859 305.711 51.6575V66.1747H292.947V30.1972H305.711Z" fill="#1885C3"/>
<path d="M34.4397 76.5628C53.0109 76.5628 68.0659 61.5078 68.0659 42.9366C68.0659 24.3653 53.0109 9.31036 34.4397 9.31036C15.8684 9.31036 0.813477 24.3653 0.813477 42.9366C0.813477 61.5078 15.8684 76.5628 34.4397 76.5628Z" fill="#1885C3"/>
<path d="M41.9975 30.0578V74.4989H27.1838V30.0578H14.9398V17.5115H54.2415V30.0578H41.9975Z" fill="white"/>
<path d="M113.913 89.2718V91.4471H99.3992V101.048H112.301V103.223H99.3992V115.975H96.8864V89.2718H113.913ZM138.333 96.1351C143.883 96.1351 147.409 100.11 147.409 106.411C147.409 112.637 143.921 116.537 138.333 116.537C132.707 116.537 129.144 112.562 129.144 106.336C129.144 100.148 132.744 96.1351 138.333 96.1351ZM138.295 98.1228C134.207 98.1228 131.544 101.348 131.544 106.336C131.544 111.399 134.132 114.587 138.37 114.587C142.458 114.587 145.046 111.399 145.046 106.374C145.046 101.348 142.42 98.1228 138.295 98.1228ZM174.324 96.3976V98.7979C174.061 98.7979 173.836 98.7604 173.686 98.7604C170.798 98.7604 168.286 100.561 167.536 103.336C167.236 104.498 167.086 105.624 167.086 108.099V115.975H164.76V96.6976H166.973V101.311C168.586 97.7852 170.423 96.4726 174.324 96.3976ZM206.143 96.6976V114.925C206.143 120.813 203.031 123.551 197.518 123.551C192.83 123.551 189.942 121.45 189.679 117.737H192.042C192.417 120.4 194.292 121.713 197.63 121.713C202.393 121.713 203.931 119.125 203.931 114.737V111.512C202.656 114.287 200.405 115.75 197.255 115.75C192.154 115.75 188.892 111.999 188.892 106.186C188.892 100.148 192.304 96.1726 197.443 96.1726C200.48 96.1726 202.731 97.6727 204.006 100.336V96.6976H206.143ZM197.555 98.1978C193.692 98.1978 191.254 101.198 191.254 105.999C191.254 110.724 193.692 113.724 197.48 113.724C201.418 113.724 203.893 110.649 203.893 105.736C203.893 101.161 201.418 98.1978 197.555 98.1978ZM240.185 109.637C239.359 113.912 236.472 116.612 231.934 116.612C226.571 116.612 223.083 112.674 223.083 106.561C223.083 100.448 226.721 96.1726 231.896 96.1726C237.597 96.1726 240.372 100.898 240.372 106.224V106.899H225.483C225.483 110.949 227.358 114.7 232.009 114.7C235.084 114.7 237.147 112.974 237.897 109.637H240.185ZM238.009 104.986C237.747 100.711 235.422 98.1228 231.821 98.1228C227.621 98.1228 225.933 101.386 225.483 104.986H238.009Z" fill="#1885C3"/>
</svg>
