<svg width="143" height="28" viewBox="0 0 143 28" fill="none" xmlns="http://www.w3.org/2000/svg">
<path d="M3.45626 27.441C3.66833 27.441 3.84025 27.269 3.84025 27.0569C3.84025 26.8448 3.66833 26.6729 3.45626 26.6729C3.24419 26.6729 3.07227 26.8448 3.07227 27.0569C3.07227 27.269 3.24419 27.441 3.45626 27.441Z" fill="#FFDC3F"/>
<path d="M8.6223 15.9088C8.78388 16.2863 8.8916 16.6099 9.05317 16.9874C9.48405 17.9581 10.1304 18.8749 10.8305 19.6838C11.4768 20.4388 12.2847 21.0859 13.1465 21.6252C13.5235 21.8948 14.0082 22.1106 14.4391 22.2723C15.0315 22.542 15.5701 22.7038 16.1626 22.8656C17.132 23.1352 18.2092 23.1352 19.1787 23.0813C20.3097 22.9734 21.3869 22.7038 22.4102 22.3263C23.3797 21.9488 24.2953 21.4634 25.157 20.9241C25.2109 20.8702 25.2647 20.8702 25.3186 20.8163C25.4263 20.9781 25.5879 21.0859 25.6956 21.1938C26.0726 21.5713 26.5035 21.8409 26.9344 22.1645C27.4191 22.4881 28.0116 22.7577 28.5501 22.9734C29.0887 23.1891 29.6273 23.243 30.2198 23.3509C30.7045 23.4048 31.2431 23.4588 31.7278 23.4048C32.3203 23.4048 32.8589 23.297 33.4513 23.1352C34.0438 23.0273 34.6362 22.8116 35.1748 22.5959C37.006 21.8948 38.6756 20.8163 40.1298 19.5759C40.3453 19.9534 40.5607 20.277 40.83 20.6006C41.0993 20.9781 41.4225 21.3016 41.7995 21.5713C42.2303 21.9488 42.7151 22.2184 43.2537 22.4881C43.7384 22.7038 44.1693 22.8656 44.7079 22.9734C45.1926 23.0813 45.7312 23.1352 46.2698 23.1352C46.8084 23.1352 47.3469 23.0273 47.8855 22.9195C48.4241 22.8116 48.9627 22.6498 49.5013 22.4341C51.4941 21.6252 53.1637 20.3849 54.6179 18.767C54.8334 18.5513 55.0488 18.2817 55.2642 18.012C55.4797 18.2277 55.6951 18.4974 55.9105 18.7131C56.2337 19.0906 56.6107 19.4141 57.0416 19.6838C57.5263 20.0613 58.0649 20.4388 58.6035 20.7084C59.0882 20.9781 59.5729 21.1938 60.1115 21.4095C60.6501 21.6252 61.1887 21.7331 61.7273 21.787C62.8583 21.9488 63.9894 21.787 65.1204 21.5713C66.1437 21.3556 67.1132 20.9781 68.0288 20.6006C69.0521 20.1691 69.9677 19.6299 70.8833 18.9827C71.6912 18.4434 72.3914 17.7963 73.0916 17.0952C73.1993 17.257 73.2531 17.4727 73.3609 17.6345C73.6301 18.1738 73.9533 18.6592 74.2765 19.0906C74.5458 19.4681 74.8689 19.7916 75.1921 20.1152C75.5691 20.4388 75.9461 20.7624 76.377 21.032C76.754 21.3016 77.1849 21.5173 77.6157 21.6791C78.1543 21.8948 78.6929 22.1106 79.2853 22.2184C80.3087 22.4341 81.332 22.4341 82.3553 22.3263C82.8939 22.2723 83.4325 22.1645 83.9711 22.0027C84.5635 21.8409 85.156 21.5713 85.7484 21.3016C86.7179 20.8702 87.5796 20.277 88.3875 19.5759C89.0338 19.0906 89.6263 18.4974 90.1649 17.9042C90.2726 18.012 90.3803 18.1738 90.488 18.2817C90.8112 18.6592 91.1882 18.9827 91.5652 19.3063C92.3731 19.9534 93.3426 20.3849 94.3659 20.6545C94.9045 20.7624 95.4431 20.8163 95.9817 20.8702C96.4664 20.9241 97.005 20.8702 97.4897 20.8163C98.0283 20.7624 98.5669 20.6545 99.1055 20.4927C99.6979 20.3309 100.237 20.1152 100.775 19.8995C101.745 19.522 102.66 19.0367 103.576 18.4974C104.545 17.9042 105.461 17.1492 106.269 16.3942C106.646 16.0706 107.023 15.6931 107.346 15.3156C107.454 15.4235 107.561 15.4774 107.669 15.5852C108.046 15.9088 108.477 16.1785 108.962 16.4481C109.446 16.6638 109.931 16.8795 110.416 17.0413C110.901 17.2031 111.439 17.257 111.978 17.3109C112.57 17.3649 113.163 17.3109 113.755 17.257C114.24 17.2031 114.671 17.0952 115.102 16.9335C115.586 16.7717 116.071 16.556 116.502 16.2863C116.933 16.0706 117.31 15.801 117.687 15.5313C118.172 15.1538 118.656 14.7763 119.087 14.3449C119.195 14.291 119.249 14.1831 119.303 14.0753C119.303 14.1292 119.356 14.1292 119.356 14.1831C119.68 14.6145 120.11 14.992 120.541 15.3695C120.918 15.6931 121.349 16.0167 121.834 16.2324C122.049 16.3402 122.319 16.4481 122.588 16.556C122.803 16.6638 123.019 16.7177 123.234 16.7717C123.719 16.9335 124.258 16.9874 124.796 16.9874C125.443 16.9874 126.089 16.8795 126.681 16.7717C127.166 16.6638 127.651 16.502 128.135 16.2863C128.459 16.1245 128.728 15.9627 128.997 15.801C129.159 15.9088 129.267 16.0167 129.428 16.1245C129.751 16.3942 130.128 16.6099 130.451 16.8256C130.828 17.0413 131.259 17.2031 131.69 17.4188C132.606 17.7963 133.575 17.9581 134.545 18.0659C135.353 18.1738 136.214 18.1738 137.022 18.1199C137.507 18.1199 137.992 18.0659 138.423 18.012C139.177 17.9042 139.931 17.7963 140.631 17.5267C140.792 17.4727 141.008 17.3649 141.169 17.3109C141.385 17.2031 141.6 17.0413 141.816 16.8256C141.923 16.7177 141.977 16.6099 142.085 16.502C142.193 16.3402 142.3 16.1785 142.354 15.9627C142.408 15.747 142.408 15.5313 142.462 15.3156C142.462 15.046 142.408 14.7763 142.247 14.5606C142.031 14.237 141.708 13.9674 141.331 13.8595C140.954 13.7517 140.523 13.8056 140.146 14.0213C139.984 14.1292 139.769 14.291 139.661 14.4528C139.607 14.4528 139.5 14.5067 139.446 14.5067C139.069 14.6145 138.692 14.6685 138.315 14.7763C138.046 14.8303 137.83 14.8303 137.561 14.8842C137.022 14.9381 136.484 14.9381 135.999 14.9381C135.514 14.9381 135.029 14.8842 134.491 14.8303C134.168 14.7763 133.791 14.7224 133.468 14.6145C133.144 14.5606 132.821 14.3988 132.498 14.291C132.067 14.0753 131.636 13.8595 131.205 13.5899C131.313 13.4281 131.421 13.2663 131.582 13.1046C132.067 12.3496 132.498 11.5406 132.929 10.7856C133.306 10.0846 133.629 9.3835 133.952 8.62851C134.168 8.0353 134.383 7.49602 134.437 6.84888C134.437 6.47138 134.383 6.03996 134.329 5.66246C134.275 5.39282 134.168 5.12318 134.06 4.90747C133.952 4.69175 133.898 4.52997 133.791 4.36818C133.575 3.99069 133.306 3.61319 133.037 3.28962C132.767 2.96605 132.552 2.69641 132.229 2.42677C131.906 2.1032 131.475 1.94141 131.044 1.77963C130.99 1.77963 130.882 1.7257 130.828 1.7257C130.613 1.67177 130.398 1.67177 130.236 1.67177C129.967 1.67177 129.697 1.7257 129.374 1.77963C129.159 1.83356 128.997 1.88749 128.782 1.99534C128.513 2.1032 128.297 2.26498 128.135 2.42677C127.812 2.69641 127.597 3.01998 127.328 3.34355C127.058 3.66712 126.897 4.04461 126.735 4.42211C126.52 4.90747 126.304 5.44675 126.197 5.9321C126.089 6.36353 125.981 6.84888 125.927 7.33423C125.873 7.87352 125.82 8.35887 125.82 8.89815C125.82 9.3835 125.873 9.81493 125.927 10.3003C125.981 10.7856 126.089 11.271 126.25 11.7024C126.358 12.1338 126.574 12.5653 126.789 13.0506C126.843 13.2124 126.951 13.3742 127.004 13.536C126.897 13.5899 126.789 13.6438 126.627 13.7517C126.197 13.9135 125.712 14.0213 125.281 14.0753C124.904 14.1292 124.527 14.1292 124.15 14.0753C123.827 14.0213 123.504 13.9135 123.127 13.8056C122.803 13.6438 122.48 13.482 122.211 13.2663C121.78 12.8888 121.349 12.5113 120.972 12.0799C120.918 12.026 120.918 11.9721 120.865 11.9181C121.457 11.0553 121.942 10.1385 122.373 9.16779C122.911 8.08923 123.342 6.90281 123.773 5.77032C123.934 5.33889 124.042 4.90747 124.204 4.47604C124.365 3.99069 124.365 3.4514 124.258 2.91212C124.204 2.42677 123.988 2.04927 123.773 1.61785C123.665 1.40213 123.45 1.18642 123.234 1.02464C122.965 0.754995 122.696 0.647138 122.319 0.539282C122.103 0.485354 121.888 0.485354 121.619 0.431426C121.565 0.431426 121.457 0.431426 121.349 0.431426C121.134 0.431426 120.972 0.485354 120.757 0.539282C120.488 0.59321 120.272 0.701066 120.057 0.808923C119.841 0.916779 119.626 1.07856 119.464 1.24035C119.303 1.40213 119.141 1.50999 118.979 1.67177C118.818 1.83356 118.656 2.04927 118.495 2.26498C118.172 2.75034 117.956 3.28962 117.741 3.77497C117.579 4.26033 117.418 4.74568 117.31 5.23103C117.202 5.77032 117.094 6.3096 117.041 6.84888C116.987 7.33423 116.933 7.87352 116.933 8.35887C116.933 8.95208 117.041 9.54529 117.094 10.1385C117.148 10.6239 117.31 11.0553 117.471 11.5406C116.987 12.0799 116.448 12.6192 115.856 13.1046C115.317 13.482 114.725 13.8595 114.132 14.1292C113.647 14.291 113.217 14.4528 112.732 14.5067C112.301 14.5606 111.87 14.5606 111.439 14.5067C110.901 14.3988 110.416 14.291 109.931 14.0753C109.608 13.9135 109.285 13.7517 108.962 13.536C108.854 13.4281 108.746 13.3742 108.639 13.2663C109.016 12.7271 109.393 12.1878 109.77 11.5946C110.308 10.7317 110.685 9.761 111.062 8.7903C111.439 7.76566 111.762 6.6871 111.924 5.5546C112.032 5.01532 112.086 4.52997 112.032 3.99069C112.032 3.50533 111.924 2.96605 111.816 2.4807C111.762 2.26498 111.708 2.04927 111.601 1.88749C111.493 1.67177 111.439 1.45606 111.331 1.24035C111.278 1.18642 111.278 1.13249 111.224 1.07856C111.116 0.916779 111.008 0.808923 110.847 0.647138C110.685 0.539282 110.577 0.431426 110.416 0.323569C110.254 0.269641 110.093 0.161785 109.931 0.107856C109.662 0.0539282 109.446 0 109.177 0C109.123 0 109.016 0 108.962 0C108.8 0 108.585 0.0539282 108.423 0.107856C108.208 0.161785 107.938 0.323569 107.777 0.431426C107.561 0.539282 107.346 0.754995 107.184 0.916779C106.807 1.24035 106.538 1.67177 106.269 2.04927C105.946 2.53462 105.676 3.12783 105.461 3.66712C105.084 4.63782 104.922 5.66246 104.815 6.6871C104.653 7.81959 104.599 8.95208 104.653 10.0846C104.707 11.0553 104.922 11.9721 105.299 12.8888C104.491 13.7517 103.63 14.5606 102.714 15.3156C101.745 16.0167 100.721 16.6099 99.5902 17.0952C98.6746 17.4727 97.759 17.7963 96.7895 17.9581C96.1971 18.012 95.6046 18.012 95.0122 17.9581C94.5813 17.9042 94.1504 17.7424 93.7196 17.5806C93.3426 17.4188 92.9655 17.2031 92.6424 16.9335C92.3192 16.6638 92.0499 16.3942 91.7806 16.0706C91.6729 15.9088 91.5652 15.801 91.4575 15.6392C91.6729 15.3156 91.9422 14.992 92.1577 14.6145C92.7501 13.6978 93.2887 12.7271 93.7196 11.7563C94.1504 10.7856 94.5275 9.81493 94.689 8.7903C94.7968 8.25101 94.8506 7.71173 94.8506 7.17245C94.8506 6.57924 94.7429 5.9321 94.5275 5.33889C94.4736 5.12318 94.3659 4.90747 94.2582 4.63782C94.2043 4.47604 94.0966 4.31426 93.9889 4.2064C93.8273 4.04461 93.7196 3.88283 93.558 3.72105C93.3964 3.55926 93.1271 3.39748 92.9117 3.34355C92.6963 3.28962 92.4808 3.28962 92.2654 3.28962C92.0499 3.28962 91.7806 3.34355 91.6191 3.39748C91.0805 3.55926 90.6496 3.99069 90.2726 4.36818C89.5724 5.12318 89.1954 6.09389 88.8184 7.01066C88.3875 8.08923 88.226 9.22172 88.0644 10.3542C87.9567 11.4328 88.0105 12.5113 88.1721 13.5899C88.2798 14.0753 88.3875 14.6145 88.4952 15.0999C87.7412 15.9627 86.9333 16.7717 86.0716 17.4727C85.3714 18.012 84.5635 18.4434 83.7557 18.8209C83.1093 19.0906 82.463 19.2524 81.8167 19.3602C81.1704 19.4141 80.4702 19.4141 79.8239 19.3602C79.2853 19.2524 78.8006 19.1445 78.3159 18.9288C77.8312 18.7131 77.4003 18.4434 76.9694 18.1738C76.5385 17.8502 76.2154 17.4727 75.8384 17.0413C75.4614 16.502 75.1382 15.9088 74.8689 15.3156C74.7612 15.0999 74.7073 14.8303 74.5996 14.6145C74.7612 14.3988 74.9228 14.1831 75.0843 13.9674C75.6768 13.1585 76.2154 12.2417 76.754 11.3249C77.2926 10.3542 77.7234 9.27565 77.9389 8.19709C78.0466 7.71173 78.1004 7.17245 78.1004 6.6871C78.1004 6.14781 78.0466 5.60853 77.9389 5.06925C77.885 4.79961 77.8312 4.5839 77.7773 4.31426C77.7234 4.09854 77.6157 3.8289 77.4541 3.61319C77.4003 3.50533 77.3464 3.4514 77.2387 3.34355C77.131 3.18176 77.0233 3.07391 76.8617 3.01998C76.5924 2.85819 76.3231 2.75034 76.0538 2.69641C75.7845 2.64248 75.6229 2.64248 75.3536 2.69641C75.0843 2.75034 74.8689 2.75034 74.6535 2.85819C74.438 2.96605 74.2226 3.07391 74.0072 3.18176C73.7917 3.28962 73.5763 3.50533 73.4147 3.66712C73.3609 3.72105 73.307 3.77497 73.2531 3.8289C73.1454 3.99069 73.0377 4.09854 72.93 4.26033C72.8223 4.47604 72.6607 4.63782 72.553 4.85354C72.4453 5.06925 72.3375 5.33889 72.2298 5.5546C72.1221 5.82424 72.0144 6.14781 71.9067 6.41746C71.5835 7.44209 71.4758 8.46673 71.4219 9.54529C71.3681 10.6778 71.5297 11.8103 71.6912 12.9428C71.7451 13.2124 71.799 13.4281 71.799 13.6978C71.0449 14.5606 70.2909 15.3695 69.4291 16.0706C68.4597 16.7717 67.4364 17.4188 66.3053 17.9042C65.8745 18.0659 65.4436 18.2277 65.0127 18.3356C64.4741 18.4974 63.9894 18.6052 63.4508 18.6592C62.8583 18.7131 62.2659 18.767 61.6196 18.7131C61.1349 18.6052 60.704 18.4974 60.2731 18.3356C59.5729 18.012 58.9266 17.6345 58.3342 17.2031C57.7417 16.7177 57.2031 16.1785 56.7184 15.5852C56.7184 15.5313 56.6646 15.5313 56.6646 15.4774C57.2031 14.7224 57.634 13.9135 58.0649 13.1046C58.5496 12.1878 58.9805 11.2171 59.3036 10.2464C59.4652 9.761 59.6268 9.27565 59.7345 8.73637C59.7884 8.46673 59.7884 8.19709 59.8422 7.92744C59.8422 7.60388 59.7884 7.22638 59.7345 6.90281C59.6807 6.41745 59.4114 5.9321 59.2498 5.50068C59.1421 5.28496 58.9805 5.06925 58.8728 4.85354C58.7112 4.63782 58.5496 4.42211 58.3342 4.26033C57.9572 3.88283 57.4724 3.55926 56.88 3.55926C56.6107 3.55926 56.3953 3.61319 56.126 3.61319C55.9644 3.66712 55.8567 3.72105 55.6951 3.77497C55.5335 3.8289 55.3719 3.93676 55.2104 3.99069C54.9949 4.09854 54.7795 4.31426 54.6179 4.42211C54.4563 4.5839 54.2948 4.74568 54.1332 4.90747C53.9716 5.12318 53.81 5.33889 53.7023 5.5546C53.5407 5.77032 53.4869 6.03996 53.3792 6.25567C52.9483 7.28031 52.7867 8.4128 52.679 9.49136C52.5713 10.5699 52.679 11.6485 52.8406 12.6731C52.9483 13.536 53.2176 14.3449 53.5407 15.0999C53.1637 15.5852 52.7328 16.0706 52.302 16.556C51.8711 17.0413 51.3325 17.5267 50.8478 17.9042C50.0938 18.4434 49.3397 18.9288 48.478 19.3063C47.8317 19.5759 47.1854 19.7377 46.5391 19.8456C46.162 19.8995 45.8389 19.8995 45.4619 19.8456C45.0849 19.7916 44.7617 19.6838 44.3847 19.522C44.1154 19.3602 43.8461 19.2524 43.5768 19.0367C43.3075 18.8209 43.0382 18.5513 42.8228 18.2817C42.6073 17.9581 42.4458 17.6345 42.2842 17.3109C42.2303 17.2031 42.2303 17.0952 42.1765 17.0413C42.3919 16.8256 42.5535 16.556 42.7689 16.3402C43.0921 15.9088 43.4691 15.4774 43.7923 14.992C44.1154 14.5067 44.3847 14.0213 44.7079 13.482C45.4619 12.1878 46.0543 10.7856 46.6468 9.3835C46.8622 8.84422 47.1315 8.30494 47.3469 7.76566C47.5085 7.28031 47.724 6.79495 47.724 6.3096C47.7778 5.71639 47.5624 5.12318 47.2392 4.63782C47.1854 4.52997 47.0777 4.42211 47.0238 4.31426C46.9161 4.15247 46.7545 4.04461 46.5929 3.93676C46.3775 3.77497 46.162 3.66712 45.9466 3.61319C45.7312 3.55926 45.4619 3.50533 45.1926 3.4514C44.9233 3.4514 44.654 3.4514 44.3847 3.50533C43.8461 3.61319 43.4152 3.77497 42.9305 4.04461C42.7689 4.74568 42.5535 4.90747 42.3381 5.06925C42.1226 5.28496 41.9072 5.50068 41.6917 5.71639C41.0454 6.47138 40.453 7.28031 40.0221 8.19709C39.8067 8.68244 39.6451 9.16779 39.4835 9.65315C39.322 10.1924 39.2681 10.7317 39.1604 11.3249C38.9988 12.4035 38.9449 13.4281 38.9449 14.5067C38.9449 15.046 38.9988 15.5313 39.0527 16.0706C38.5141 16.6099 37.9755 17.0952 37.383 17.5267C36.4136 18.2277 35.3902 18.8749 34.3131 19.3602C33.559 19.6838 32.7511 19.8995 31.9433 20.0613C31.4047 20.1152 30.9199 20.1152 30.4352 20.0613C30.0582 20.0074 29.6812 19.8995 29.3042 19.7916C28.9272 19.6299 28.5501 19.3602 28.1731 19.1445C28.0654 19.0367 27.9038 18.9288 27.7961 18.8209C28.5501 18.1199 29.1965 17.3109 29.8428 16.502C30.5429 15.5852 31.0815 14.6145 31.5124 13.5899C31.7278 13.1046 31.8894 12.6192 31.9971 12.1338C32.1587 11.5946 32.2126 11.0014 32.2664 10.4081C32.3203 9.86886 32.2126 9.27565 32.1048 8.73637C32.051 8.52065 31.9971 8.25101 31.8894 8.0353C31.7278 7.6578 31.5662 7.33423 31.3508 7.01066C31.1892 6.74102 30.9738 6.52531 30.8122 6.3096C30.6506 6.09389 30.3814 5.87817 30.1659 5.77032C29.7889 5.50068 29.3042 5.33889 28.8733 5.28496C28.604 5.23103 28.3347 5.23103 28.0116 5.23103C27.7423 5.23103 27.4191 5.28496 27.1498 5.33889C27.096 5.33889 26.9882 5.39282 26.9344 5.39282C26.7189 5.44675 26.5574 5.5546 26.3419 5.60853C26.0188 5.77032 25.6956 5.98603 25.4263 6.25567C25.2647 6.41745 25.0493 6.57924 24.8877 6.74102C24.6723 6.95674 24.5107 7.22638 24.3491 7.44209C24.026 7.87352 23.8105 8.4128 23.5951 8.89815C23.4335 9.3835 23.272 9.81493 23.1104 10.3003C22.9488 10.9474 22.8411 11.5946 22.7872 12.2956C22.6795 13.3742 22.6257 14.4528 22.7872 15.4774C22.8411 16.0706 22.9488 16.6099 23.1104 17.1492C23.2181 17.5806 23.3797 18.012 23.5413 18.3895C22.8411 18.8749 22.0871 19.2524 21.333 19.6299C20.579 19.9534 19.7711 20.1691 18.9094 20.277C18.3169 20.3309 17.7783 20.3309 17.1859 20.277C16.5396 20.1691 15.9471 20.0074 15.3547 19.7377C14.7622 19.4681 14.2775 19.1445 13.7389 18.767C13.2003 18.3356 12.7156 17.8502 12.2847 17.3109C11.8 16.6638 11.423 16.0167 11.0998 15.2617C10.9921 14.992 10.8844 14.7224 10.8305 14.5067C12.554 13.4281 14.1698 12.2417 15.6778 10.9474C16.0548 10.6239 16.4857 10.2464 16.8627 9.86886C17.2397 9.49136 17.6168 9.11386 17.9399 8.7903C18.2631 8.46673 18.5862 8.14316 18.8555 7.76566C19.1787 7.33423 19.3941 6.84888 19.5557 6.3096C19.6634 5.87817 19.6634 5.39282 19.6095 4.96139C19.5557 4.47604 19.448 4.04461 19.2325 3.61319C18.8017 2.69641 18.1015 1.99534 17.2397 1.50999C17.0243 1.40213 16.755 1.29428 16.5396 1.18642C16.3241 1.07856 16.1087 1.02464 15.8394 1.02464C15.3547 0.916779 14.8161 0.970707 14.3314 1.02464C13.8466 1.07856 13.4158 1.24035 12.931 1.45606C12.3924 1.7257 11.9077 1.99534 11.4768 2.37284C9.86106 3.66712 8.83774 5.60853 8.19143 7.54995C7.86827 8.52065 7.7067 9.59922 7.65284 10.6778C7.59898 11.8103 7.7067 12.9967 7.92213 14.0753C7.97599 14.291 8.02985 14.5606 8.08371 14.7763C6.84495 15.5313 5.49848 16.1785 4.20586 16.7717C3.72113 16.9874 3.29026 17.1492 2.80553 17.257C2.48237 17.3109 2.0515 17.4727 1.62063 17.5806C1.45905 17.5806 1.29747 17.5806 1.1359 17.5806H1.08204C1.1359 17.5267 1.18976 17.4727 1.24361 17.4188C1.45905 17.257 1.67449 17.0952 1.88992 16.9335C2.10536 16.7717 2.15922 16.502 2.0515 16.2863C1.94378 16.1245 1.62063 15.9627 1.45905 16.1245C1.18976 16.2863 0.974319 16.4481 0.705024 16.6638C0.597306 16.7717 0.489588 16.8795 0.38187 16.9874C0.274152 17.0952 0.166434 17.257 0.0587155 17.4188C-0.0490026 17.5806 0.00485646 17.8502 0.112575 17.9581C0.220293 18.0659 0.38187 18.1738 0.489588 18.2817C0.543447 18.2817 0.597306 18.3356 0.651165 18.3895C0.758883 18.4434 0.812742 18.4434 0.92046 18.4974C1.1359 18.5513 1.29747 18.5513 1.45905 18.5513C1.67449 18.5513 1.83606 18.4974 2.0515 18.4974C2.26694 18.4434 2.53623 18.3895 2.75167 18.3356C2.9671 18.2817 3.2364 18.2277 3.45183 18.1738C4.04428 18.012 4.58287 17.7963 5.17532 17.5806C6.36022 17.0413 7.49126 16.502 8.6223 15.9088ZM128.997 7.38816C129.105 6.74102 129.267 6.09389 129.536 5.50068C129.644 5.23103 129.805 4.96139 129.967 4.69175C130.021 4.63783 130.074 4.52997 130.128 4.47604H130.182H130.236C130.29 4.47604 130.344 4.47604 130.398 4.52997C130.613 4.74568 130.882 4.96139 131.098 5.23103C131.313 5.50068 131.475 5.77032 131.636 6.09389C131.69 6.20174 131.69 6.3096 131.744 6.41746C131.744 6.47138 131.744 6.57924 131.744 6.63317C131.69 6.84888 131.636 7.06459 131.529 7.22638C131.205 7.87352 130.882 8.52065 130.505 9.16779C130.128 9.761 129.751 10.4081 129.374 11.0014C129.213 10.516 129.105 10.0306 128.997 9.54529C128.943 8.84422 128.943 8.14316 128.997 7.38816ZM121.942 3.01998C121.888 3.01998 121.888 3.01998 121.942 3.01998V3.01998ZM121.834 2.91212C121.888 2.96605 121.888 2.96605 121.888 3.01998C121.888 2.96605 121.834 2.96605 121.834 2.91212C121.834 2.91212 121.78 2.85819 121.834 2.91212C121.834 2.91212 121.78 2.85819 121.834 2.91212ZM119.841 6.63317C119.949 5.82424 120.11 4.96139 120.434 4.2064C120.595 3.93676 120.703 3.66712 120.918 3.39748C121.026 3.28962 121.134 3.12784 121.295 3.01998C121.403 2.96605 121.511 2.91212 121.619 2.85819C121.672 2.85819 121.726 2.85819 121.78 2.80427C121.78 2.80427 121.78 2.80427 121.834 2.80427C121.888 2.85819 121.942 2.96605 121.942 3.01998C121.942 3.07391 121.942 3.12783 121.996 3.12783C121.996 3.23569 121.996 3.34355 121.996 3.4514C121.888 3.8289 121.78 4.2064 121.619 4.52997C121.295 5.28496 120.972 5.98603 120.649 6.6871C120.38 7.22638 120.164 7.71173 119.895 8.19709C119.895 8.0353 119.895 7.87352 119.895 7.71173C119.787 7.44209 119.787 7.06459 119.841 6.63317ZM107.561 6.95674C107.669 6.03996 107.884 5.17711 108.154 4.31426C108.315 3.93676 108.531 3.55926 108.8 3.18176C108.962 3.01998 109.123 2.85819 109.285 2.69641C109.339 2.64248 109.393 2.64248 109.446 2.58855C109.446 2.64248 109.5 2.64248 109.5 2.69641C109.608 2.91212 109.662 3.18176 109.662 3.39748C109.716 3.77497 109.716 4.2064 109.662 4.5839C109.446 5.87817 109.016 7.11852 108.531 8.35887C108.315 8.89815 108.046 9.43743 107.723 9.97672C107.615 10.1385 107.561 10.2464 107.454 10.4081C107.4 9.27565 107.454 8.08923 107.561 6.95674ZM92.427 6.03996C92.3731 6.09389 92.427 6.09389 92.427 6.03996C92.3731 6.09389 92.427 6.09389 92.427 6.03996ZM90.7573 10.3003C90.8112 9.86886 90.9189 9.38351 91.0266 8.95208C91.1343 8.4128 91.3498 7.92744 91.5113 7.44209C91.6729 7.06459 91.8884 6.74102 92.1038 6.36353C92.2115 6.25567 92.3192 6.14781 92.427 6.03996C92.5347 6.3096 92.5885 6.63317 92.6424 6.90281C92.6424 7.28031 92.6424 7.60388 92.6424 7.98137C92.5347 8.73637 92.3192 9.43743 92.0499 10.1385C91.6729 10.9474 91.2421 11.7563 90.7573 12.5113C90.7573 12.2417 90.7035 11.9721 90.7035 11.7024C90.7035 11.271 90.7035 10.7856 90.7573 10.3003ZM74.1149 9.05994C74.2226 8.30494 74.438 7.49602 74.7073 6.79495C74.815 6.52531 74.9766 6.3096 75.1382 6.03996C75.2459 5.9321 75.2998 5.82424 75.4075 5.71639C75.4614 5.66246 75.5152 5.66246 75.5691 5.60853C75.5691 5.66246 75.6229 5.77032 75.6229 5.82424C75.6768 6.41745 75.6768 7.01066 75.6229 7.60388C75.5152 8.14316 75.3536 8.68244 75.1382 9.16779C74.815 9.86886 74.438 10.516 74.061 11.1631C74.061 11.0014 74.061 10.8396 74.061 10.6778C74.0072 10.1385 74.061 9.59922 74.1149 9.05994ZM55.4258 9.43743C55.5335 8.79029 55.6412 8.14316 55.9105 7.49602C56.0182 7.33423 56.126 7.11852 56.2337 6.95674C56.3414 6.79495 56.503 6.6871 56.6107 6.57924C56.6646 6.52531 56.7184 6.52531 56.7723 6.47138H56.8261C56.88 6.52531 56.9339 6.57924 56.9877 6.63317C57.0954 6.79495 57.1493 6.90281 57.257 7.06459C57.3647 7.28031 57.4186 7.54995 57.4724 7.76566C57.4724 7.98137 57.4724 8.19709 57.4724 8.35887C57.3647 8.95208 57.2031 9.49136 56.9339 10.0306C56.5568 10.9474 56.0721 11.8642 55.5874 12.7271C55.5874 12.7271 55.5874 12.7271 55.5874 12.781C55.5335 12.5653 55.5335 12.3496 55.4797 12.1338C55.3719 11.2171 55.3719 10.3542 55.4258 9.43743ZM44.8694 6.90281V6.95674V6.90281ZM44.7617 6.52531C44.7617 6.47138 44.7617 6.47138 44.7617 6.41746C44.7617 6.41746 44.7617 6.47138 44.7617 6.52531ZM44.7079 6.6871C44.654 6.6871 44.7079 6.6871 44.7079 6.6871V6.6871ZM41.8533 12.1338C41.961 11.271 42.1765 10.4081 42.4458 9.54529C42.6612 9.11386 42.9305 8.68244 43.1998 8.30494C43.523 7.87352 43.9 7.49602 44.277 7.17245C44.3847 7.11852 44.4386 7.06459 44.5463 7.01066C44.4924 7.11852 44.4924 7.17245 44.4386 7.28031C44.1154 7.98137 43.7922 8.73637 43.4152 9.43743C42.8766 10.5699 42.3381 11.6485 41.7456 12.7271C41.8533 12.4574 41.8533 12.2956 41.8533 12.1338ZM26.2342 12.1338C26.2881 11.8103 26.3419 11.4328 26.4496 11.1092C26.5574 10.6778 26.6651 10.3003 26.8267 9.92279C26.9882 9.59922 27.1498 9.27565 27.3114 9.00601C27.4191 8.84422 27.5807 8.73637 27.7423 8.57458C27.7961 8.52065 27.9038 8.46673 27.9577 8.4128C28.0116 8.4128 28.0654 8.35887 28.1193 8.35887C28.227 8.35887 28.3347 8.35887 28.4963 8.35887H28.5501C28.604 8.4128 28.7117 8.52065 28.7656 8.57458C28.8733 8.68244 28.9272 8.84422 28.981 8.95208C29.0349 9.16779 29.1426 9.3835 29.1426 9.65315C29.1426 9.97672 29.1426 10.3003 29.1426 10.6778C29.0349 11.3249 28.8733 11.9181 28.6579 12.5113C28.227 13.4281 27.6884 14.291 27.0959 15.0999C26.8267 15.4235 26.6112 15.6931 26.3419 15.9627C26.2881 15.6931 26.1803 15.3695 26.1803 15.0999C26.0726 14.1831 26.1265 13.1585 26.2342 12.1338ZM10.5074 9.49136C10.5612 9.11386 10.6151 8.7903 10.7228 8.4128C10.8305 7.98137 10.9921 7.60388 11.1537 7.22638C11.4768 6.47138 11.9077 5.77032 12.3386 5.12318C12.6617 4.74568 13.0387 4.36818 13.4158 4.04461C13.6851 3.8289 14.0082 3.66712 14.3314 3.50533C14.5468 3.39748 14.7622 3.34355 14.9777 3.28962C15.1931 3.28962 15.4624 3.28962 15.6778 3.28962C15.8394 3.34355 16.001 3.39748 16.1626 3.4514C16.378 3.55926 16.5934 3.66712 16.8089 3.8289C16.9705 3.99069 17.132 4.15247 17.2936 4.31426C17.4552 4.52997 17.5629 4.69175 17.6706 4.90747C17.7245 5.12318 17.7783 5.33889 17.8322 5.5546C17.8322 5.71639 17.8322 5.82424 17.8322 5.98603C17.7783 6.20174 17.7245 6.41746 17.6706 6.57924C17.5629 6.79495 17.4013 7.01066 17.2936 7.22638C15.8933 8.95208 14.3314 10.516 12.554 11.8642C11.9616 12.3496 11.3153 12.781 10.6689 13.2124C10.6151 12.9967 10.5612 12.7271 10.5074 12.4574C10.3996 11.4867 10.3996 10.516 10.5074 9.49136Z" fill="#FFDC3F"/>
</svg>
