<svg width="117" height="24" viewBox="0 0 117 24" fill="none" xmlns="http://www.w3.org/2000/svg">
<path d="M113.544 15.441C113.332 15.441 113.16 15.269 113.16 15.0569C113.16 14.8448 113.332 14.6729 113.544 14.6729C113.756 14.6729 113.928 14.8448 113.928 15.0569C113.928 15.269 113.756 15.441 113.544 15.441Z" fill="#FFDC3F"/>
<path d="M108.378 15.9088C108.216 16.2863 108.108 16.6099 107.947 16.9874C107.516 17.9581 106.87 18.8749 106.169 19.6838C105.523 20.4388 104.715 21.0859 103.854 21.6252C103.477 21.8948 102.992 22.1106 102.561 22.2723C101.968 22.542 101.43 22.7038 100.837 22.8656C99.868 23.1352 98.7908 23.1352 97.8213 23.0813C96.6903 22.9734 95.6131 22.7038 94.5898 22.3263C93.6203 21.9488 92.7047 21.4634 91.843 20.9241C91.7891 20.8702 91.7353 20.8702 91.6814 20.8163C91.5737 20.9781 91.4121 21.0859 91.3044 21.1938C90.9274 21.5713 90.4965 21.8409 90.0656 22.1645C89.5809 22.4881 88.9884 22.7577 88.4499 22.9734C87.9113 23.1891 87.3727 23.243 86.7802 23.3509C86.2955 23.4048 85.7569 23.4588 85.2722 23.4048C84.6797 23.4048 84.1411 23.297 83.5487 23.1352C82.9562 23.0273 82.3638 22.8116 81.8252 22.5959C79.994 21.8948 78.3244 20.8163 76.8702 19.5759C76.6547 19.9534 76.4393 20.277 76.17 20.6006C75.9007 20.9781 75.5775 21.3016 75.2005 21.5713C74.7697 21.9488 74.2849 22.2184 73.7463 22.4881C73.2616 22.7038 72.8307 22.8656 72.2921 22.9734C71.8074 23.0813 71.2688 23.1352 70.7302 23.1352C70.1916 23.1352 69.6531 23.0273 69.1145 22.9195C68.5759 22.8116 68.0373 22.6498 67.4987 22.4341C65.5059 21.6252 63.8363 20.3849 62.3821 18.767C62.1666 18.5513 61.9512 18.2817 61.7358 18.012C61.5203 18.2277 61.3049 18.4974 61.0895 18.7131C60.7663 19.0906 60.3893 19.4141 59.9584 19.6838C59.4737 20.0613 58.9351 20.4388 58.3965 20.7084C57.9118 20.9781 57.4271 21.1938 56.8885 21.4095C56.3499 21.6252 55.8113 21.7331 55.2727 21.787C54.1417 21.9488 53.0106 21.787 51.8796 21.5713C50.8563 21.3556 49.8868 20.9781 48.9712 20.6006C47.9479 20.1691 47.0323 19.6299 46.1167 18.9827C45.3088 18.4434 44.6086 17.7963 43.9084 17.0952C43.8007 17.257 43.7469 17.4727 43.6391 17.6345C43.3699 18.1738 43.0467 18.6592 42.7235 19.0906C42.4542 19.4681 42.1311 19.7916 41.8079 20.1152C41.4309 20.4388 41.0539 20.7624 40.623 21.032C40.246 21.3016 39.8151 21.5173 39.3843 21.6791C38.8457 21.8948 38.3071 22.1106 37.7147 22.2184C36.6913 22.4341 35.668 22.4341 34.6447 22.3263C34.1061 22.2723 33.5675 22.1645 33.0289 22.0027C32.4365 21.8409 31.844 21.5713 31.2516 21.3016C30.2821 20.8702 29.4204 20.277 28.6125 19.5759C27.9662 19.0906 27.3737 18.4974 26.8351 17.9042C26.7274 18.012 26.6197 18.1738 26.512 18.2817C26.1888 18.6592 25.8118 18.9827 25.4348 19.3063C24.6269 19.9534 23.6574 20.3849 22.6341 20.6545C22.0955 20.7624 21.5569 20.8163 21.0183 20.8702C20.5336 20.9241 19.995 20.8702 19.5103 20.8163C18.9717 20.7624 18.4331 20.6545 17.8945 20.4927C17.3021 20.3309 16.7635 20.1152 16.2249 19.8995C15.2554 19.522 14.3398 19.0367 13.4242 18.4974C12.4548 17.9042 11.5392 17.1492 10.7313 16.3942C10.3543 16.0706 9.97725 15.6931 9.65409 15.3156C9.54637 15.4235 9.43866 15.4774 9.33094 15.5852C8.95393 15.9088 8.52306 16.1785 8.03832 16.4481C7.55359 16.6638 7.06886 16.8795 6.58413 17.0413C6.0994 17.2031 5.56081 17.257 5.02222 17.3109C4.42977 17.3649 3.83732 17.3109 3.24487 17.257C2.76014 17.2031 2.32927 17.0952 1.89839 16.9335C1.41367 16.7717 0.928932 16.556 0.498055 16.2863C0.0671844 16.0706 -0.30983 15.801 -0.686844 15.5313C-1.17157 15.1538 -1.6563 14.7763 -2.08718 14.3449C-2.19489 14.291 -2.24875 14.1831 -2.30261 14.0753C-2.30261 14.1292 -2.35648 14.1292 -2.35648 14.1831C-2.67963 14.6145 -3.1105 14.992 -3.54137 15.3695C-3.91838 15.6931 -4.34925 16.0167 -4.83398 16.2324C-5.04942 16.3402 -5.31872 16.4481 -5.58801 16.556C-5.80345 16.6638 -6.01888 16.7177 -6.23432 16.7717C-6.71906 16.9335 -7.25764 16.9874 -7.79623 16.9874C-8.44254 16.9874 -9.08884 16.8795 -9.6813 16.7717C-10.166 16.6638 -10.6508 16.502 -11.1355 16.2863C-11.4586 16.1245 -11.7279 15.9627 -11.9972 15.801C-12.1588 15.9088 -12.2665 16.0167 -12.4281 16.1245C-12.7513 16.3942 -13.1283 16.6099 -13.4514 16.8256C-13.8284 17.0413 -14.2593 17.2031 -14.6902 17.4188C-15.6058 17.7963 -16.5753 17.9581 -17.5447 18.0659C-18.3526 18.1738 -19.2143 18.1738 -20.0222 18.1199C-20.507 18.1199 -20.9917 18.0659 -21.4226 18.012C-22.1766 17.9042 -22.9306 17.7963 -23.6308 17.5267C-23.7924 17.4727 -24.0078 17.3649 -24.1694 17.3109C-24.3848 17.2031 -24.6002 17.0413 -24.8157 16.8256C-24.9234 16.7177 -24.9772 16.6099 -25.085 16.502C-25.1927 16.3402 -25.3004 16.1785 -25.3543 15.9627C-25.4081 15.747 -25.4081 15.5313 -25.462 15.3156C-25.462 15.046 -25.4081 14.7763 -25.2466 14.5606C-25.0311 14.237 -24.708 13.9674 -24.3309 13.8595C-23.9539 13.7517 -23.5231 13.8056 -23.1461 14.0213C-22.9845 14.1292 -22.769 14.291 -22.6613 14.4528C-22.6075 14.4528 -22.4997 14.5067 -22.4459 14.5067C-22.0689 14.6145 -21.6918 14.6685 -21.3148 14.7763C-21.0455 14.8303 -20.8301 14.8303 -20.5608 14.8842C-20.0222 14.9381 -19.4836 14.9381 -18.9989 14.9381C-18.5142 14.9381 -18.0294 14.8842 -17.4909 14.8303C-17.1677 14.7763 -16.7907 14.7224 -16.4675 14.6145C-16.1444 14.5606 -15.8212 14.3988 -15.4981 14.291C-15.0672 14.0753 -14.6363 13.8595 -14.2055 13.5899C-14.3132 13.4281 -14.4209 13.2663 -14.5825 13.1046C-15.0672 12.3496 -15.4981 11.5406 -15.929 10.7856C-16.306 10.0846 -16.6291 9.3835 -16.9523 8.62851C-17.1677 8.0353 -17.3831 7.49602 -17.437 6.84888C-17.437 6.47138 -17.3831 6.03996 -17.3293 5.66246C-17.2754 5.39282 -17.1677 5.12318 -17.06 4.90747C-16.9523 4.69175 -16.8984 4.52997 -16.7907 4.36818C-16.5753 3.99069 -16.306 3.61319 -16.0367 3.28962C-15.7674 2.96605 -15.5519 2.69641 -15.2288 2.42677C-14.9056 2.1032 -14.4747 1.94141 -14.0439 1.77963C-13.99 1.77963 -13.8823 1.7257 -13.8284 1.7257C-13.613 1.67177 -13.3976 1.67177 -13.236 1.67177C-12.9667 1.67177 -12.6974 1.7257 -12.3743 1.77963C-12.1588 1.83356 -11.9972 1.88749 -11.7818 1.99534C-11.5125 2.1032 -11.2971 2.26498 -11.1355 2.42677C-10.8123 2.69641 -10.5969 3.01998 -10.3276 3.34355C-10.0583 3.66712 -9.89674 4.04461 -9.73516 4.42211C-9.51972 4.90747 -9.30428 5.44675 -9.19657 5.9321C-9.08885 6.36353 -8.98113 6.84888 -8.92728 7.33423C-8.87341 7.87352 -8.81956 8.35887 -8.81956 8.89815C-8.81956 9.3835 -8.87341 9.81493 -8.92728 10.3003C-8.98113 10.7856 -9.08884 11.271 -9.25042 11.7024C-9.35814 12.1338 -9.57358 12.5653 -9.78902 13.0506C-9.84287 13.2124 -9.95059 13.3742 -10.0045 13.536C-9.89674 13.5899 -9.78902 13.6438 -9.62744 13.7517C-9.19657 13.9135 -8.71184 14.0213 -8.28097 14.0753C-7.90395 14.1292 -7.52694 14.1292 -7.14993 14.0753C-6.82677 14.0213 -6.50362 13.9135 -6.1266 13.8056C-5.80345 13.6438 -5.48029 13.482 -5.211 13.2663C-4.78012 12.8888 -4.34926 12.5113 -3.97224 12.0799C-3.91839 12.026 -3.91838 11.9721 -3.86452 11.9181C-4.45697 11.0553 -4.9417 10.1385 -5.37257 9.16779C-5.91116 8.08923 -6.34204 6.90281 -6.77291 5.77032C-6.93449 5.33889 -7.04221 4.90747 -7.20379 4.47604C-7.36536 3.99069 -7.36536 3.4514 -7.25764 2.91212C-7.20378 2.42677 -6.98835 2.04927 -6.77291 1.61785C-6.66519 1.40213 -6.44976 1.18642 -6.23432 1.02464C-5.96503 0.754995 -5.69573 0.647138 -5.31872 0.539282C-5.10329 0.485354 -4.88785 0.485354 -4.61855 0.431426C-4.56469 0.431426 -4.45697 0.431426 -4.34926 0.431426C-4.13382 0.431426 -3.97224 0.485354 -3.75681 0.539282C-3.48751 0.59321 -3.27207 0.701066 -3.05663 0.808923C-2.8412 0.916779 -2.62577 1.07856 -2.46419 1.24035C-2.30261 1.40213 -2.14103 1.50999 -1.97945 1.67177C-1.81788 1.83356 -1.6563 2.04927 -1.49473 2.26498C-1.17157 2.75034 -0.956139 3.28962 -0.7407 3.77497C-0.579124 4.26033 -0.417549 4.74568 -0.30983 5.23103C-0.20211 5.77032 -0.0943909 6.3096 -0.040535 6.84888C0.0133286 7.33423 0.0671844 7.87352 0.0671844 8.35887C0.0671844 8.95208 -0.0405273 9.54529 -0.0943909 10.1385C-0.148247 10.6239 -0.30983 11.0553 -0.471405 11.5406C0.0133209 12.0799 0.551918 12.6192 1.14436 13.1046C1.68295 13.482 2.27541 13.8595 2.86786 14.1292C3.35259 14.291 3.78345 14.4528 4.26819 14.5067C4.69906 14.5606 5.12994 14.5606 5.56081 14.5067C6.0994 14.3988 6.58413 14.291 7.06886 14.0753C7.39201 13.9135 7.71516 13.7517 8.03832 13.536C8.14604 13.4281 8.25376 13.3742 8.36148 13.2663C7.98447 12.7271 7.60745 12.1878 7.23044 11.5946C6.69185 10.7317 6.31483 9.761 5.93782 8.7903C5.56081 7.76566 5.23765 6.6871 5.07607 5.5546C4.96835 5.01532 4.9145 4.52997 4.96836 3.99069C4.96836 3.50533 5.07607 2.96605 5.18379 2.4807C5.23765 2.26498 5.29151 2.04927 5.39923 1.88749C5.50695 1.67177 5.56081 1.45606 5.66853 1.24035C5.72239 1.18642 5.72238 1.13249 5.77625 1.07856C5.88396 0.916779 5.99168 0.808923 6.15325 0.647138C6.31483 0.539282 6.42255 0.431426 6.58413 0.323569C6.7457 0.269641 6.90728 0.161785 7.06886 0.107856C7.33815 0.0539282 7.5536 0 7.82289 0C7.87675 0 7.98446 0 8.03832 0C8.1999 0 8.41534 0.0539282 8.57691 0.107856C8.79235 0.161785 9.06164 0.323569 9.22322 0.431426C9.43865 0.539282 9.65409 0.754995 9.81567 0.916779C10.1927 1.24035 10.462 1.67177 10.7313 2.04927C11.0544 2.53462 11.3237 3.12783 11.5392 3.66712C11.9162 4.63782 12.0777 5.66246 12.1855 6.6871C12.347 7.81959 12.4009 8.95208 12.347 10.0846C12.2932 11.0553 12.0778 11.9721 11.7007 12.8888C12.5086 13.7517 13.3704 14.5606 14.286 15.3156C15.2554 16.0167 16.2788 16.6099 17.4098 17.0952C18.3254 17.4727 19.241 17.7963 20.2105 17.9581C20.8029 18.012 21.3954 18.012 21.9878 17.9581C22.4187 17.9042 22.8496 17.7424 23.2804 17.5806C23.6574 17.4188 24.0345 17.2031 24.3576 16.9335C24.6808 16.6638 24.9501 16.3942 25.2194 16.0706C25.3271 15.9088 25.4348 15.801 25.5425 15.6392C25.3271 15.3156 25.0578 14.992 24.8423 14.6145C24.2499 13.6978 23.7113 12.7271 23.2804 11.7563C22.8496 10.7856 22.4725 9.81493 22.311 8.7903C22.2032 8.25101 22.1494 7.71173 22.1494 7.17245C22.1494 6.57924 22.2571 5.9321 22.4725 5.33889C22.5264 5.12318 22.6341 4.90747 22.7418 4.63782C22.7957 4.47604 22.9034 4.31426 23.0111 4.2064C23.1727 4.04461 23.2804 3.88283 23.442 3.72105C23.6036 3.55926 23.8729 3.39748 24.0883 3.34355C24.3037 3.28962 24.5192 3.28962 24.7346 3.28962C24.9501 3.28962 25.2194 3.34355 25.3809 3.39748C25.9195 3.55926 26.3504 3.99069 26.7274 4.36818C27.4276 5.12318 27.8046 6.09389 28.1816 7.01066C28.6125 8.08923 28.774 9.22172 28.9356 10.3542C29.0433 11.4328 28.9895 12.5113 28.8279 13.5899C28.7202 14.0753 28.6125 14.6145 28.5048 15.0999C29.2588 15.9627 30.0667 16.7717 30.9284 17.4727C31.6286 18.012 32.4365 18.4434 33.2443 18.8209C33.8907 19.0906 34.537 19.2524 35.1833 19.3602C35.8296 19.4141 36.5298 19.4141 37.1761 19.3602C37.7147 19.2524 38.1994 19.1445 38.6841 18.9288C39.1688 18.7131 39.5997 18.4434 40.0306 18.1738C40.4615 17.8502 40.7846 17.4727 41.1616 17.0413C41.5386 16.502 41.8618 15.9088 42.1311 15.3156C42.2388 15.0999 42.2927 14.8303 42.4004 14.6145C42.2388 14.3988 42.0772 14.1831 41.9157 13.9674C41.3232 13.1585 40.7846 12.2417 40.246 11.3249C39.7074 10.3542 39.2766 9.27565 39.0611 8.19709C38.9534 7.71173 38.8996 7.17245 38.8996 6.6871C38.8996 6.14781 38.9534 5.60853 39.0611 5.06925C39.115 4.79961 39.1688 4.5839 39.2227 4.31426C39.2766 4.09854 39.3843 3.8289 39.5459 3.61319C39.5997 3.50533 39.6536 3.4514 39.7613 3.34355C39.869 3.18176 39.9767 3.07391 40.1383 3.01998C40.4076 2.85819 40.6769 2.75034 40.9462 2.69641C41.2155 2.64248 41.3771 2.64248 41.6464 2.69641C41.9157 2.75034 42.1311 2.75034 42.3465 2.85819C42.562 2.96605 42.7774 3.07391 42.9928 3.18176C43.2083 3.28962 43.4237 3.50533 43.5853 3.66712C43.6391 3.72105 43.693 3.77497 43.7469 3.8289C43.8546 3.99069 43.9623 4.09854 44.07 4.26033C44.1777 4.47604 44.3393 4.63782 44.447 4.85354C44.5547 5.06925 44.6625 5.33889 44.7702 5.5546C44.8779 5.82424 44.9856 6.14781 45.0933 6.41746C45.4165 7.44209 45.5242 8.46673 45.5781 9.54529C45.6319 10.6778 45.4703 11.8103 45.3088 12.9428C45.2549 13.2124 45.201 13.4281 45.201 13.6978C45.9551 14.5606 46.7091 15.3695 47.5709 16.0706C48.5403 16.7717 49.5636 17.4188 50.6947 17.9042C51.1255 18.0659 51.5564 18.2277 51.9873 18.3356C52.5259 18.4974 53.0106 18.6052 53.5492 18.6592C54.1417 18.7131 54.7341 18.767 55.3804 18.7131C55.8651 18.6052 56.296 18.4974 56.7269 18.3356C57.4271 18.012 58.0734 17.6345 58.6658 17.2031C59.2583 16.7177 59.7969 16.1785 60.2816 15.5852C60.2816 15.5313 60.3354 15.5313 60.3354 15.4774C59.7969 14.7224 59.366 13.9135 58.9351 13.1046C58.4504 12.1878 58.0195 11.2171 57.6964 10.2464C57.5348 9.761 57.3732 9.27565 57.2655 8.73637C57.2116 8.46673 57.2116 8.19709 57.1578 7.92744C57.1578 7.60388 57.2116 7.22638 57.2655 6.90281C57.3193 6.41745 57.5886 5.9321 57.7502 5.50068C57.8579 5.28496 58.0195 5.06925 58.1272 4.85354C58.2888 4.63782 58.4504 4.42211 58.6658 4.26033C59.0428 3.88283 59.5276 3.55926 60.12 3.55926C60.3893 3.55926 60.6047 3.61319 60.874 3.61319C61.0356 3.66712 61.1433 3.72105 61.3049 3.77497C61.4665 3.8289 61.6281 3.93676 61.7896 3.99069C62.0051 4.09854 62.2205 4.31426 62.3821 4.42211C62.5437 4.5839 62.7052 4.74568 62.8668 4.90747C63.0284 5.12318 63.19 5.33889 63.2977 5.5546C63.4593 5.77032 63.5131 6.03996 63.6208 6.25567C64.0517 7.28031 64.2133 8.4128 64.321 9.49136C64.4287 10.5699 64.321 11.6485 64.1594 12.6731C64.0517 13.536 63.7824 14.3449 63.4593 15.0999C63.8363 15.5852 64.2672 16.0706 64.698 16.556C65.1289 17.0413 65.6675 17.5267 66.1522 17.9042C66.9062 18.4434 67.6603 18.9288 68.522 19.3063C69.1683 19.5759 69.8146 19.7377 70.4609 19.8456C70.838 19.8995 71.1611 19.8995 71.5381 19.8456C71.9151 19.7916 72.2383 19.6838 72.6153 19.522C72.8846 19.3602 73.1539 19.2524 73.4232 19.0367C73.6925 18.8209 73.9618 18.5513 74.1772 18.2817C74.3927 17.9581 74.5542 17.6345 74.7158 17.3109C74.7697 17.2031 74.7697 17.0952 74.8235 17.0413C74.6081 16.8256 74.4465 16.556 74.2311 16.3402C73.9079 15.9088 73.5309 15.4774 73.2077 14.992C72.8846 14.5067 72.6153 14.0213 72.2921 13.482C71.5381 12.1878 70.9457 10.7856 70.3532 9.3835C70.1378 8.84422 69.8685 8.30494 69.6531 7.76566C69.4915 7.28031 69.276 6.79495 69.276 6.3096C69.2222 5.71639 69.4376 5.12318 69.7608 4.63782C69.8146 4.52997 69.9223 4.42211 69.9762 4.31426C70.0839 4.15247 70.2455 4.04461 70.4071 3.93676C70.6225 3.77497 70.838 3.66712 71.0534 3.61319C71.2688 3.55926 71.5381 3.50533 71.8074 3.4514C72.0767 3.4514 72.346 3.4514 72.6153 3.50533C73.1539 3.61319 73.5848 3.77497 74.0695 4.04461C74.2311 4.74568 74.4465 4.90747 74.6619 5.06925C74.8774 5.28496 75.0928 5.50068 75.3083 5.71639C75.9546 6.47138 76.547 7.28031 76.9779 8.19709C77.1933 8.68244 77.3549 9.16779 77.5165 9.65315C77.678 10.1924 77.7319 10.7317 77.8396 11.3249C78.0012 12.4035 78.0551 13.4281 78.0551 14.5067C78.0551 15.046 78.0012 15.5313 77.9473 16.0706C78.4859 16.6099 79.0245 17.0952 79.617 17.5267C80.5864 18.2277 81.6098 18.8749 82.6869 19.3602C83.441 19.6838 84.2489 19.8995 85.0567 20.0613C85.5953 20.1152 86.0801 20.1152 86.5648 20.0613C86.9418 20.0074 87.3188 19.8995 87.6958 19.7916C88.0728 19.6299 88.4499 19.3602 88.8269 19.1445C88.9346 19.0367 89.0962 18.9288 89.2039 18.8209C88.4499 18.1199 87.8035 17.3109 87.1572 16.502C86.4571 15.5852 85.9185 14.6145 85.4876 13.5899C85.2722 13.1046 85.1106 12.6192 85.0029 12.1338C84.8413 11.5946 84.7874 11.0014 84.7336 10.4081C84.6797 9.86886 84.7874 9.27565 84.8952 8.73637C84.949 8.52065 85.0029 8.25101 85.1106 8.0353C85.2722 7.6578 85.4338 7.33423 85.6492 7.01066C85.8108 6.74102 86.0262 6.52531 86.1878 6.3096C86.3494 6.09389 86.6186 5.87817 86.8341 5.77032C87.2111 5.50068 87.6958 5.33889 88.1267 5.28496C88.396 5.23103 88.6653 5.23103 88.9884 5.23103C89.2577 5.23103 89.5809 5.28496 89.8502 5.33889C89.904 5.33889 90.0118 5.39282 90.0656 5.39282C90.2811 5.44675 90.4426 5.5546 90.6581 5.60853C90.9812 5.77032 91.3044 5.98603 91.5737 6.25567C91.7353 6.41745 91.9507 6.57924 92.1123 6.74102C92.3277 6.95674 92.4893 7.22638 92.6509 7.44209C92.974 7.87352 93.1895 8.4128 93.4049 8.89815C93.5665 9.3835 93.728 9.81493 93.8896 10.3003C94.0512 10.9474 94.1589 11.5946 94.2128 12.2956C94.3205 13.3742 94.3743 14.4528 94.2128 15.4774C94.1589 16.0706 94.0512 16.6099 93.8896 17.1492C93.7819 17.5806 93.6203 18.012 93.4587 18.3895C94.1589 18.8749 94.9129 19.2524 95.667 19.6299C96.421 19.9534 97.2289 20.1691 98.0906 20.277C98.6831 20.3309 99.2217 20.3309 99.8141 20.277C100.46 20.1691 101.053 20.0074 101.645 19.7377C102.238 19.4681 102.722 19.1445 103.261 18.767C103.8 18.3356 104.284 17.8502 104.715 17.3109C105.2 16.6638 105.577 16.0167 105.9 15.2617C106.008 14.992 106.116 14.7224 106.169 14.5067C104.446 13.4281 102.83 12.2417 101.322 10.9474C100.945 10.6239 100.514 10.2464 100.137 9.86886C99.7603 9.49136 99.3832 9.11386 99.0601 8.7903C98.7369 8.46673 98.4138 8.14316 98.1445 7.76566C97.8213 7.33423 97.6059 6.84888 97.4443 6.3096C97.3366 5.87817 97.3366 5.39282 97.3905 4.96139C97.4443 4.47604 97.552 4.04461 97.7675 3.61319C98.1983 2.69641 98.8985 1.99534 99.7603 1.50999C99.9757 1.40213 100.245 1.29428 100.46 1.18642C100.676 1.07856 100.891 1.02464 101.161 1.02464C101.645 0.916779 102.184 0.970707 102.669 1.02464C103.153 1.07856 103.584 1.24035 104.069 1.45606C104.608 1.7257 105.092 1.99534 105.523 2.37284C107.139 3.66712 108.162 5.60853 108.809 7.54995C109.132 8.52065 109.293 9.59922 109.347 10.6778C109.401 11.8103 109.293 12.9967 109.078 14.0753C109.024 14.291 108.97 14.5606 108.916 14.7763C110.155 15.5313 111.502 16.1785 112.794 16.7717C113.279 16.9874 113.71 17.1492 114.194 17.257C114.518 17.3109 114.949 17.4727 115.379 17.5806C115.541 17.5806 115.703 17.5806 115.864 17.5806H115.918C115.864 17.5267 115.81 17.4727 115.756 17.4188C115.541 17.257 115.326 17.0952 115.11 16.9335C114.895 16.7717 114.841 16.502 114.949 16.2863C115.056 16.1245 115.379 15.9627 115.541 16.1245C115.81 16.2863 116.026 16.4481 116.295 16.6638C116.403 16.7717 116.51 16.8795 116.618 16.9874C116.726 17.0952 116.834 17.257 116.941 17.4188C117.049 17.5806 116.995 17.8502 116.887 17.9581C116.78 18.0659 116.618 18.1738 116.51 18.2817C116.457 18.2817 116.403 18.3356 116.349 18.3895C116.241 18.4434 116.187 18.4434 116.08 18.4974C115.864 18.5513 115.703 18.5513 115.541 18.5513C115.326 18.5513 115.164 18.4974 114.949 18.4974C114.733 18.4434 114.464 18.3895 114.248 18.3356C114.033 18.2817 113.764 18.2277 113.548 18.1738C112.956 18.012 112.417 17.7963 111.825 17.5806C110.64 17.0413 109.509 16.502 108.378 15.9088ZM-11.9972 7.38816C-12.1049 6.74102 -12.2665 6.09389 -12.5358 5.50068C-12.6435 5.23103 -12.8051 4.96139 -12.9667 4.69175C-13.0206 4.63783 -13.0744 4.52997 -13.1283 4.47604H-13.1821H-13.236C-13.2899 4.47604 -13.3437 4.47604 -13.3976 4.52997C-13.613 4.74568 -13.8823 4.96139 -14.0977 5.23103C-14.3132 5.50068 -14.4747 5.77032 -14.6363 6.09389C-14.6902 6.20174 -14.6902 6.3096 -14.744 6.41746C-14.744 6.47138 -14.744 6.57924 -14.744 6.63317C-14.6902 6.84888 -14.6363 7.06459 -14.5286 7.22638C-14.2055 7.87352 -13.8823 8.52065 -13.5053 9.16779C-13.1283 9.761 -12.7513 10.4081 -12.3743 11.0014C-12.2127 10.516 -12.1049 10.0306 -11.9972 9.54529C-11.9434 8.84422 -11.9434 8.14316 -11.9972 7.38816ZM-4.9417 3.01998C-4.88784 3.01998 -4.88784 3.01998 -4.9417 3.01998V3.01998ZM-4.83398 2.91212C-4.88784 2.96605 -4.88785 2.96605 -4.88785 3.01998C-4.88785 2.96605 -4.83398 2.96605 -4.83398 2.91212C-4.83398 2.91212 -4.78013 2.85819 -4.83398 2.91212C-4.83398 2.91212 -4.78013 2.85819 -4.83398 2.91212ZM-2.8412 6.63317C-2.94892 5.82424 -3.1105 4.96139 -3.43365 4.2064C-3.59523 3.93676 -3.70295 3.66712 -3.91838 3.39748C-4.0261 3.28962 -4.13382 3.12784 -4.29539 3.01998C-4.40311 2.96605 -4.51083 2.91212 -4.61855 2.85819C-4.67241 2.85819 -4.72627 2.85819 -4.78013 2.80427C-4.78013 2.80427 -4.78013 2.80427 -4.83398 2.80427C-4.88784 2.85819 -4.9417 2.96605 -4.9417 3.01998C-4.9417 3.07391 -4.9417 3.12783 -4.99556 3.12783C-4.99556 3.23569 -4.99556 3.34355 -4.99556 3.4514C-4.88785 3.8289 -4.78013 4.2064 -4.61855 4.52997C-4.29539 5.28496 -3.97224 5.98603 -3.64909 6.6871C-3.37979 7.22638 -3.16436 7.71173 -2.89507 8.19709C-2.89507 8.0353 -2.89507 7.87352 -2.89507 7.71173C-2.78735 7.44209 -2.78735 7.06459 -2.8412 6.63317ZM9.43866 6.95674C9.33094 6.03996 9.1155 5.17711 8.84621 4.31426C8.68463 3.93676 8.46919 3.55926 8.1999 3.18176C8.03832 3.01998 7.87675 2.85819 7.71517 2.69641C7.66132 2.64248 7.60745 2.64248 7.5536 2.58855C7.5536 2.64248 7.49973 2.64248 7.49973 2.69641C7.39201 2.91212 7.33815 3.18176 7.33815 3.39748C7.28429 3.77497 7.28429 4.2064 7.33815 4.5839C7.55359 5.87817 7.98447 7.11852 8.46919 8.35887C8.68463 8.89815 8.95393 9.43743 9.27708 9.97672C9.3848 10.1385 9.43866 10.2464 9.54638 10.4081C9.60023 9.27565 9.54638 8.08923 9.43866 6.95674ZM24.573 6.03996C24.6269 6.09389 24.573 6.09389 24.573 6.03996C24.6269 6.09389 24.573 6.09389 24.573 6.03996ZM26.2427 10.3003C26.1888 9.86886 26.0811 9.38351 25.9734 8.95208C25.8657 8.4128 25.6502 7.92744 25.4887 7.44209C25.3271 7.06459 25.1116 6.74102 24.8962 6.36353C24.7885 6.25567 24.6808 6.14781 24.573 6.03996C24.4653 6.3096 24.4115 6.63317 24.3576 6.90281C24.3576 7.28031 24.3576 7.60388 24.3576 7.98137C24.4653 8.73637 24.6808 9.43743 24.9501 10.1385C25.3271 10.9474 25.7579 11.7563 26.2427 12.5113C26.2427 12.2417 26.2965 11.9721 26.2965 11.7024C26.2965 11.271 26.2965 10.7856 26.2427 10.3003ZM42.8851 9.05994C42.7774 8.30494 42.562 7.49602 42.2927 6.79495C42.185 6.52531 42.0234 6.3096 41.8618 6.03996C41.7541 5.9321 41.7002 5.82424 41.5925 5.71639C41.5386 5.66246 41.4848 5.66246 41.4309 5.60853C41.4309 5.66246 41.3771 5.77032 41.3771 5.82424C41.3232 6.41745 41.3232 7.01066 41.3771 7.60388C41.4848 8.14316 41.6464 8.68244 41.8618 9.16779C42.185 9.86886 42.562 10.516 42.939 11.1631C42.939 11.0014 42.939 10.8396 42.939 10.6778C42.9928 10.1385 42.939 9.59922 42.8851 9.05994ZM61.5742 9.43743C61.4665 8.79029 61.3588 8.14316 61.0895 7.49602C60.9818 7.33423 60.874 7.11852 60.7663 6.95674C60.6586 6.79495 60.497 6.6871 60.3893 6.57924C60.3354 6.52531 60.2816 6.52531 60.2277 6.47138H60.1739C60.12 6.52531 60.0661 6.57924 60.0123 6.63317C59.9046 6.79495 59.8507 6.90281 59.743 7.06459C59.6353 7.28031 59.5814 7.54995 59.5276 7.76566C59.5276 7.98137 59.5276 8.19709 59.5276 8.35887C59.6353 8.95208 59.7969 9.49136 60.0661 10.0306C60.4432 10.9474 60.9279 11.8642 61.4126 12.7271C61.4126 12.7271 61.4126 12.7271 61.4126 12.781C61.4665 12.5653 61.4665 12.3496 61.5203 12.1338C61.6281 11.2171 61.6281 10.3542 61.5742 9.43743ZM72.1306 6.90281V6.95674V6.90281ZM72.2383 6.52531C72.2383 6.47138 72.2383 6.47138 72.2383 6.41746C72.2383 6.41746 72.2383 6.47138 72.2383 6.52531ZM72.2921 6.6871C72.346 6.6871 72.2921 6.6871 72.2921 6.6871V6.6871ZM75.1467 12.1338C75.039 11.271 74.8235 10.4081 74.5542 9.54529C74.3388 9.11386 74.0695 8.68244 73.8002 8.30494C73.477 7.87352 73.1 7.49602 72.723 7.17245C72.6153 7.11852 72.5614 7.06459 72.4537 7.01066C72.5076 7.11852 72.5076 7.17245 72.5614 7.28031C72.8846 7.98137 73.2078 8.73637 73.5848 9.43743C74.1234 10.5699 74.6619 11.6485 75.2544 12.7271C75.1467 12.4574 75.1467 12.2956 75.1467 12.1338ZM90.7658 12.1338C90.7119 11.8103 90.6581 11.4328 90.5504 11.1092C90.4426 10.6778 90.3349 10.3003 90.1733 9.92279C90.0118 9.59922 89.8502 9.27565 89.6886 9.00601C89.5809 8.84422 89.4193 8.73637 89.2577 8.57458C89.2039 8.52065 89.0962 8.46673 89.0423 8.4128C88.9884 8.4128 88.9346 8.35887 88.8807 8.35887C88.773 8.35887 88.6653 8.35887 88.5037 8.35887H88.4499C88.396 8.4128 88.2883 8.52065 88.2344 8.57458C88.1267 8.68244 88.0728 8.84422 88.019 8.95208C87.9651 9.16779 87.8574 9.3835 87.8574 9.65315C87.8574 9.97672 87.8574 10.3003 87.8574 10.6778C87.9651 11.3249 88.1267 11.9181 88.3421 12.5113C88.773 13.4281 89.3116 14.291 89.9041 15.0999C90.1733 15.4235 90.3888 15.6931 90.6581 15.9627C90.7119 15.6931 90.8197 15.3695 90.8197 15.0999C90.9274 14.1831 90.8735 13.1585 90.7658 12.1338ZM106.493 9.49136C106.439 9.11386 106.385 8.7903 106.277 8.4128C106.169 7.98137 106.008 7.60388 105.846 7.22638C105.523 6.47138 105.092 5.77032 104.661 5.12318C104.338 4.74568 103.961 4.36818 103.584 4.04461C103.315 3.8289 102.992 3.66712 102.669 3.50533C102.453 3.39748 102.238 3.34355 102.022 3.28962C101.807 3.28962 101.538 3.28962 101.322 3.28962C101.161 3.34355 100.999 3.39748 100.837 3.4514C100.622 3.55926 100.407 3.66712 100.191 3.8289C100.03 3.99069 99.868 4.15247 99.7064 4.31426C99.5448 4.52997 99.4371 4.69175 99.3294 4.90747C99.2755 5.12318 99.2217 5.33889 99.1678 5.5546C99.1678 5.71639 99.1678 5.82424 99.1678 5.98603C99.2217 6.20174 99.2755 6.41746 99.3294 6.57924C99.4371 6.79495 99.5987 7.01066 99.7064 7.22638C101.107 8.95208 102.669 10.516 104.446 11.8642C105.038 12.3496 105.685 12.781 106.331 13.2124C106.385 12.9967 106.439 12.7271 106.493 12.4574C106.6 11.4867 106.6 10.516 106.493 9.49136Z" fill="#FFDC3F"/>
</svg>
